<svg width="16" height="18" viewBox="0 0 16 18" fill="none" xmlns="http://www.w3.org/2000/svg">
<path opacity="0.7" d="M4.5 4.55556V11.6667C4.5 12.1382 4.68437 12.5903 5.01256 12.9237C5.34075 13.2571 5.78587 13.4444 6.25 13.4444H11.5M4.5 4.55556V2.77778C4.5 2.30628 4.68437 1.8541 5.01256 1.5207C5.34075 1.1873 5.78587 1 6.25 1H10.2628C10.4948 1.00005 10.7173 1.09373 10.8814 1.26044L14.7436 5.184C14.9077 5.35066 15 5.57672 15 5.81244V11.6667C15 12.1382 14.8156 12.5903 14.4874 12.9237C14.1592 13.2571 13.7141 13.4444 13.25 13.4444H11.5M4.5 4.55556H2.75C2.28587 4.55556 1.84075 4.74286 1.51256 5.07625C1.18437 5.40965 1 5.86184 1 6.33333V15.2222C1 15.6937 1.18437 16.1459 1.51256 16.4793C1.84075 16.8127 2.28587 17 2.75 17H9.75C10.2141 17 10.6592 16.8127 10.9874 16.4793C11.3156 16.1459 11.5 15.6937 11.5 15.2222V13.4444" stroke="#2C3E50" stroke-linecap="round" stroke-linejoin="round"/>
</svg>
