<svg width="30" height="23" viewBox="0 0 30 23" fill="none" xmlns="http://www.w3.org/2000/svg">
<path d="M1.66655 10.6667H9.66655C10.0202 10.6667 10.3593 10.5262 10.6094 10.2761C10.8594 10.0261 10.9999 9.68696 10.9999 9.33333V1.33333C10.9999 0.979711 10.8594 0.640573 10.6094 0.390524C10.3593 0.140476 10.0202 0 9.66655 0H1.66655C1.31293 0 0.973791 0.140476 0.723742 0.390524C0.473694 0.640573 0.333218 0.979711 0.333218 1.33333V9.33333C0.333218 9.68696 0.473694 10.0261 0.723742 10.2761C0.973791 10.5262 1.31293 10.6667 1.66655 10.6667ZM2.99988 2.66667H8.33322V8H2.99988V2.66667ZM28.3332 4H14.9999C14.6463 4 14.3071 4.14048 14.0571 4.39052C13.807 4.64057 13.6666 4.97971 13.6666 5.33333C13.6666 5.68696 13.807 6.02609 14.0571 6.27614C14.3071 6.52619 14.6463 6.66667 14.9999 6.66667H28.3332C28.6868 6.66667 29.026 6.52619 29.276 6.27614C29.5261 6.02609 29.6666 5.68696 29.6666 5.33333C29.6666 4.97971 29.5261 4.64057 29.276 4.39052C29.026 4.14048 28.6868 4 28.3332 4ZM28.3332 17.3333H14.9999C14.6463 17.3333 14.3071 17.4738 14.0571 17.7239C13.807 17.9739 13.6666 18.313 13.6666 18.6667C13.6666 19.0203 13.807 19.3594 14.0571 19.6095C14.3071 19.8595 14.6463 20 14.9999 20H28.3332C28.6868 20 29.026 19.8595 29.276 19.6095C29.5261 19.3594 29.6666 19.0203 29.6666 18.6667C29.6666 18.313 29.5261 17.9739 29.276 17.7239C29.026 17.4738 28.6868 17.3333 28.3332 17.3333ZM4.25588 22.6667H4.27189C4.62148 22.6655 4.95666 22.5272 5.20522 22.2813L10.5999 16.948C10.7383 16.8289 10.8508 16.6826 10.9303 16.5182C11.0099 16.3538 11.0548 16.1749 11.0623 15.9924C11.0699 15.81 11.0399 15.6279 10.9741 15.4575C10.9084 15.2872 10.8084 15.1321 10.6803 15.002C10.5522 14.8718 10.3987 14.7694 10.2293 14.701C10.06 14.6327 9.87844 14.5998 9.69589 14.6045C9.51333 14.6092 9.33369 14.6513 9.1681 14.7283C9.0025 14.8053 8.85448 14.9155 8.73322 15.052L4.29455 19.4373L2.62522 17.704C2.50344 17.5781 2.35806 17.4774 2.19737 17.4077C2.03668 17.338 1.86384 17.3006 1.68871 17.2977C1.33501 17.2919 0.993472 17.4267 0.739218 17.6727C0.484964 17.9186 0.338824 18.2555 0.332948 18.6092C0.327072 18.9629 0.461941 19.3044 0.707885 19.5587L3.31322 22.2667C3.43623 22.3922 3.58284 22.4921 3.74462 22.5608C3.9064 22.6294 4.08015 22.6654 4.25588 22.6667Z" fill="#F4F3F8"/>
</svg>
