<svg width="26" height="26" viewBox="0 0 26 26" fill="none" xmlns="http://www.w3.org/2000/svg">
<path d="M1 3.66667C1 2.95942 1.28095 2.28115 1.78105 1.78105C2.28115 1.28095 2.95942 1 3.66667 1H8.04C8.31973 1.00021 8.5923 1.0884 8.81914 1.25207C9.04598 1.41574 9.21561 1.64661 9.304 1.912L11.3013 7.90267C11.4025 8.20712 11.3906 8.53785 11.2676 8.83419C11.1447 9.13053 10.919 9.37261 10.632 9.516L7.62267 11.0227C9.09776 14.2874 11.7126 16.9022 14.9773 18.3773L16.484 15.368C16.6274 15.081 16.8695 14.8553 17.1658 14.7324C17.4621 14.6094 17.7929 14.5975 18.0973 14.6987L24.088 16.696C24.3536 16.7845 24.5846 16.9543 24.7483 17.1814C24.912 17.4085 25.0001 17.6814 25 17.9613V22.3333C25 23.0406 24.719 23.7189 24.219 24.219C23.7189 24.719 23.0406 25 22.3333 25H21C9.95467 25 1 16.0453 1 5V3.66667Z" stroke="#2C3E50" stroke-width="2" stroke-linecap="round" stroke-linejoin="round"/>
</svg>
