<svg width="17" height="16" viewBox="0 0 17 16" fill="none" xmlns="http://www.w3.org/2000/svg">
<path d="M14.6266 7.3335V11.3335C14.6266 14.0002 13.9463 14.6668 11.2251 14.6668H4.42204C1.70081 14.6668 1.02051 14.0002 1.02051 11.3335L1.02051 4.66683C1.02051 2.00016 1.70081 1.3335 4.42204 1.3335H5.4425C6.46296 1.3335 6.68746 1.62683 7.07524 2.1335L8.0957 3.46683C8.35421 3.80016 8.50388 4.00016 9.18419 4.00016H11.2251C13.9463 4.00016 14.6266 4.66683 14.6266 7.3335Z" stroke="#858585" stroke-miterlimit="10"/>
<path d="M5.44238 1.3335L11.5651 1.3335C12.9258 1.3335 13.6061 2.00016 13.6061 3.3335V4.2535" stroke="#858585" stroke-miterlimit="10" stroke-linecap="round" stroke-linejoin="round"/>
<path d="M9.52433 10H6.1228" stroke="#858585" stroke-miterlimit="10" stroke-linecap="round" stroke-linejoin="round"/>
</svg>
