<svg width="70" height="38" viewBox="0 0 70 38" fill="none" xmlns="http://www.w3.org/2000/svg">
<path d="M17.3499 7.45233C7.80664 11.5261 5.72105e-06 14.9344 5.72105e-06 15.0317C-0.0162243 15.1778 34.505 30.012 34.927 30.0283C35.3003 30.0445 39.6337 28.178 39.585 28.0157C39.5687 27.9508 35.3976 26.1168 30.3501 23.9582C25.2863 21.7996 21.1152 19.9981 21.0503 19.9494C21.0016 19.9007 24.1665 18.4887 28.0617 16.817L35.1704 13.7983H46.4016H57.6327L61.2845 15.3563L64.9525 16.9144V25.0619V33.2093L62.9237 34.313C61.8038 34.9135 60.895 35.4653 60.895 35.514C60.895 35.6601 65.1472 37.981 65.4231 37.981C65.6666 37.981 69.9838 35.6763 69.9838 35.5302C69.9838 35.4815 69.0587 34.9297 67.9226 34.2967L65.8451 33.1606L65.8127 25.0619L65.764 16.9631L67.8739 16.0705C69.0424 15.5836 70 15.1129 70 15.0317C70 14.9506 67.2896 13.7333 63.9624 12.3213L57.9411 9.74076L51.368 9.7083L44.7948 9.65961L47.9434 8.32875C49.6638 7.5984 51.0596 6.9492 51.0434 6.88428C51.0109 6.72198 35.2191 0.00275803 34.927 0.0189857C34.7971 0.0189857 26.8769 3.36237 17.3499 7.45233ZM41.3703 6.91674C41.3378 6.9492 35.6249 9.41616 28.646 12.3862L15.9703 17.8071L12.6919 16.4113C10.8903 15.6485 9.47833 14.9993 9.54325 14.983C9.6244 14.9506 15.386 12.4999 22.3325 9.52977L34.9919 4.10895L38.2054 5.48849C39.9745 6.25131 41.4027 6.90051 41.3703 6.91674Z" fill="#2C3E50"/>
<path d="M17.4148 28.3888C16.2138 28.8919 15.2076 29.395 15.1751 29.4762C15.1426 29.6223 34.1642 37.8184 34.8458 37.932C35.2191 38.0132 54.7601 29.7034 54.7601 29.4762C54.7601 29.395 53.7213 28.8919 52.4716 28.3563L50.1832 27.3825L42.6849 30.5961C38.5463 32.3651 35.0893 33.8096 34.9919 33.8096C34.9108 33.8096 31.4538 32.3814 27.3476 30.6285C23.2252 28.8595 19.8006 27.4312 19.7195 27.4312C19.6546 27.4474 18.6158 27.8694 17.4148 28.3888Z" fill="#2C3E50"/>
</svg>
