<svg width="24" height="26" viewBox="0 0 24 26" fill="none" xmlns="http://www.w3.org/2000/svg">
<path d="M19.0712 18.4918L13.7675 23.771C13.5356 24.0021 13.2601 24.1855 12.9569 24.3105C12.6538 24.4356 12.3288 24.5 12.0006 24.5C11.6724 24.5 11.3475 24.4356 11.0443 24.3105C10.7411 24.1855 10.4657 24.0021 10.2338 23.771L4.92875 18.4918C3.53028 17.0998 2.57792 15.3262 2.19211 13.3954C1.8063 11.4646 2.00437 9.46323 2.76126 7.64446C3.51815 5.82569 4.79987 4.27117 6.44435 3.17746C8.08883 2.08376 10.0222 1.5 12 1.5C13.9778 1.5 15.9112 2.08376 17.5556 3.17746C19.2001 4.27117 20.4819 5.82569 21.2387 7.64446C21.9956 9.46323 22.1937 11.4646 21.8079 13.3954C21.4221 15.3262 20.4697 17.0998 19.0712 18.4918Z" stroke="#2C3E50" stroke-width="2" stroke-linecap="round" stroke-linejoin="round"/>
<path d="M15 11.9167C15 12.7787 14.6839 13.6054 14.1213 14.2148C13.5587 14.8243 12.7956 15.1667 12 15.1667C11.2044 15.1667 10.4413 14.8243 9.87868 14.2148C9.31607 13.6054 9 12.7787 9 11.9167C9 11.0548 9.31607 10.2281 9.87868 9.61865C10.4413 9.00916 11.2044 8.66675 12 8.66675C12.7956 8.66675 13.5587 9.00916 14.1213 9.61865C14.6839 10.2281 15 11.0548 15 11.9167Z" stroke="#2C3E50" stroke-width="2" stroke-linecap="round" stroke-linejoin="round"/>
</svg>
