<svg width="20" height="20" viewBox="0 0 20 20" fill="none" xmlns="http://www.w3.org/2000/svg">
<path d="M19 13.031C17.3632 13.6892 15.5691 13.8518 13.8406 13.4987C12.1122 13.1456 10.5256 12.2923 9.27816 11.0448C8.03071 9.79738 7.17739 8.21082 6.82426 6.48236C6.47114 4.7539 6.63379 2.95978 7.29199 1.323C5.3537 2.10373 3.74735 3.53439 2.74831 5.36972C1.74928 7.20505 1.41978 9.33074 1.8163 11.3824C2.21282 13.434 3.31067 15.2839 4.92164 16.6148C6.53261 17.9457 8.55637 18.6747 10.646 18.677C12.4429 18.6771 14.1987 18.1394 15.6875 17.1332C17.1763 16.127 18.33 14.6983 19 13.031Z" stroke="white" stroke-width="2" stroke-linecap="round" stroke-linejoin="round"/>
</svg>
