<svg width="128" height="70" viewBox="0 0 128 70" fill="none" xmlns="http://www.w3.org/2000/svg">
<path d="M31.7255 13.5925C14.275 21.0416 1.04614e-05 27.2739 1.04614e-05 27.452C-0.0296673 27.7191 63.0948 54.8445 63.8665 54.8742C64.549 54.9039 72.473 51.4909 72.384 51.1941C72.3543 51.0754 64.7271 47.7219 55.4973 43.7747C46.2379 39.8276 38.6107 36.5334 38.492 36.4443C38.403 36.3553 44.1901 33.7733 51.3128 30.7165L64.3116 25.1965H84.8486H105.386L112.063 28.0455L118.77 30.8946V45.7928V60.691L115.061 62.7091C113.013 63.8072 111.351 64.8162 111.351 64.9052C111.351 65.1723 119.126 69.4163 119.631 69.4163C120.076 69.4163 127.97 65.202 127.97 64.9349C127.97 64.8459 126.279 63.8368 124.201 62.6794L120.402 60.602L120.343 45.7928L120.254 30.9836L124.112 29.3513C126.249 28.461 128 27.6004 128 27.452C128 27.3036 123.044 25.0778 116.96 22.4958L105.949 17.777L93.93 17.7177L81.9105 17.6287L87.668 15.1951C90.8138 13.8596 93.3661 12.6725 93.3364 12.5538C93.2771 12.257 64.4007 -0.0295868 63.8665 9.15527e-05C63.629 9.15527e-05 49.1463 6.1137 31.7255 13.5925ZM75.6485 12.6131C75.5891 12.6725 65.1426 17.1835 52.3812 22.6145L29.2029 32.5269L23.208 29.9746C19.9138 28.5797 17.3318 27.3926 17.4505 27.3629C17.5989 27.3036 28.1345 22.8223 40.8365 17.3912L63.9852 7.47887L69.8614 10.0015C73.0962 11.3963 75.7079 12.5834 75.6485 12.6131Z" fill="white"/>
<path d="M31.8443 51.8768C29.6481 52.7968 27.8081 53.7168 27.7487 53.8652C27.6894 54.1323 62.4717 69.1195 63.7181 69.3273C64.4007 69.4757 100.133 54.2807 100.133 53.8652C100.133 53.7168 98.2333 52.7968 95.9481 51.8174L91.7635 50.0368L78.0525 55.913C70.4846 59.1478 64.1633 61.7891 63.9852 61.7891C63.8368 61.7891 57.5155 59.1775 50.007 55.9723C42.4689 52.7374 36.2069 50.1258 36.0585 50.1258C35.9398 50.1555 34.0404 50.9271 31.8443 51.8768Z" fill="white"/>
</svg>
