<svg width="21" height="21" viewBox="0 0 21 21" fill="none" xmlns="http://www.w3.org/2000/svg">
<path d="M10.8252 1.13818V2.13818M10.8252 18.1382V19.1382M19.8252 10.1382H18.8252M2.8252 10.1382H1.8252M17.1892 16.5022L16.4822 15.7952M5.1682 4.48118L4.4612 3.77418M17.1892 3.77418L16.4822 4.48118M5.1682 15.7952L4.4612 16.5022M14.8252 10.1382C14.8252 11.199 14.4038 12.2165 13.6536 12.9666C12.9035 13.7168 11.8861 14.1382 10.8252 14.1382C9.76433 14.1382 8.74691 13.7168 7.99677 12.9666C7.24662 12.2165 6.8252 11.199 6.8252 10.1382C6.8252 9.07732 7.24662 8.0599 7.99677 7.30976C8.74691 6.55961 9.76433 6.13818 10.8252 6.13818C11.8861 6.13818 12.9035 6.55961 13.6536 7.30976C14.4038 8.0599 14.8252 9.07732 14.8252 10.1382Z" stroke="#16A085" stroke-width="2" stroke-linecap="round" stroke-linejoin="round"/>
</svg>
