<svg width="24" height="30" viewBox="0 0 24 30" fill="none" xmlns="http://www.w3.org/2000/svg">
<path d="M19.9999 8.5C19.9999 4.09 16.4099 0.5 11.9999 0.5C7.58985 0.5 3.99985 4.09 3.99985 8.5C3.99985 12.91 7.58985 16.5 11.9999 16.5C16.4099 16.5 19.9999 12.91 19.9999 8.5ZM6.99985 8.5C6.99985 5.74 9.23985 3.5 11.9999 3.5C14.7599 3.5 16.9999 5.74 16.9999 8.5C16.9999 11.26 14.7599 13.5 11.9999 13.5C9.23985 13.5 6.99985 11.26 6.99985 8.5ZM14.3999 18.5H9.59985C4.35985 18.5 0.0998535 22.76 0.0998535 28C0.0998535 28.83 0.769854 29.5 1.59985 29.5H22.3999C23.2299 29.5 23.8999 28.83 23.8999 28C23.8999 22.76 19.6399 18.5 14.3999 18.5ZM3.26985 26.5C3.94985 23.64 6.52985 21.5 9.59985 21.5H14.3999C17.4699 21.5 20.0499 23.64 20.7299 26.5H3.26985Z" fill="#F4F3F8"/>
</svg>
