<svg width="481" height="426" viewBox="0 0 481 426" fill="none" xmlns="http://www.w3.org/2000/svg">
<path fill-rule="evenodd" clip-rule="evenodd" d="M138.156 112.046V113.754C138.156 114.232 138.346 114.691 138.684 115.029C139.022 115.367 139.481 115.557 139.959 115.557C140.438 115.557 140.897 115.367 141.235 115.029C141.573 114.691 141.763 114.232 141.763 113.754V111.95C141.738 111.476 141.533 111.029 141.188 110.702C140.843 110.375 140.386 110.194 139.911 110.194C139.673 110.197 139.439 110.248 139.221 110.343C139.003 110.439 138.806 110.577 138.642 110.749C138.479 110.922 138.351 111.126 138.268 111.348C138.184 111.571 138.146 111.808 138.156 112.046ZM137.458 107.02C140.104 106.394 142.268 104.615 138.42 104.855C137.467 104.988 136.526 105.197 135.606 105.48C131.999 106.972 135.125 107.573 137.458 107.02ZM358.117 123.758C357.009 126.084 355.155 127.972 352.85 129.122C352.761 129.153 352.685 129.215 352.636 129.297C352.588 129.378 352.569 129.474 352.583 129.568C352.597 129.662 352.644 129.748 352.714 129.811C352.785 129.874 352.875 129.911 352.97 129.915C353.749 130.052 354.549 129.995 355.3 129.75C356.051 129.504 356.73 129.077 357.277 128.506C357.824 127.936 358.222 127.239 358.435 126.478C358.649 125.717 358.672 124.915 358.502 124.143C358.502 124.041 358.461 123.943 358.389 123.871C358.317 123.799 358.219 123.758 358.117 123.758ZM348.545 104.687C348.083 104.568 347.593 104.635 347.179 104.874C346.766 105.112 346.462 105.502 346.332 105.961C346.115 106.744 346.074 107.566 346.212 108.366C346.212 108.845 346.402 109.304 346.741 109.642C347.079 109.98 347.538 110.17 348.016 110.17C348.494 110.17 348.953 109.98 349.291 109.642C349.63 109.304 349.82 108.845 349.82 108.366C349.82 106.635 350.205 105.144 348.545 104.687ZM265.837 340.978C263.889 339.992 226.636 342.421 225.698 346.606C225.505 347.52 226.107 351.031 227.165 351.608C229.257 352.714 265.092 350.694 267.064 346.798C267.624 345.85 267.809 344.727 267.582 343.65C267.355 342.572 266.733 341.619 265.837 340.978ZM227.622 350.598C226.88 349.433 226.48 348.083 226.467 346.702C226.948 344.537 246.79 343.359 248.978 343.215C248.926 345.158 249.426 347.076 250.421 348.746C247.679 349.179 228.92 351.295 227.622 350.67V350.598ZM265.308 345.788C263.408 347.135 253.764 348.361 251.455 348.65C251.657 346.746 251.253 344.827 250.301 343.167C253.163 342.974 262.326 342.469 265.043 342.71C265.765 343.239 265.789 344.874 265.308 345.836V345.788ZM202.634 346.678C202.569 346.637 202.494 346.616 202.417 346.616C202.341 346.616 202.266 346.637 202.201 346.678C202.201 346.437 156.265 372.315 154.87 375.057C154.808 375.188 154.776 375.332 154.776 375.478C154.776 375.623 154.808 375.767 154.87 375.899C156.337 380.107 204.269 423.445 206.265 424.432C206.842 424.72 207.564 424.215 209.825 423.013C214.635 420.439 255.688 398.506 259.921 394.97C261.099 393.768 261.821 382.945 261.171 381.719C260.522 380.492 202.634 346.918 202.634 346.678ZM206.794 422.435C201.672 418.371 161.099 381.815 156.602 375.61C160.787 371.666 201.263 348.217 202.489 347.496C208.694 351.271 253.355 378.448 259.079 382.296C256.054 383.17 253.176 384.492 250.541 386.216C249.17 387.539 252.586 389.992 257.323 394.585C250.084 399.251 214.178 418.491 206.794 422.435ZM258.694 393.215C258.454 392.974 252.658 387.322 252.393 387.106C254.73 385.647 257.138 384.307 259.608 383.09C259.616 386.488 259.294 389.879 258.646 393.215H258.694Z" fill="#2C3E50"/>
<path fill-rule="evenodd" clip-rule="evenodd" d="M238.709 388.789C237.025 389.511 216.487 396.317 210.691 398.674C208.987 399.523 207.131 400.022 205.231 400.141C204.895 400.141 206.843 396.389 221.585 384.893C223.124 383.691 226.083 381.406 226.395 379.53C227.814 373.325 211.003 382.608 195.972 388.477C194.418 389.312 192.721 389.85 190.97 390.064C190.801 389.078 194.192 385.975 194.409 385.735C203.379 375.826 214.755 371.738 213.985 368.082C212.807 362.358 191.932 373.494 187.53 375.297C183.827 376.861 177.91 378.736 178.271 378.736C177.478 379.049 178.271 379.602 178.415 379.53C178.56 379.458 186.184 377.125 188.035 376.307C190.801 375.249 209.296 366.327 212.374 368.419C213.601 369.285 200.517 376.331 193.134 384.484C191.835 385.879 188.324 388.717 189.406 391.026C189.605 391.383 189.906 391.672 190.27 391.856C190.634 392.041 191.046 392.112 191.451 392.06C195.034 392.06 219.469 379.819 224.495 379.434C223.342 380.956 221.963 382.294 220.407 383.402C216.823 386.24 206.434 394.706 204.029 398.602C202.778 400.622 203.812 401.824 205.448 401.848C207.612 401.848 210.258 400.381 216.775 397.928C238.877 389.415 239.575 389.799 239.214 389.006C239.195 388.958 239.167 388.915 239.132 388.878C239.096 388.841 239.054 388.812 239.007 388.792C238.96 388.771 238.909 388.761 238.858 388.76C238.807 388.76 238.756 388.77 238.709 388.789Z" fill="#2C3E50"/>
<path fill-rule="evenodd" clip-rule="evenodd" d="M468.94 297.087C468.627 271.93 466.366 220.583 461.388 195.692C458.766 182.488 453.091 164.427 442.533 155.697C438.059 152.017 431.47 148.482 419.517 141.868C419.661 141.555 400.638 133.859 399.748 136.408C399.009 132.022 397.972 127.691 396.645 123.446C398.425 122.868 397.631 117.674 398.377 114.739C399.122 111.805 401.936 109.713 403.379 107.308C406.626 101.945 407.179 92.5894 406.578 86.3604C406.001 80.5644 397.535 67.6255 391.956 65.5091C386.376 63.3927 380.652 63.4648 374.76 62.2864C369.95 61.3003 366.39 58.6308 361.003 57.9574C355.616 57.284 352.393 60.3624 347.776 60.3624C343.158 60.3624 337.963 56.7789 333.129 56.4903C330.503 56.4496 327.951 57.3632 325.947 59.0617C323.944 60.7601 322.624 63.128 322.235 65.7255C321.651 69.5972 322.11 73.5544 323.564 77.1898C325.018 80.8251 327.415 84.0072 330.508 86.4085C334.273 88.7906 338.504 90.3404 342.918 90.954C342.629 103.244 343.928 99.9487 342.485 101.031C341.042 102.113 341.499 109.689 342.004 111.781C342.22 112.623 342.437 112.936 343.471 113.272C342.894 115.677 338.829 120.872 342.485 122.147C342.966 122.315 344.89 122.652 345.082 122.724C345.575 125.005 346.3 127.229 347.247 129.362C348.179 131.506 349.542 133.436 351.251 135.033C352.959 136.63 354.977 137.859 357.179 138.645C360.642 139.992 363.384 140.353 365.404 141.05C365.683 142.045 365.828 143.072 365.837 144.104C357.249 146.362 349.157 150.204 341.98 155.432C328.969 165.99 310.474 209.785 305.64 214.595C303.764 216.447 259.584 225.009 253.067 229.434C251.792 230.3 251.744 231.045 251.912 232.584C250.325 232.873 243.639 234.124 242.894 235.543C242.673 236.573 242.732 237.644 243.062 238.645C237.111 237.534 231.106 236.731 225.073 236.24C223.968 236.266 222.882 236.523 221.883 236.995C220.885 237.468 219.997 238.144 219.276 238.982C217.256 241.387 218.892 240.978 216.751 240.641C212.206 239.992 195.924 245.451 193.88 246.413C193.88 245.547 193.88 244.946 192.966 244.465C190.282 243.687 187.477 243.41 184.693 243.647C183.009 244.778 189.503 244.393 192.196 245.788C192.196 247.64 192.437 266.639 192.196 270.367C192.196 271.04 192.196 270.944 191.691 271.016C189.286 271.353 185.823 271.016 184.765 271.786C185.15 263.417 184.765 242.926 183.61 241.723C182.913 241.002 170.07 239.463 156.097 237.779C156.147 227.67 155.585 217.566 154.414 207.524C151.84 185.206 146.453 158.895 129.618 145.547C130.594 145.946 131.667 146.038 132.696 145.812C134.071 145.267 135.55 145.036 137.025 145.139C139.43 145.788 139.743 147.544 145.756 143.503C146.14 143.239 147.151 143.311 147.944 142.517C150.662 139.8 149.291 136.12 149.291 133.378C149.689 131.514 149.819 129.603 149.676 127.702C149.602 127.419 149.464 127.157 149.272 126.935C149.08 126.714 148.84 126.541 148.569 126.428C148.569 125.634 149.411 124.215 148.209 122.676C149.94 121.762 151.816 120.704 150.854 118.828C149.017 115.889 147.501 112.76 146.333 109.497C145.587 106.707 146.597 103.147 146.549 100.141C146.549 98.0728 146.766 95.5956 146.549 93.3349C148.404 92.0397 149.822 90.2113 150.614 88.092C150.789 87.2354 150.752 86.3488 150.504 85.5101C150.257 84.6714 149.807 83.9063 149.195 83.282C148.401 82.777 148.233 83.282 148.257 81.7909C148.344 81.2677 148.32 80.732 148.188 80.2184C148.055 79.7047 147.817 79.2246 147.487 78.8087C146.477 77.8227 144.168 76.7404 143.447 75.7303C142.22 73.9266 141.499 72.1228 139.19 71.4013C137.555 70.8722 136.015 71.9064 134.909 71.5456C133.394 71.0646 131.831 69.4292 130.099 71.1608C129.712 71.3704 129.288 71.5017 128.851 71.5471C128.413 71.5925 127.971 71.5511 127.55 71.4254C126.107 70.1988 125.746 68.0824 123.293 67.6255C121.898 67.385 119.156 68.0584 118.098 67.6255C116.365 66.3494 114.452 65.3364 112.422 64.6192C110.153 64.4031 107.864 64.5987 105.664 65.1964C104.125 65.5091 102.153 65.3407 100.542 65.5812C97.1987 66.1103 96.2367 68.9963 94.0241 70.3912C91.8115 71.7861 88.0837 71.8102 85.9673 74.9367C84.1876 77.5822 84.5724 80.4441 83.875 83.0896C83.5864 84.22 82.0472 85.4946 81.47 86.649C80.1232 89.3186 81.1573 92.0122 81.1333 94.321C81.1092 96.6298 79.4979 98.7462 79.9548 101.536C80.3261 102.929 80.9364 104.248 81.7586 105.432C81.7685 105.822 81.7199 106.211 81.6143 106.586C80.8806 108.479 80.7298 110.548 81.1814 112.527C81.575 114.424 82.4913 116.173 83.8269 117.577C85.5104 119.044 86.3762 118.66 87.6027 120.752C88.1186 121.858 88.8942 122.824 89.8634 123.566C91.6431 124.768 93.8317 123.734 94.8899 124.263C95.5482 124.611 96.2662 124.831 97.0063 124.913C96.4142 125.212 95.9028 125.649 95.5152 126.187C82.432 127.847 65.1641 137.395 54.6302 150.454C50.4695 155.817 43.471 163.561 40.8495 169.766C26.7562 201.608 33.6345 251.536 27.9587 266.952L13.9135 303.58C13.2401 305.336 11.5085 314.066 12.1338 317.072C13.1439 321.545 17.8337 315.942 20.6956 312.767C18.9159 319.092 18.94 320.752 18.002 345.644C17.7134 353.436 17.4489 361.925 17.3286 369.068C17.3217 369.119 17.3259 369.172 17.341 369.221C17.356 369.271 17.3814 369.316 17.4157 369.355C17.4499 369.394 17.492 369.425 17.5392 369.446C17.5865 369.467 17.6377 369.477 17.6894 369.477C18.3628 369.477 17.9299 370.247 18.9159 350.381C19.6134 336.408 20.407 323.373 20.4792 322.315C20.8352 318.204 21.7411 314.16 23.1728 310.29C29.8892 305.272 37.4471 301.493 45.4912 299.131C54.4437 296.736 63.8976 296.978 72.7158 299.828C75.1208 300.622 81.5902 302.233 83.899 301.151C88.709 298.746 101.095 290.785 103.139 285.951C104.149 283.546 104.967 281.598 105.76 279.795C109.44 280.131 113.962 281.069 117.978 281.117C122.475 281.117 125.361 280.396 130.34 275.995C148.642 276.404 168.82 275.85 178.44 275.49C184.861 277.895 204.582 284.941 209.368 289.679C211.244 291.507 212.35 296.606 213.023 302.281C213.91 309.066 214.144 315.919 213.721 322.748C200.542 325.273 183.755 329.265 170.768 332.488C170.04 332.286 169.28 332.228 168.531 332.32C165.092 332.681 166.703 334.075 165.573 330.588C165.627 330.601 165.683 330.6 165.737 330.586C165.791 330.571 165.84 330.544 165.881 330.506C165.921 330.468 165.952 330.42 165.969 330.367C165.987 330.315 165.991 330.258 165.982 330.203C165.946 325.581 165.406 320.976 164.37 316.471C164.202 315.797 163.024 315.461 162.302 315.244C154.51 312.984 124.423 309.953 117.81 311.661C113.505 312.791 83.7066 328.183 82.3598 331.454C81.013 334.725 77.3574 354.398 76.684 358.029C61.0996 362.575 48.8101 366.327 42.7976 368.371C42.7477 368.387 42.7017 368.413 42.6623 368.447C42.623 368.482 42.591 368.524 42.5685 368.571C42.546 368.619 42.5334 368.67 42.5314 368.722C42.5294 368.775 42.5382 368.827 42.5571 368.876C42.8457 369.766 50.7341 365.677 131.542 344.441C132.354 346.514 133.395 348.491 134.645 350.333C132.24 350.91 129.522 351.969 128.728 354.181C128.587 354.648 128.564 355.143 128.66 355.622C128.757 356.1 128.97 356.547 129.281 356.923C131.254 359.132 133.885 360.65 136.785 361.252C141.87 362.527 147.154 362.804 152.345 362.07C157.33 361.635 162.241 360.585 166.968 358.943C172.114 356.779 171.778 353.556 169.806 352.089C167.773 350.894 165.54 350.079 163.216 349.684C165.404 345.716 163.36 347.471 166.631 346.678C168.482 346.236 170.173 345.286 171.513 343.936C173.63 341.771 175.049 336.432 173.028 333.859C183.177 331.454 223.99 321.353 233.971 322.099C252.081 323.421 383.754 377.558 414.923 387.996C414.972 388.011 415.024 388.017 415.075 388.013C415.126 388.009 415.176 387.995 415.222 387.971C415.268 387.948 415.309 387.916 415.342 387.877C415.375 387.837 415.4 387.792 415.416 387.743C415.432 387.694 415.438 387.642 415.434 387.591C415.43 387.54 415.416 387.49 415.392 387.444C415.369 387.398 415.336 387.358 415.297 387.324C415.258 387.291 415.213 387.266 415.164 387.25C407.011 384.412 388.829 377.173 367.064 368.467C368.122 365.918 370.912 357.693 373.076 354.855C373.966 353.7 373.918 353.604 381.854 354.061C402.658 355.264 420.984 354.71 440.945 348.337C453.139 344.417 459.127 335.374 462.59 323.277C463.288 323.493 465.188 324.119 465.861 324.263C466.053 324.31 466.254 324.31 466.446 324.264C466.638 324.218 466.817 324.127 466.967 323.999C469.348 321.569 468.94 301.824 468.94 297.087ZM139.984 131.719C139.333 131.956 138.63 132.014 137.949 131.887C137.268 131.76 136.633 131.453 136.112 130.997C135.592 130.582 135.186 130.042 134.93 129.429C134.673 128.815 134.575 128.147 134.645 127.486C134.613 127.387 134.621 127.28 134.669 127.187C134.716 127.095 134.798 127.025 134.897 126.993C134.996 126.961 135.103 126.97 135.196 127.017C135.288 127.064 135.358 127.147 135.39 127.245C136.578 128.953 138.255 130.261 140.2 130.997C140.262 131.048 140.307 131.117 140.331 131.194C140.354 131.271 140.354 131.353 140.331 131.43C140.308 131.507 140.263 131.575 140.201 131.627C140.139 131.678 140.064 131.71 139.984 131.719ZM117.401 110.651C117.483 109.944 117.767 109.276 118.218 108.727C118.747 108.198 120.359 108.535 121.489 107.765C122.335 107.097 122.976 106.205 123.341 105.192C124.688 102.522 126.828 104.59 129.81 100.189C130.572 98.9515 131.162 97.6167 131.566 96.2209C133.25 95.4273 135.438 96.5817 137.555 93.0944C138.252 91.916 138.709 90.6894 139.96 90.3527C140.898 91.3628 141.835 95.1627 145.635 93.6957C145.635 94.9944 145.347 101.56 145.275 102.089C144.963 103.674 144.794 105.284 144.77 106.899C144.77 111.709 146.982 114.355 149.435 119.381C149.82 120.175 147.8 120.944 146.79 121.497C145.365 120.973 143.89 120.594 142.389 120.367C137.723 119.237 133.995 121.666 129.979 122.772C129.298 122.776 128.619 122.696 127.959 122.532C126.443 122.387 124.856 123.927 122.716 124.215C122.158 124.325 121.58 124.264 121.056 124.041C120.533 123.818 120.089 123.443 119.782 122.965C119.522 122.084 119.337 121.183 119.228 120.271C119.012 119.405 118.747 118.539 118.555 117.698C118.17 115.966 119.301 115.293 117.978 112.888C117.064 111.252 117.088 111.974 117.401 110.651ZM118.315 159.713C119.934 156.64 121.255 153.418 122.259 150.093C123.606 158.462 124.327 162.695 124.664 164.812C122.908 163.344 122.74 162.791 118.315 159.617V159.713ZM125.53 169.501C126.708 176.716 126.443 175.081 126.66 176.572C126.085 175.49 125.383 174.48 124.568 173.566C124.837 171.977 124.958 170.367 124.928 168.756L125.53 169.501ZM116.823 173.83C115.387 172.337 114.076 170.728 112.903 169.02C114.093 166.239 115.433 163.526 116.92 160.891C121.97 164.763 121.585 164.715 122.836 166.279C123.02 168.327 123.02 170.387 122.836 172.435L116.823 173.83ZM117.136 175.394C119.998 181.767 121.152 192.229 121.754 199.203C118.751 190.418 114.715 182.022 109.729 174.191C110.704 172.859 111.572 171.451 112.326 169.982C113.317 171.827 114.502 173.561 115.861 175.153C116.035 175.262 116.231 175.332 116.435 175.357C116.638 175.382 116.845 175.361 117.04 175.297L117.136 175.394ZM102.85 123.927C103.046 123.987 103.248 124.028 103.452 124.047C104.012 124.022 104.549 123.816 104.982 123.46C105.415 123.105 105.722 122.619 105.857 122.075C106.241 121.834 106.53 121.57 106.506 121.113C106.482 120.656 101.311 113.585 107.901 109.953C108.482 109.89 109.066 110.041 109.544 110.378C110.022 110.714 110.361 111.213 110.498 111.781C110.81 113.064 111.467 114.237 112.398 115.172C112.471 116.71 112.672 118.238 113 119.742C113.192 120.632 112.519 121.786 112.374 123.013C112.038 125.418 114.37 128.063 115.212 130.228C116.342 133.138 115.573 136.264 118.266 138.838C120.96 141.411 120.455 139.294 121.393 145.066C120.271 149.603 118.725 154.023 116.775 158.27C114.058 154.422 100.301 131.959 97.5354 126.837C98.5695 126.211 101.792 124.383 102.754 123.83L102.85 123.927ZM95.6354 127.125C97.3911 131.214 114.875 158.919 114.875 159.16C114.034 161.829 109.2 172.892 106.915 174.095C101.888 170.511 88.1078 132.825 87.1217 129.41C89.835 128.248 92.6894 127.447 95.6114 127.029L95.6354 127.125ZM120.455 233.306C117.81 232.464 109.272 203.484 101.648 187.443C97.0784 177.823 88.1078 161.926 78.3194 157.693C67.7374 153.147 48.0645 164.042 45.9722 178.183C44.6946 187.51 45.4494 197.002 48.1848 206.009C59.5364 240.329 74.9043 267.697 107.733 275.538C108.502 273.999 105.785 275.273 127.381 275.85C126.323 276.674 125.197 277.406 124.014 278.039C119.974 280.228 112.302 278.472 106.626 277.847L107.348 276.283C73.5335 268.732 57.7086 240.208 46.381 206.538C43.5202 197.26 42.6998 187.472 43.976 177.847C46.1405 162.551 66.5109 151.584 77.7903 155.384C80.6663 156.455 83.2992 158.091 85.5344 160.194C84.4619 150.557 84.1964 140.847 84.7408 131.166C85.1827 130.773 85.6574 130.419 86.1597 130.107C88.228 137.322 100.013 171.81 106.001 175.634C106.381 175.859 106.825 175.947 107.262 175.886C107.699 175.825 108.102 175.617 108.406 175.297C113.817 184.605 118.868 194.128 120.888 204.157C122.031 209.692 122.323 215.369 121.754 220.992C118.339 206.851 108.887 186.408 98.1366 176.62C109.127 195.596 117.136 225.947 120.72 231.935C122.153 232.33 123.617 232.604 125.097 232.753C124.471 218.323 123.99 188.236 117.882 175.177C118.627 175.177 123.894 174.047 123.894 174.047C124.844 175.187 125.652 176.439 126.299 177.774C127.285 179.674 126.949 178.231 128.44 188.332C135.655 234.965 135.246 234.725 136.184 235.23C131.47 234.629 123.173 234.124 120.455 233.306ZM136.424 223.686C127.045 170.439 126.949 168.948 123.004 146.726C123.317 145.668 123.557 144.802 123.726 144.177C125.217 146.077 133.346 156.49 134.236 158.775C132.913 159.953 128.151 161.974 129.594 163.585C130.243 164.331 135.607 168.972 137.29 170.656C138.204 174.528 136.761 216.952 136.424 223.686ZM77.646 357.717C78.3194 354.662 82.7206 334.797 83.9471 332.007C84.837 329.939 113.841 314.547 118.411 313.392C125 311.661 160.883 315.22 163.384 316.832C164.513 321.027 165.175 325.334 165.356 329.674C161.316 324.864 130.051 326.139 129.714 332.921C129.708 333.144 129.754 333.365 129.851 333.565C129.947 333.766 130.09 333.941 130.267 334.075C130.252 336.982 130.583 339.881 131.253 342.709C112.783 347.688 94.3127 352.883 77.646 357.717ZM169.349 353.965C170.575 357.933 156.169 359.641 152.009 360.122C147.068 360.825 142.039 360.572 137.194 359.376C135.077 358.799 131.157 357.26 130.412 355.336C130.051 354.422 131.229 353.556 132.095 353.099C133.192 352.526 134.355 352.09 135.558 351.8C136.869 353.606 138.626 355.04 140.657 355.961C143.062 357.019 153.331 356.274 156.891 355.504C158.454 355.167 160.113 354.71 162.47 350.935C163.913 351.151 168.94 352.642 169.349 353.965ZM157.853 353.123C156.049 354.205 143.303 355.071 141.354 354.277C134.909 351.704 131.398 341.651 131.133 334.556C136.373 335.709 141.75 336.106 147.102 335.735C151.119 335.206 160.619 333.57 164.106 331.815C166.198 339.703 161.773 350.838 157.853 353.123ZM171.297 340.713C170.646 342.001 169.731 343.138 168.612 344.049C167.494 344.961 166.196 345.627 164.803 346.004C166.061 342.63 166.658 339.046 166.559 335.446C166.749 335.049 167.024 334.698 167.366 334.42C167.707 334.141 168.106 333.942 168.534 333.836C168.962 333.73 169.408 333.721 169.84 333.808C170.272 333.895 170.679 334.077 171.032 334.34C172.836 335.518 172.042 338.669 171.297 340.713ZM419.012 142.565C435.27 151.536 442.485 155.288 447.679 163.152C444.411 160.342 440.253 158.783 435.943 158.751C420.527 158.222 412.951 181.045 409.007 195.812C402.465 220.439 406.482 251.608 406.121 256.177C401.96 260.05 380.652 271.113 371.128 276.283C372.451 270.704 377.165 249.179 380.243 240.689C384.38 229.29 396.284 202.738 397.078 196.966C397.295 195.259 396.958 195.042 391.907 191.772C393.855 191.772 399.122 191.242 400.758 190.93C401.455 190.93 401.816 190.617 402.081 189.15C402.97 184.052 404.702 142.036 404.846 137.563C404.678 137.467 416.943 141.387 419.084 142.565H419.012ZM400.469 136.817C401.564 136.738 402.665 136.861 403.716 137.178C402.513 154.614 401.311 185.278 400.181 189.198C398.906 189.439 394.385 189.751 392.629 189.872C388.877 190.088 388.781 189.872 388.396 190.401C388.011 190.93 388.54 191.651 389.238 192.132C390.464 192.998 394.553 195.571 395.13 196.245C394.575 199.108 393.721 201.905 392.581 204.59C378.993 240.665 379.81 229.578 370.671 269.14C371.282 250.189 373.033 231.292 375.914 212.551C377.838 202.233 380.171 192.541 387.939 170.463C390.993 161.926 397.319 145.572 397.559 145.668C398.766 142.793 399.762 139.836 400.541 136.817H400.469ZM358.694 284.412C359.151 286.192 359.151 285.951 359.007 285.975L358.261 285.831C358.261 285.591 356.963 261.444 357.588 251.464C358.718 233.787 360.161 214.619 361.508 196.149C362.158 187.202 364.611 167.986 364.538 168.708L366.943 166.928C367.941 168.919 369.074 170.839 370.335 172.676C370.816 173.325 371.465 174.143 372.234 174.215C371.705 178.568 363.697 232.272 361.34 266.591C360.041 285.278 361.34 281.31 359.44 283.017C359.214 283.17 359.033 283.379 358.915 283.624C358.797 283.869 358.745 284.141 358.766 284.412H358.694ZM372.98 174.239C374.808 174.239 376.78 170.391 379.185 168.756C380.123 169.742 382.961 174.456 384.837 175.081C376.876 196.918 368.362 227.366 368.387 277.63C366.342 278.736 363.576 280.324 361.532 281.502C362.735 261.036 371.441 193.864 373.052 174.239H372.98ZM398.233 141.916C397.463 144.321 386.039 171.906 385.246 173.181C384.005 171.965 382.901 170.618 381.951 169.165C379.93 166.447 379.233 165.557 375.794 169.429C380.892 159.809 390.849 150.045 395.034 145.187C399.026 140.617 398.497 141.002 398.233 141.916ZM344.361 91.4109C346.155 91.9635 348.074 91.9635 349.868 91.4109C351.241 90.8008 352.756 90.5844 354.245 90.7856C356.347 91.7545 358.508 92.5898 360.715 93.2868C363.444 93.2628 366.169 93.0458 368.867 92.6375C370.104 93.2154 371.152 94.1323 371.888 95.2817C372.625 96.4311 373.02 97.7659 373.028 99.131C368.546 99.7818 364.219 101.24 360.258 103.436C360.014 102.646 359.532 101.952 358.877 101.448C358.223 100.944 357.428 100.655 356.602 100.622C352.658 100.148 348.675 100.099 344.721 100.478C344.371 97.4047 344.25 94.3096 344.361 91.2185V91.4109ZM343.423 111.926C342.821 110.867 341.643 102.666 342.845 101.776C343.038 102.017 342.196 101.271 346.766 101.32C349.986 101.421 353.198 101.71 356.386 102.185C358.55 102.57 358.911 103.556 358.791 105.649C358.791 109.521 358.911 109.136 358.791 110.338C358.791 110.675 358.646 111.565 358.382 111.757C353.435 112.652 348.367 112.644 343.423 111.733V111.926ZM365.525 139.03C358.935 137.154 352.898 136.914 348.834 128.544C346.212 123.157 347.655 121.594 345.274 120.896C344.392 120.791 343.521 120.598 342.677 120.319C342.677 118.708 344.697 115.341 345.082 113.633C349.076 114.111 353.113 114.111 357.107 113.633C359.512 113.272 360.787 112.864 360.402 107.981V104.254C364.178 103.099 372.186 101.199 373.148 100.935C373.154 102.243 373.332 103.545 373.677 104.807C374.053 105.6 374.702 106.232 375.505 106.586C375.634 106.644 375.774 106.67 375.914 106.664C376.055 106.659 376.192 106.621 376.315 106.553C376.438 106.486 376.545 106.391 376.625 106.275C376.706 106.16 376.759 106.028 376.78 105.889C377.333 103.652 377.766 101.656 377.934 100.694C377.934 101.223 378.151 99.0107 379.738 98.1449C382.143 96.8943 385.871 99.6841 386.135 103.628C386.28 105.552 384.356 109.04 382.913 113.056C382.047 115.461 387.29 116.495 389.118 117.385C389.791 118.948 389.382 120.704 390.296 121.642C391.668 122.487 393.172 123.097 394.745 123.446C396.404 128.761 397.611 134.208 398.353 139.727C392.244 146.149 390.873 147.688 389.238 149.347C382.849 155.418 377.431 162.434 373.172 170.151C371.465 160.122 368.218 151.271 367.857 148.361C367.569 146.101 368.05 142.108 366.992 139.968C366.831 139.713 366.617 139.497 366.363 139.335C366.109 139.173 365.823 139.069 365.525 139.03ZM366.222 147.183C367.376 151.464 370.455 165.365 371.345 170.944C369.878 168.732 368.074 165.076 368.074 165.076C368.011 164.946 367.92 164.831 367.807 164.741C367.694 164.65 367.562 164.586 367.421 164.554C367.28 164.522 367.134 164.522 366.993 164.554C366.852 164.586 366.72 164.649 366.607 164.739L364.851 166.086C365.525 159.833 366.198 153.46 366.294 147.183H366.222ZM365.525 145.042C365.308 162.743 361.773 178.52 360.33 196.149C355.52 255.408 355.52 252.498 356.001 273.469C353.403 254.518 349.772 217.649 347.776 197.664C349.195 196.582 356.049 191.363 356.818 189.775C357.179 189.006 356.818 188.212 355.087 188.212C352.077 188.439 349.054 188.439 346.044 188.212C347.872 180.757 358.334 153.556 361.123 146.341C362.542 145.932 363.721 145.523 365.525 145.042ZM253.716 231.238C257.444 227.317 304.221 218.178 306.77 215.701C310.354 212.094 320.214 189.703 330.267 172.724C338.805 158.294 343.447 152.955 360.065 146.822C356.073 156.707 348.281 176.043 344.769 187.298C344.553 187.996 344.24 188.765 344.769 189.222C346.092 190.521 351.624 189.751 354.798 189.799C352.562 192.036 346.405 196.582 346.405 196.582C346.286 196.669 346.193 196.786 346.134 196.921C346.074 197.056 346.052 197.205 346.068 197.351C347.078 208.51 353.283 275.105 355.977 284.773L351.648 283.667C348.85 282.293 345.811 281.476 342.701 281.262C348.184 253.989 346.212 246.365 346.886 231.502C346.886 229.963 340.392 199.035 340.344 198.794C340.344 198.692 340.304 198.594 340.231 198.522C340.159 198.45 340.061 198.409 339.959 198.409C339.857 198.409 339.759 198.45 339.687 198.522C339.615 198.594 339.575 198.692 339.575 198.794C339.983 209.328 342.966 219.357 345.01 230.853C337.314 238.068 329.257 248.049 316.15 251.295C308.045 253.34 270.094 261.613 265.044 261.974C260.907 257.356 253.067 234.316 253.716 231.238ZM249.147 234.436C249.147 234.436 252.033 233.739 251.984 233.282C254.23 241.733 257.059 250.018 260.45 258.077C258.264 258.754 256.028 259.26 253.764 259.593C252.393 259.593 253.355 260.795 250.012 252.859C247.952 247.925 246.186 242.873 244.721 237.731C244.313 236.072 243.615 236.24 249.147 234.436ZM220.984 239.511C222.884 237.419 224.255 237.106 243.254 239.511C244.944 245.245 246.992 250.868 249.387 256.346C245.477 259.394 240.996 261.626 236.208 262.911C236.063 261.877 235.727 262.19 236.544 262.262C237.235 262.282 237.921 262.146 238.552 261.865C239.184 261.584 239.744 261.165 240.192 260.639C240.639 260.113 240.963 259.493 241.139 258.825C241.316 258.156 241.34 257.457 241.21 256.779C241.018 254.374 234.139 249.371 232.191 248C233.348 248.239 234.548 248.147 235.655 247.736C235.753 247.704 235.836 247.634 235.883 247.542C235.93 247.449 235.939 247.342 235.907 247.243C235.875 247.144 235.805 247.062 235.713 247.015C235.62 246.967 235.513 246.959 235.414 246.99C231.374 248.049 227.285 243.239 226.756 243.094C224.904 242.637 226.059 246.942 221.946 249.516C221.345 249.9 219.036 249.035 218.892 247.856C218.589 246.397 218.62 244.889 218.982 243.444C219.345 241.999 220.029 240.654 220.984 239.511ZM194.096 247.087C197.175 245.98 212.855 241.122 217.377 242.277C216.868 244.198 216.753 246.202 217.04 248.169C217.193 248.794 217.478 249.378 217.878 249.882C218.277 250.387 218.78 250.799 219.353 251.091C219.926 251.383 220.555 251.548 221.198 251.575C221.84 251.602 222.481 251.49 223.076 251.247C224.752 250.129 226.012 248.489 226.66 246.582C228.8 247.88 239.43 254.927 239.286 257.428C239.286 259.112 238.396 260.531 236.713 260.386C235.292 259.877 233.948 259.173 232.72 258.294C231.485 257.307 230.183 256.407 228.824 255.6C228.608 255.488 228.358 255.46 228.123 255.521C227.887 255.582 227.682 255.728 227.548 255.931C227.413 256.134 227.359 256.38 227.395 256.621C227.431 256.862 227.554 257.081 227.742 257.236C227.742 257.236 229.546 258.583 231.542 259.881C234.548 262.286 235.582 264.499 231.855 265.629C231.271 265.802 230.658 265.853 230.054 265.779C229.45 265.704 228.867 265.506 228.343 265.196C227.731 263.986 226.917 262.888 225.938 261.95C225.501 260.826 224.718 259.871 223.702 259.222C222.686 258.573 221.49 258.265 220.287 258.342C219.036 258.486 218.94 259.112 219.06 258.534C219.637 255.672 215.982 253.941 213.432 254.422C209.32 255.24 207.035 260.675 205.688 264.643C204.871 266.375 208.093 264.451 194.024 269.453C194.42 262.468 194.42 255.466 194.024 248.481C193.904 246.822 193.856 247.207 194.096 247.087ZM206.362 264.908C207.684 262.07 210.594 256.755 213.697 256.274C214.899 256.057 217.328 256.875 217.064 258.101C216.543 261.358 215.041 264.379 212.759 266.76C213.048 267.241 205.52 267.385 206.362 264.908ZM219.974 260.314C220.551 259.737 223.918 260.915 224.014 262.719C224.183 265.725 221.321 269.309 218.844 270.968C218.05 271.521 214.923 268.972 214.202 267.938C215.92 265.247 217.85 262.698 219.974 260.314ZM224.038 268.323C224.207 268.082 226.612 262.743 227.021 267.168C227.189 268.9 224.616 269.814 222.932 269.573C223.323 269.177 223.693 268.759 224.038 268.323ZM277.526 299.588C267.401 307.452 265.958 317.794 267.617 330.131C251.359 324.359 238.949 320.511 234.115 320.102C227.573 320.237 221.061 321.043 214.683 322.507C215.332 316.038 215.044 293.335 210.45 288.669C205.857 284.003 189.19 277.63 182.913 275.225H184.332C184.885 274.937 183.971 272.411 186.063 272.267C188.589 272.123 192.124 273.085 193.278 272.075C193.623 271.551 193.822 270.945 193.856 270.319C196.501 269.477 202.73 267.577 205.881 266.76C206.94 267.6 208.18 268.183 209.503 268.463C210.826 268.743 212.196 268.711 213.504 268.371C214.226 269.982 217.593 273.518 219.685 272.363C220.266 272.028 220.82 271.65 221.345 271.233C222.866 271.654 224.481 271.587 225.962 271.04C226.746 270.827 227.445 270.378 227.966 269.754C228.486 269.131 228.803 268.362 228.872 267.553C230.132 267.915 231.474 267.857 232.698 267.388C233.921 266.92 234.959 266.066 235.655 264.956C240.927 263.771 245.862 261.402 250.085 258.029C250.541 259.015 250.974 259.857 251.335 260.434C251.455 260.637 251.623 260.807 251.824 260.929C252.026 261.051 252.254 261.12 252.49 261.132C254.895 261.372 260.57 258.727 260.811 258.727C261.635 260.445 262.66 262.06 263.865 263.537C264.298 263.97 265.02 263.849 265.693 263.777C272.667 262.936 307.299 255.48 316.559 253.171C328.584 250.165 336.424 241.723 344.673 233.691C344.216 247.495 346.02 254.229 340.561 281.334C329.209 282.745 317.961 284.898 306.891 287.779C297.198 290.545 285.654 293.287 277.526 299.612V299.588ZM312.615 347.038L311.773 346.702C311.58 334.484 314.611 323.229 323.557 314.884C324.349 315.085 325.152 315.238 325.962 315.341C316.751 323.229 313.12 334.725 312.615 347.038ZM350.589 306.947C343.374 311.18 345.491 313.465 338.877 314.162C333.579 314.526 328.255 314.113 323.076 312.936C318.892 311.589 321.104 309.977 325.481 309.496C326.227 309.617 332.095 309.665 334.861 309.496C335.087 309.46 335.293 309.345 335.441 309.171C335.59 308.997 335.671 308.775 335.671 308.546C335.671 308.318 335.59 308.096 335.441 307.922C335.293 307.748 335.087 307.632 334.861 307.596C331.742 307.328 328.607 307.28 325.481 307.452C323.49 307.423 321.508 307.19 319.565 306.755C319.371 306.439 319.259 306.081 319.238 305.712C319.217 305.342 319.288 304.973 319.445 304.638C321.97 303.123 333.875 303.7 335.847 303.628C336.079 303.592 336.29 303.473 336.443 303.295C336.595 303.116 336.679 302.889 336.679 302.654C336.679 302.419 336.595 302.192 336.443 302.013C336.29 301.835 336.079 301.717 335.847 301.68C331.901 301.764 327.954 301.555 324.038 301.055C322.355 300.766 318.435 299.924 318.723 298.217C319.252 295.139 325.578 297.784 330.027 297.471C333.166 297.424 336.273 296.839 339.214 295.74C339.434 295.673 339.618 295.521 339.727 295.318C339.835 295.115 339.858 294.878 339.791 294.658C339.724 294.437 339.572 294.253 339.369 294.145C339.167 294.037 338.929 294.013 338.709 294.08C335.699 294.804 332.647 295.334 329.57 295.668C329.375 295.627 329.201 295.517 329.081 295.357C328.962 295.198 328.905 295 328.92 294.802C328.955 294.352 329.069 293.913 329.257 293.503C330.497 291.886 332.163 290.645 334.067 289.92C340.897 287.082 346.092 289.92 353.908 290.425C354.889 294.872 356.134 299.257 357.636 303.556C355.239 304.514 352.916 305.648 350.686 306.947H350.589ZM359.777 304.013C358.935 301.175 355.808 290.882 355.496 288.477C356.737 287.87 358.044 287.41 359.392 287.106C360.498 291.218 362.542 298.361 363.865 302.353C362.575 302.999 361.241 303.553 359.873 304.013H359.777ZM366.583 304.013C365.308 301.127 361.532 287.683 360.666 284.316C364.803 280.925 401.936 262.671 407.468 257.115C409.199 255.384 403.355 222.796 410.209 195.98C413.865 181.55 421.032 158.871 435.823 159.376C445.972 159.713 451.768 167.457 455.063 177.125C461.099 194.922 458.694 219.621 458.694 219.381C458.694 239.559 451.479 269.886 437.049 284.316C426.155 295.235 373.365 305.239 366.679 304.085L366.583 304.013ZM465.741 322.291C462.927 321.545 450.012 316.784 444.553 316.327C416.198 313.922 417.954 308.534 400.421 300.838C410.041 298.433 431.422 292.854 438.516 285.831C453.499 270.968 460.426 240.329 460.354 219.597C460.91 212.337 460.91 205.045 460.354 197.784C465.669 227.943 468.94 313.152 465.741 322.291Z" fill="#2C3E50"/>
<path fill-rule="evenodd" clip-rule="evenodd" d="M93.8796 159.713L85.9912 160.627C88.3961 162.889 90.586 165.368 92.5328 168.034L94.7214 160.819C94.7881 160.69 94.8169 160.545 94.8042 160.4C94.7916 160.255 94.7381 160.116 94.65 160C94.5619 159.885 94.4427 159.796 94.3064 159.745C94.17 159.694 94.022 159.683 93.8796 159.713ZM322.018 379.193C320.034 377.938 317.844 377.042 315.548 376.548C321.008 367.674 320.022 357.308 318.579 356.394C317.221 355.01 315.412 354.157 313.48 353.989C306.265 352.474 288.781 352.354 284.163 356.202C283.153 357.043 282.552 358.414 283.538 359.328C283.068 365.029 284.263 370.743 286.977 375.778C284.572 376.235 281.782 377.149 280.868 379.314C280.711 379.779 280.668 380.276 280.743 380.762C280.819 381.247 281.01 381.708 281.301 382.104C283.147 384.393 285.674 386.036 288.516 386.793C293.536 388.321 298.802 388.868 304.029 388.405C309.022 388.201 313.972 387.394 318.771 386C324.086 384.028 324.038 380.781 322.018 379.193ZM284.38 359.761C289.549 361.173 294.895 361.837 300.253 361.733C306.095 361.333 311.864 360.202 317.424 358.366C317.906 361.675 317.729 365.046 316.904 368.286C316.078 371.526 314.62 374.571 312.614 377.245C312.13 378.095 311.43 378.802 310.586 379.296C309.742 379.79 308.782 380.053 307.804 380.059C304.437 380.492 295.25 380.733 293.374 379.891C287.29 377.077 284.283 366.856 284.38 359.761ZM303.932 386.216C298.968 386.686 293.959 386.18 289.19 384.725C287.03 384.137 285.043 383.04 283.394 381.526C283.009 381.117 282.384 380.3 282.576 379.795C283.201 378.207 286.256 377.39 287.939 377.101C289.144 378.939 290.8 380.438 292.749 381.454C295.154 382.681 308.478 382.536 310.955 381.262C312.499 380.319 313.807 379.036 314.779 377.51C316.198 377.919 321.152 379.602 321.489 380.949C322.571 385.086 308.261 386.072 303.932 386.336V386.216Z" fill="#2C3E50"/>
</svg>
