<svg width="516" height="433" viewBox="0 0 516 433" fill="none" xmlns="http://www.w3.org/2000/svg">
<path d="M378.947 78.7902C383.347 81.5625 386.834 85.5679 388.974 90.3077C391.845 97.0311 393.866 104.086 394.99 111.31C393.33 111.354 391.678 111.563 390.058 111.933C389.869 111.933 388.785 112.503 388.595 113.099C387.727 116.103 387.066 119.164 386.617 122.259L332.417 122.584C331.793 122.584 331.875 123.315 332.417 123.343C332.417 123.343 381.901 124.101 386.617 124.128C385.424 133.993 386.427 144.833 393.419 151.825C400.004 158.329 422.389 159.25 430.708 153.044C437.619 147.868 439.326 132.909 438.838 124.128C440.464 124.128 477.103 123.478 480.735 123.343C480.835 123.343 480.932 123.303 481.003 123.231C481.074 123.16 481.114 123.064 481.114 122.963C481.114 122.863 481.074 122.766 481.003 122.695C480.932 122.624 480.835 122.584 480.735 122.584C474.556 122.584 438.757 122.313 438.757 122.313C438.025 114.183 436.047 113.37 436.047 112.99C436.025 112.739 435.924 112.502 435.758 112.312C435.592 112.122 435.371 111.99 435.126 111.933C432.768 111.473 430.373 111.228 427.971 111.202C431.765 105.104 435.017 88.5191 440.979 77.4081C449.814 60.85 483.065 76.6222 482.523 61.9882C481.873 45.7282 463.824 36.5955 444.448 45.2133C426.047 53.3433 421.25 91.2833 420.925 111.093C415.37 111.093 418.053 111.256 410.085 111.093C417.05 101.825 425.912 70.9312 424.367 49.3325C422.597 34.9987 416.565 21.5264 407.05 10.6608C398.703 1.31129 388.92 -2.64531 381.549 4.86139C370.709 15.7014 380.682 27.8151 389.95 40.0914C400.139 53.6414 403.961 60.3893 405.343 79.6845C405.99 90.1531 405.791 100.657 404.746 111.093H401.738C404.069 103.478 401.061 86.7034 398.866 78.8173C395.722 67.6792 390.356 56.4598 381.847 48.7363C371.794 40.0564 359.569 34.2762 346.481 32.0156C338.487 30.6606 331.658 31.1755 327.945 33.3977C326.58 34.1078 325.525 35.2979 324.985 36.7389C324.445 38.1798 324.457 39.7697 325.018 41.2025C329.517 55.9178 361.332 67.9502 378.947 78.7902ZM444.99 46.9477C463.12 38.8177 479.813 47.3542 480.383 62.0966C480.816 73.3973 448.215 59.3866 439.326 76.7035C433.147 88.6817 430.41 105.429 426.67 111.229H424.746C427.456 99.2778 434.096 72.6927 441.901 63.289C451.873 51.1211 469.244 58.2213 470.003 58.0316C470.301 58.0316 470.599 57.5438 469.705 57.2186C458.865 53.2891 447.835 53.3704 440.464 62.0966C431.603 72.5572 426.02 97.7602 423.689 111.31H421.359C422.09 92.3402 427.402 54.6712 444.99 46.9477ZM406.725 79.6574C405.641 60.5248 402.118 53.5059 391.413 39.0074C382.633 27.2189 373.229 15.9724 382.931 6.13509C389.543 -0.585709 398.161 3.42509 405.641 11.8803C414.799 22.4823 420.576 35.5826 422.226 49.4951C423.987 71.4461 415.044 102.963 408.676 111.12H407.24C410.138 98.7116 412.015 86.0858 412.849 73.3702C413.473 62.5302 413.283 54.9964 410.139 45.5656C407.557 38.3851 403.971 31.6061 399.489 25.4303C397.35 22.3841 394.995 19.4951 392.443 16.7854C392.378 16.7063 392.285 16.6562 392.183 16.646C392.082 16.6359 391.98 16.6665 391.901 16.7312C391.822 16.7959 391.772 16.8893 391.762 16.991C391.752 17.0926 391.782 17.1941 391.847 17.2732C392.526 17.9825 393.159 18.7337 393.744 19.5225C402.199 30.3625 410.546 46.1889 411.196 60.1725C411.847 74.1561 409.055 97.4892 406.481 111.31H405.722C406.919 100.804 407.254 90.218 406.725 79.6574ZM434.34 114.237C438.811 118.329 437.402 145.51 429.299 151.581C421.196 157.651 400.085 156.215 394.34 150.659C385.289 141.96 386.21 125.673 389.299 113.587C389.492 113.84 389.756 114.029 390.058 114.129C392.141 114.609 394.264 114.9 396.4 114.996C393.747 124.83 394.211 135.246 397.728 144.806C397.857 145.079 398.09 145.289 398.374 145.391C398.659 145.493 398.972 145.477 399.245 145.348C399.518 145.218 399.729 144.986 399.831 144.701C399.932 144.417 399.917 144.103 399.787 143.83C396.373 137.001 395.451 121.825 397.429 115.185C405.885 115.565 428.513 115.727 434.34 114.237ZM380.682 50.1184C399.055 66.3784 403.771 102.394 400.925 111.175H399.245C398.86 103.644 397.55 96.1898 395.343 88.9798C389.489 70.0098 379.679 58.3568 364.638 49.5764C356.782 45.0822 348.373 41.6296 339.625 39.3055C339.525 39.2803 339.418 39.2962 339.329 39.3495C339.24 39.4029 339.176 39.4894 339.151 39.59C339.126 39.6907 339.142 39.7971 339.195 39.8861C339.248 39.975 339.335 40.0391 339.435 40.0643C349.648 43.3023 359.34 47.9935 368.216 53.9937C378.057 60.5453 385.741 69.8608 390.302 80.7685C394.63 90.4102 397.375 100.686 398.432 111.202H395.885C394.882 103.764 392.952 96.4803 390.14 89.5218C387.942 84.5179 384.335 80.2618 379.76 77.2726C361.847 66.2429 330.98 54.1563 326.861 40.6063C323.04 28.1674 359.869 31.4736 380.682 50.1184ZM146.348 189.656C110.251 177.109 77.8934 171.499 57.7581 166.432C57.5087 166.361 57.2478 166.342 56.9909 166.376C56.734 166.409 56.4865 166.494 56.2631 166.625C56.0398 166.756 55.8452 166.931 55.6911 167.139C55.537 167.347 55.4265 167.585 55.3662 167.836C55.306 168.088 55.2972 168.35 55.3405 168.605C55.3838 168.861 55.4781 169.105 55.618 169.323C55.7578 169.541 55.9402 169.728 56.1543 169.874C56.3684 170.02 56.6097 170.121 56.8638 170.171C69.8176 173.288 89.3838 176.865 110.549 181.77C145.508 189.9 146.267 192.312 146.836 190.632C146.897 190.438 146.88 190.228 146.789 190.046C146.698 189.864 146.54 189.724 146.348 189.656ZM432.388 211.58C432.388 211.516 432.376 211.453 432.351 211.394C432.327 211.334 432.291 211.281 432.246 211.235C432.2 211.19 432.146 211.154 432.087 211.13C432.028 211.105 431.965 211.092 431.901 211.092C408.134 211.092 385.018 216.512 371.928 217.732C371.769 217.745 371.614 217.791 371.473 217.865C371.331 217.94 371.206 218.042 371.105 218.166C371.004 218.29 370.929 218.433 370.884 218.586C370.839 218.74 370.826 218.901 370.844 219.06C370.858 219.22 370.903 219.376 370.977 219.519C371.052 219.662 371.153 219.789 371.277 219.892C371.4 219.995 371.543 220.073 371.697 220.121C371.85 220.169 372.012 220.186 372.172 220.171C381.766 219.222 398.378 215.591 413.933 213.586C431.196 211.58 432.416 212.8 432.388 211.58ZM350.519 267.975C350.543 267.931 350.557 267.882 350.562 267.832C350.566 267.782 350.561 267.732 350.546 267.684C350.531 267.636 350.506 267.592 350.474 267.553C350.441 267.515 350.401 267.483 350.357 267.46L349.679 267.108L349.517 267.921C349.977 268.138 350.33 268.49 350.519 267.975Z" fill="#16A085"/>
<path d="M515.125 274.75C508.16 273.314 490.952 273.883 483.851 274.506C489.705 254.507 495.748 228.436 498.187 214.073C499.071 210.099 499.453 206.029 499.325 201.96C499.237 201.594 499.073 201.251 498.844 200.953C498.615 200.654 498.327 200.406 497.998 200.225C487.158 193.423 373.581 208.355 365.668 212.285C363.311 213.45 361.197 219.331 360.248 221.987C353.229 210.442 353.961 207.705 346.129 189.467C341.249 177.587 335.059 166.289 327.674 155.781C327.864 154.345 335.371 98.275 327.322 83.2887C321.902 73.2617 292.552 69.7387 281.252 68.7902C281.252 68.194 279.843 57.9502 279.246 53.3161C288.786 45.3487 292.796 30.6876 282.444 28.2215C275.1 26.4871 246.103 20.9587 224.504 26.5413C210.954 30.0643 200.114 37.9775 199.193 53.6413C198.829 59.5892 199.193 65.5593 200.277 71.4189C186.266 72.9636 162.147 75.2671 149.844 79.9012C134.018 85.8632 140.684 155.104 142.364 160.713C141.443 162.99 140.576 165.293 139.79 167.434C100.359 157.38 12.0946 138.627 8.16511 138.979C7.1416 138.967 6.1309 139.208 5.22306 139.681C4.31523 140.153 3.53844 140.843 2.96191 141.689C1.90501 141.933 1.52561 143.424 1.33591 144.399C-1.37409 158.816 3.53101 244.913 4.39821 259.52C5.83451 264.777 47.5956 276.187 53.0156 277.677C53.2866 284.804 54.7229 320.197 55.021 327.46C52.6633 327.03 50.3296 326.479 48.0292 325.807C43.2054 323.828 24.7232 341.823 26.3492 340.332C19.2761 346.619 96.2401 367.297 102.392 365.562C108.544 363.828 120.711 352.202 118.652 345.725C118.082 344.573 117.122 343.66 115.942 343.151C110.115 340.088 94.6954 336.321 88.2727 334.777C88.896 321.66 88.896 300.143 88.8689 287.081C96.484 288.978 139.709 299.438 147.513 299.303C148.073 299.311 148.624 299.171 149.112 298.896C151.605 298.544 154.532 297.921 154.776 295.373C154.776 294.615 155.399 288.002 156.185 278.192C175.291 285.482 198.461 284.94 202.581 283.26C203.691 282.724 204.63 281.889 205.291 280.848C205.48 281.092 205.562 281.037 206.998 281.254C212.418 282.121 221.09 282.934 225.968 280.387C232.878 281.498 252.905 283.097 254.396 276.403C254.585 275.509 254.856 273.693 255.127 271.498C275.181 272.582 346.4 272.094 346.671 272.094L345.018 279.547C344.976 279.486 344.92 279.436 344.853 279.403C344.787 279.369 344.713 279.354 344.639 279.357C344.639 279.14 344.639 279.195 344.639 279.357C333.542 278.483 322.406 278.193 311.279 278.49C307.322 278.68 296.888 279.168 296.699 283.016C295.313 286.286 295.112 289.938 296.13 293.341C296.726 295.482 301.766 298.951 303.636 300.224C293.04 299.167 286.862 299.574 283.664 300.712C282.903 300.845 282.194 301.186 281.616 301.697C281.038 302.208 280.612 302.87 280.388 303.609C280.163 304.348 280.148 305.134 280.343 305.881C280.539 306.628 280.938 307.306 281.496 307.839C285.127 312.826 292.688 314.506 293.501 321.037C295.046 333.422 263.555 347.432 252.065 352.338C257.837 344.75 273.311 320.874 265.805 315.102C257.458 308.679 185.887 305.861 179.302 307.541C174.667 308.734 140.603 333.91 141.226 342.771C141.66 348.544 175.182 354.207 181.415 355.291C188.434 356.484 238.515 364.289 244.504 360.468C245.774 359.955 246.928 359.192 247.897 358.223C248.865 357.255 249.629 356.101 250.141 354.831C260.518 351.264 270.506 346.651 279.951 341.064C294.856 331.823 303.203 320.387 288.46 310.766C286.699 309.628 281.875 306.159 282.58 304.208C284.097 299.899 305.046 301.498 305.344 301.498C315.073 307.839 333.69 317.622 344.666 320.468C356.265 323.53 410.465 317.595 423.554 315.942C425.044 321.362 426.481 326.403 427.429 329.492C425.397 329.655 419.597 330.17 417.971 331.443C417.077 332.148 417.104 333.34 418.54 334.153C418.54 343.232 417.429 370.386 420.139 382.635C421.169 387.215 422.361 389.112 427.104 390.765C436.074 393.665 453.31 392.635 462.334 390.223C467.944 388.706 468.675 387.513 469.57 384.532C472.659 374.397 472.496 344.479 472.28 333.855C472.453 333.73 472.594 333.565 472.692 333.374C472.789 333.183 472.84 332.972 472.84 332.758C472.84 332.544 472.789 332.332 472.692 332.142C472.594 331.951 472.453 331.786 472.28 331.66C470.275 330.731 468.116 330.179 465.911 330.034C466.291 326.999 468.323 310.034 468.621 307.053C470.038 306.204 471.302 305.123 472.361 303.856C474.018 301.842 475.095 299.416 475.477 296.837C478.187 293.287 482.09 280.035 483.364 275.699C495.45 276.214 513.174 275.509 514.827 275.699C514.952 275.738 515.089 275.726 515.206 275.665C515.323 275.604 515.41 275.499 515.45 275.374C515.49 275.248 515.477 275.111 515.417 274.995C515.356 274.878 515.251 274.79 515.125 274.75ZM148.814 333.232C150.63 331.227 152.771 329.14 155.047 327.026C164.722 318.083 177.025 309.086 179.708 308.408C186.212 306.728 257.648 311.118 264.911 316.538C266.13 317.46 266.374 319.248 266.13 321.389C265.154 329.899 256.266 343.937 251.089 350.793C245.236 345.752 156.565 334.289 148.814 333.232ZM281.604 70.7414C291.956 71.717 320.98 75.0503 325.967 84.1017C333.013 96.8387 328.677 140.28 326.942 154.562C325.425 152.529 323.853 150.605 322.254 148.844C313.067 138.762 297.295 133.695 283.935 131.12C275.352 129.626 266.694 128.603 258 128.058C257.729 128.058 258.163 128.464 256.022 124.074C252.824 117.489 252.634 117.597 252.959 117.408C256.513 117.218 260.032 116.618 263.447 115.619C272.607 112.909 278.054 107.489 280.628 94.3184C282.026 86.5121 282.318 78.5479 281.496 70.6601L281.604 70.7414ZM258.271 128.898C259.978 129.142 260.439 129.115 260.574 129.196C260.574 129.874 266.509 161.716 246.184 163.18C229.382 164.562 218.326 140.985 212.364 125.24C214.532 124.887 216.266 124.643 217.431 124.481C218 136.838 235.778 159.25 245.642 157.678C256.726 155.863 262.173 139.006 258.271 128.898ZM217.811 79.034C218.054 77.825 218.595 76.6959 219.385 75.7493C220.176 74.8027 221.19 74.0687 222.336 73.614C227.756 72.2861 227.756 79.034 232.065 78.6546C237.485 78.3023 231.442 65.7279 236.103 58.0586C241.171 49.6034 261.713 66.7035 278.325 54.0207C280.33 68.3024 282.526 79.4134 279.463 93.9932C276.753 106.784 271.713 111.5 263.013 114.047C259.439 114.87 255.819 115.485 252.173 115.89C251.883 116.054 251.638 116.29 251.463 116.574C251.288 116.858 251.187 117.182 251.171 117.516C251.171 118.465 253.881 123.315 256.401 128.979C260.168 137.868 255.263 154.02 245.344 155.564C238.298 156.676 224.504 140.876 220.575 129.711C218.841 124.779 219.355 124.589 222.418 105.321C226.727 105.619 227.621 97.191 227.838 92.8279C227.882 91.903 227.561 90.9976 226.943 90.3076C224.992 88.1667 223.393 90.6599 219.599 85.9174C218.771 84.9974 218.177 83.8918 217.866 82.6939C217.554 81.4959 217.535 80.2408 217.811 79.034ZM200.656 73.3701C204.288 89.9553 213.827 101.473 220.385 104.671C219.193 112.286 217.838 120.768 217.486 123.343C201.848 124.127 186.427 127.326 171.768 132.828C165.258 135.32 159.192 138.843 153.801 143.261C150.82 127.814 158.489 97.6246 157.54 89.061C157.107 85.4296 156.077 81.5814 152.527 80.7955C164.668 76.9744 187.161 74.8064 200.656 73.3701ZM150.901 81.5001C151.548 81.5222 152.185 81.6752 152.772 81.95C153.359 82.2248 153.884 82.6157 154.315 83.099C155.537 84.9427 156.153 87.1217 156.077 89.332C156.673 97.462 148.245 127.435 152.988 144.047C148.419 148.33 144.96 153.659 142.906 159.575C140.738 146.378 137.134 86.2968 150.901 81.5001ZM53.5305 204.968C53.7473 203.694 56.0779 203.125 57.3516 202.908C66.7553 201.363 86.2944 206.729 85.8608 213.26C85.2104 222.935 88.1914 340.17 85.644 344.479C82.6088 349.655 66.0236 346.782 59.4112 342.175C56.4031 340.088 56.4573 338.3 56.5386 338.652C54.2351 246.377 53.1511 207.082 53.5305 204.968ZM116.348 346.619C117.73 351.226 106.863 361.823 101.823 363.232C96.7821 364.641 22.4739 345.4 27.3248 341.01C25.0755 343.042 39.4114 329.845 45.7257 327.731C46.229 327.48 46.8042 327.413 47.3517 327.541C48.0834 327.866 50.956 328.598 55.1023 329.574C55.3462 335.292 55.5088 338.679 55.5088 338.679C57.1077 346.647 82.6088 352.663 87.0532 345.319C87.7337 342.716 88.0976 340.041 88.1372 337.351C92.2835 338.381 113.557 343.557 116.348 346.619ZM147.513 296.999C140.386 297.27 96.0233 286.864 88.8689 285.184C88.7334 253.423 88.083 217.813 88.4082 213.423C89.0586 203.45 63.693 198.03 54.75 200.957C53.8638 201.151 53.0494 201.589 52.3983 202.221C51.7472 202.853 51.2853 203.654 51.0644 204.534C50.4682 208.138 52.7988 272.284 52.9343 276.132C48.517 274.94 7.13531 263.91 5.42801 259.493C4.96731 249.52 0.550011 153.098 3.69361 143.966C18.436 147.651 144.343 173.044 153.204 179.196C155.427 185.293 150.359 288.382 147.513 296.999ZM153.882 295.4C153.882 297.216 151.47 297.839 149.681 298.11C152.608 291.092 158.435 184.29 155.454 178.003C152.473 171.716 16.5119 145.294 3.80201 141.743C4.36726 141.132 5.05544 140.647 5.82138 140.32C6.58733 139.993 7.41374 139.832 8.24641 139.846C12.0133 139.575 151.036 170.632 159.112 175.076C160.467 178.979 159.112 206.16 158.922 210.632C158.435 221.417 153.99 293.937 153.882 295.4ZM227.052 277.054C223.881 281.281 212.635 280.766 207.35 280.279H206.049C208.46 275.431 209.827 270.132 210.06 264.723C212.77 263.964 222.689 261.661 224.206 264.1C224.667 264.805 223.204 265.645 222.445 266.051C220.441 266.981 218.342 267.69 216.185 268.165C215.865 268.226 215.582 268.412 215.399 268.681C215.216 268.95 215.148 269.281 215.209 269.601C215.27 269.921 215.456 270.204 215.725 270.387C215.995 270.569 216.326 270.638 216.645 270.577C219.355 270.197 226.754 269.168 229.382 270.062C228.299 271.565 226.744 272.662 224.965 273.178C222.431 273.161 219.901 273.37 217.404 273.802C217.044 273.87 216.722 274.068 216.499 274.358C216.276 274.648 216.168 275.01 216.194 275.375C216.221 275.741 216.381 276.083 216.644 276.338C216.908 276.592 217.255 276.741 217.621 276.756C220.374 276.836 223.121 276.46 225.751 275.645C226.436 275.673 227.109 275.839 227.729 276.132C227.556 276.497 227.295 276.813 226.971 277.054H227.052ZM252.688 276.105C252.574 276.527 252.359 276.916 252.061 277.236C251.764 277.557 251.393 277.801 250.981 277.948C245.968 280.658 233.312 280.17 227.675 279.601C229.762 278.002 230.981 275.401 228.868 273.964C233.041 271.254 232.607 268.355 229.87 267.515C228.098 267.085 226.265 266.957 224.45 267.135C226.158 265.861 226.781 264.425 225.751 262.88C224.26 260.767 220.331 261.038 217.892 261.444C216.731 250.715 216.134 239.933 216.103 229.141C223.339 234.398 247.323 234.561 255.697 229.575C256.103 238.68 253.366 272.149 252.58 276.105H252.688ZM229.437 269.954C229.437 269.954 229.355 270.008 229.355 269.954H229.437ZM287.593 270.55C292.607 255.889 293.311 224.832 293.013 209.304C297.214 216.052 320.113 248.409 320.276 248.68C320.832 249.531 321.487 250.313 322.227 251.011C327.688 256.001 333.817 260.206 340.438 263.504C347.511 267.244 348.08 267.054 348.026 267.352L347.078 271.417C346.617 271.39 291.74 270.55 287.512 270.55H287.593ZM299.273 282.718C305.1 278.653 344.72 280.495 345.154 280.224V280.523C341.36 298.68 339.896 305.238 339.435 307.623C339.679 306.566 341.17 299.493 342.877 291.661C344.07 285.915 345.587 279.086 347.132 271.851C347.837 268.544 348.297 266.431 348.324 266.268C340.899 262.338 329.571 255.563 323.636 249.574C322.146 248.057 293.338 208.138 293.067 207.678C292.796 207.217 292.796 195.32 292.498 194.778C292.442 194.717 292.367 194.674 292.285 194.656C292.204 194.639 292.118 194.647 292.041 194.679C291.964 194.712 291.899 194.768 291.855 194.839C291.81 194.91 291.789 194.993 291.794 195.076C291.523 195.076 291.794 253.016 286.78 270.468L255.561 270.767C255.751 269.249 255.94 267.487 256.157 265.59C268.732 267.189 274.45 253.395 271.116 242.149C269.138 235.97 264.043 235.022 258.217 238.003C258.488 234.394 258.488 230.771 258.217 227.163C258.468 226.54 258.512 225.853 258.341 225.203C258.17 224.554 257.794 223.977 257.268 223.558C253.23 219.764 241.93 219.358 236.428 219.358C230.927 219.358 219.599 219.791 215.589 223.558C215.237 223.83 214.958 224.183 214.776 224.588C212.716 228.301 216.673 260.848 217.16 261.553C214.8 262.022 212.474 262.647 210.196 263.422V259.086C210.033 249.629 179.789 244.371 178.76 238.978C178.407 237.135 177.838 233.016 177.188 228.138C173.529 201.363 174.071 202.393 173.475 202.393C173.374 202.393 173.278 202.433 173.207 202.504C173.136 202.576 173.096 202.672 173.096 202.773C173.096 203.504 176.022 232.989 177.079 239.249C178.136 245.509 208.163 251.58 208.299 259.086C208.299 264.94 206.998 279.466 201.93 281.552C198.868 282.853 175.182 284.046 156.294 277.406C156.7 272.149 164.234 178.03 160.603 173.857C159.221 172.258 142.988 168.193 140.928 167.678C149.058 149.25 155.074 134.074 211.605 125.212C213.175 130.474 215.094 135.626 217.35 140.632C223.095 152.909 232.824 166.161 246.293 165.022C261.767 163.694 264.26 146.92 261.794 131.608C261.631 130.524 261.469 129.819 261.333 129.196C268.769 129.94 276.16 131.08 283.474 132.611C296.238 135.321 311.929 140.47 320.682 150.172C330.14 160.578 338.406 176.648 344.205 189.494C352.552 207.976 352.498 212.745 359.679 223.396C354.629 239.33 350.396 255.512 346.996 271.878C345.912 276.945 344.286 284.669 342.742 291.688C340.492 302.528 339.137 309.384 339.273 307.948C339.029 309.411 339.273 309.357 339.273 309.709C330.438 305.769 321.913 301.167 313.772 295.942C310.926 294.045 296.401 284.75 299.273 282.663V282.718ZM258 243.531C258 242.122 258.163 240.821 258.217 239.466C263.122 237.488 267.485 237.786 268.813 242.908C271.523 252.203 267.241 264.588 256.32 264.588C256.32 263.287 256.78 259.574 256.835 259.168C269.301 260.848 269.219 238.03 258 243.531ZM256.943 258.002C257.323 253.721 257.648 249.195 257.919 244.94C259.216 244.539 260.605 244.539 261.902 244.94C265.127 246.106 264.612 257.298 256.808 258.002H256.943ZM345.587 318.137C335.159 314.726 325.071 310.353 315.452 305.075C312.742 303.639 298.704 295.997 297.756 293.043C296.936 290.405 296.852 287.594 297.512 284.913C301.143 291.986 324.178 303.883 331.577 307.379C334.964 308.977 338.459 310.335 342.037 311.444C354.557 315.915 408.269 308.734 421.467 307.108C421.63 307.677 422.768 312.04 423.202 313.612C411.711 314.94 356.373 320.983 345.452 318.137H345.587ZM466.67 386.294C462.713 389.654 438.974 392.473 427.781 389.004C423.716 387.73 422.903 386.429 421.928 382.31C421.039 377.84 420.478 373.312 420.248 368.76C425.803 372.175 435.993 373.042 442.524 373.232C452.361 373.448 462.036 373.232 469.949 368.76C469.786 371.633 468.865 384.424 466.67 386.294ZM470.03 367.703C464.685 369.991 458.934 371.179 453.12 371.199C445.369 371.579 427.212 371.524 420.194 367.785C419.895 362.69 419.706 357.243 419.624 352.175C422.334 355.427 436.779 356.89 442.551 357.08C452.849 357.297 462.415 357.08 470.654 352.202C470.654 351.931 470.572 358.354 470.057 367.703H470.03ZM470.654 351.254C457.104 358.083 423.473 354.993 419.597 351.254V334.587C428.215 337.649 462.28 337.433 470.816 334.587C470.762 337.704 470.789 344.045 470.681 351.254H470.654ZM465.234 333.015C465.331 333.042 465.434 333.032 465.525 332.987C465.615 332.942 465.685 332.865 465.721 332.771C465.721 332.771 465.721 332.284 465.884 331.416C467.631 331.657 469.353 332.046 471.033 332.582C465.098 335.292 429.38 335.536 420.464 332.907C420.404 332.888 420.351 332.85 420.313 332.799C420.276 332.748 420.255 332.686 420.255 332.622C420.255 332.559 420.276 332.497 420.313 332.446C420.351 332.395 420.404 332.357 420.464 332.338C422.949 331.663 425.488 331.209 428.052 330.983C428.232 331.737 428.505 332.465 428.865 333.151C429.082 333.368 429.435 333.395 429.407 332.853C429.38 332.311 420.492 297.216 419.137 289.493C420.522 289.955 422 290.071 423.441 289.83C424.882 289.589 426.242 288.999 427.402 288.111C430.383 296.457 439.895 334.018 440.464 334.018C440.567 334.011 440.664 333.965 440.734 333.89C440.805 333.814 440.844 333.715 440.844 333.611L440.058 329.953H443.798C443.798 330.468 444.096 333.097 444.123 333.286C444.15 333.476 444.936 333.937 444.882 332.934C444.882 330.495 442.605 290.089 442.551 289.357C442.941 289.169 443.35 289.024 443.77 288.924C444.069 290.387 453.608 329.032 454.339 332.04C454.339 332.311 454.339 332.771 454.854 332.663C455.369 332.555 455.152 332.067 454.854 330.305L459.001 330.603V331.064C459.001 331.498 459.678 331.389 459.759 331.064C459.759 331.362 464.8 279.357 465.179 275.211C465.894 275.752 466.715 276.136 467.588 276.337C468.462 276.538 469.368 276.551 470.247 276.376C470.193 276.783 464.638 332.826 465.207 333.015H465.234ZM440.844 279.14C440.522 276.534 439.384 274.096 437.592 272.176C441.304 273.287 442.09 274.1 443.012 276.647C443.745 278.677 443.941 280.861 443.581 282.989C443.214 284.328 443.214 285.741 443.581 287.081C443.137 287.183 442.703 287.319 442.28 287.487C440.6 282.691 436.86 282.745 436.86 277.921C436.855 276.177 436.599 274.443 436.101 272.772C437.414 275.15 438.852 277.457 440.41 279.682C440.681 280.035 441.196 279.52 440.871 279.14H440.844ZM442.199 313.341C442.334 314.669 443.391 326.186 443.662 329.113H439.787C438.974 325.454 437.754 320.034 436.372 314.235L442.199 313.341ZM442.036 311.254L435.857 312.067C435.315 309.818 434.746 307.541 434.177 305.292C436.67 304.94 439.109 304.56 441.467 304.181C441.575 305.346 441.955 310.062 442.063 311.254H442.036ZM450.464 310.007C450.031 307.948 448.974 303.287 448.892 303.016C451.25 302.609 459.272 301.227 460.925 300.902C460.925 302.067 460.464 306.999 460.356 308.246C457.727 308.815 454.367 309.411 450.41 310.007H450.464ZM460.247 310.007C459.759 317.026 459.001 328.761 458.974 329.411C457.564 329.411 456.074 329.357 454.502 329.248C453.852 325.969 451.06 312.826 450.871 311.931C454.529 311.2 457.673 310.549 460.274 309.926L460.247 310.007ZM465.423 272.962C465.754 269.527 466.288 266.116 467.022 262.745C467.745 262.528 468.508 262.476 469.254 262.594C470 262.711 470.71 262.994 471.331 263.422C471.169 266.828 470.807 270.222 470.247 273.585C470.003 274.533 469.949 274.777 469.326 274.859C468.106 274.94 465.64 273.91 465.451 272.88L465.423 272.962ZM468.973 305.265C469.217 303.259 469.461 301.227 469.678 299.194C471.284 298.858 472.86 298.396 474.393 297.812C473.539 300.837 471.625 303.454 469.001 305.184L468.973 305.265ZM473.499 295.563C472.356 296.018 471.178 296.381 469.976 296.647C470.464 292.094 473.337 265.59 473.337 263.721C473.337 261.011 468.513 260.008 466.02 261.011C465.179 261.39 464.936 262.989 464.692 264.398C463.337 271.959 461.738 290.821 461.114 298.49L448.405 300.82C445.234 286.999 445.505 287.758 445.153 287.406C444.91 287.175 444.592 287.041 444.258 287.027C444.008 285.82 444.073 284.569 444.448 283.395C445.008 281.051 444.934 278.6 444.231 276.295C443.87 274.619 442.906 273.133 441.521 272.122C439.316 270.953 436.937 270.147 434.475 269.737C434.346 269.702 434.211 269.698 434.08 269.727C433.949 269.755 433.827 269.814 433.724 269.898C433.62 269.983 433.539 270.092 433.486 270.214C433.432 270.337 433.409 270.471 433.418 270.604C433.476 270.834 433.549 271.06 433.635 271.281C435.749 276.322 434.285 278.626 435.749 281.634C437.212 284.642 439.678 285.102 440.573 288.571C440.573 288.842 441.331 301.362 441.359 302.121L433.689 303.341C433.147 301.281 429.435 286.62 427.971 285.184C425.261 282.474 417.511 285.509 417.131 287.894C416.887 289.249 420.6 303.774 420.952 305.156C406.996 307.189 392.199 309.032 379.11 310.251C373.392 310.766 338.46 313.964 340.411 308.246C343.121 295.726 348.541 272.745 349.625 267.921V267.542C349.625 267.135 349.815 266.729 349.625 267.921C349.625 267.515 349.788 267.271 349.842 267.135L356.617 240.929C357.511 237.705 363.663 215.781 366.779 214.236C373.69 210.821 487.266 196.133 496.859 202.556C498.485 209.521 478.513 292.257 473.526 295.59L473.499 295.563Z" fill="#2C3E50"/>
<path d="M253.962 77.5978V75.5111C253.962 75.1733 253.828 74.8493 253.589 74.6105C253.35 74.3716 253.026 74.2374 252.688 74.2374C252.348 74.2373 252.021 74.3707 251.778 74.6088C251.535 74.8469 251.395 75.1708 251.388 75.5111V77.9501C251.448 78.2724 251.63 78.5592 251.896 78.7507C252.162 78.9423 252.491 79.0239 252.816 78.9785C253.141 78.9331 253.435 78.7642 253.639 78.5071C253.842 78.2499 253.939 77.9242 253.908 77.5978H253.962ZM427.158 244.371C426.372 243.612 425.261 242.718 424.231 243.043C422.524 243.585 420.817 247.921 420.085 249.71C418.03 255.047 416.399 260.539 415.207 266.133C416.318 269.005 435.071 265.238 437.619 263.992C438.432 263.612 438.323 262.637 438.052 261.769C435.371 255.427 431.693 249.554 427.158 244.371ZM415.939 265.78C416.427 263.531 422.605 246.295 424.719 244.724C427.998 246.593 434.584 258.084 436.345 262.42C433.906 263.395 417.348 267.596 415.939 265.78ZM195.291 323.259C195.02 323.449 189.112 327.189 188.841 327.46C188.777 327.487 188.722 327.532 188.683 327.59C188.645 327.647 188.624 327.715 188.624 327.785C188.624 327.855 188.645 327.923 188.683 327.98C188.722 328.038 188.777 328.083 188.841 328.11C190.358 328.544 195.426 329.113 196.971 329.276C234.044 319.98 234.287 319.98 233.827 319.98C234.076 319.946 234.303 319.817 234.459 319.621C234.616 319.424 234.69 319.174 234.667 318.923C234.667 318.463 233.935 315.265 233.718 314.289L195.291 323.259ZM267.106 66.27C267.864 66.27 269.355 66.6223 269.653 66.6494C271.298 66.8201 272.928 67.1099 274.531 67.5166L276.97 67.9502C277.063 67.9733 277.161 67.963 277.247 67.9211C277.333 67.8791 277.401 67.8082 277.44 67.7209C277.479 67.6335 277.485 67.5353 277.459 67.4434C277.432 67.3515 277.374 67.2719 277.295 67.2185C275.881 66.0206 274.166 65.2333 272.336 64.9421C270.524 64.5535 268.637 64.7139 266.916 65.4028C266.859 65.4153 266.805 65.4388 266.757 65.4721C266.709 65.5054 266.669 65.5478 266.637 65.5969C266.606 65.646 266.584 65.7007 266.574 65.7581C266.564 65.8155 266.565 65.8743 266.577 65.9313C266.59 65.9882 266.613 66.0421 266.646 66.09C266.68 66.1378 266.722 66.1786 266.771 66.2101C266.82 66.2415 266.875 66.263 266.932 66.2733C266.99 66.2836 267.049 66.2825 267.106 66.27ZM245.642 68.6548C246.374 68.4922 247.946 68.2483 248.352 68.1941C249.995 67.8355 251.661 67.5999 253.339 67.4895L256.049 67.1914C256.157 67.1914 256.26 67.1486 256.336 67.0724C256.412 66.9961 256.455 66.8927 256.455 66.7849C256.455 66.6771 256.412 66.5737 256.336 66.4975C256.26 66.4213 256.157 66.3784 256.049 66.3784C254.302 65.6379 252.385 65.3903 250.508 65.6626C248.63 65.935 246.863 66.7168 245.398 67.9231C245.334 67.9231 245.271 67.9384 245.213 67.9678C245.156 67.9971 245.106 68.0397 245.069 68.0919C245.031 68.1442 245.006 68.2046 244.997 68.2683C244.987 68.332 244.992 68.3971 245.013 68.4582C245.033 68.5193 245.068 68.5747 245.114 68.6198C245.16 68.6649 245.216 68.6984 245.277 68.7176C245.339 68.7368 245.404 68.7412 245.467 68.7302C245.531 68.7193 245.591 68.6935 245.642 68.6548ZM272.742 73.3702C272.405 73.3702 272.081 73.5044 271.842 73.7433C271.603 73.9821 271.469 74.3061 271.469 74.6439V77.0829C271.515 77.4207 271.694 77.7261 271.966 77.932C272.238 78.1378 272.581 78.2272 272.919 78.1805C273.256 78.1338 273.562 77.9548 273.768 77.6829C273.973 77.411 274.063 77.0684 274.016 76.7306V74.6439C274.02 74.4756 273.989 74.3084 273.927 74.1522C273.864 73.9959 273.77 73.8541 273.651 73.735C273.532 73.616 273.39 73.5223 273.234 73.4596C273.078 73.3969 272.911 73.3665 272.742 73.3702ZM62.4193 308.652C66.1862 309.872 74.9666 313.151 79.0045 312.663C79.4923 312.663 80.0343 312.175 80.3866 311.308C83.0966 305.211 81.1454 274.208 80.1698 268.219C79.4923 263.91 63.9098 258.572 60.1429 261.634C57.7039 263.612 58.9234 286.566 59.1944 289.764C59.899 297.487 59.1673 307.596 62.4193 308.652ZM61.3624 263.07C64.2892 260.956 77.8663 265.97 78.2999 268.49C78.9774 272.745 81.4977 308.517 78.7877 311.308C75.2918 311.823 66.0236 308.978 62.5277 307.894C60.0616 307.081 60.9017 296.295 60.4952 289.628C60.3055 285.13 60.0074 267.271 61.3624 263.07ZM253.935 93.8307C253.868 93.7973 253.793 93.7799 253.718 93.7799C253.643 93.7799 253.569 93.7973 253.501 93.8307C252.824 94.0746 252.417 94.8334 252.309 95.9445C252.221 98.8156 253.185 101.62 255.019 103.831C255.449 104.417 255.992 104.912 256.617 105.284C257.242 105.656 257.936 105.899 258.657 105.998C259.377 106.096 260.11 106.049 260.812 105.858C261.514 105.667 262.171 105.337 262.742 104.888C264.376 103.543 265.659 101.823 266.482 99.874C266.557 99.7221 266.595 99.5553 266.595 99.3862C266.595 99.2171 266.557 99.0503 266.482 98.8984C265.642 97.5976 263.637 99.4404 253.935 93.8307ZM253.691 94.7521C256.635 97.2593 260.082 99.1073 263.799 100.172C258 110.037 252.173 96.7304 253.691 94.7521ZM260.331 88.3836C262.065 88.7088 266.862 88.1126 267.891 86.3511C268.406 85.511 267.891 85.24 266.753 81.7712C265.728 78.7576 264.524 75.8076 263.149 72.9366C262.661 72.1778 262.038 72.9366 262.39 73.3973C263.143 77.5522 264.343 81.6136 265.967 85.511C264.006 86.4288 261.998 87.2429 259.951 87.95C259.948 88.0034 259.954 88.057 259.972 88.1078C259.989 88.1585 260.016 88.2054 260.051 88.2456C260.086 88.2859 260.129 88.3189 260.177 88.3425C260.225 88.3662 260.277 88.3802 260.331 88.3836ZM360.275 370.197C370.438 363.747 362.525 357.812 355.804 360.63C354.151 357.622 353.771 357.378 350.384 357.541C332.796 358.435 253.366 376.809 252.607 377.107C248.596 378.76 258.786 402.689 262.824 405.833C263.745 406.538 263.447 406.673 273.393 404.722C274.043 410.63 276.618 420.982 282.634 421.307C285.438 420.793 288.168 419.938 290.764 418.76C295.789 423.759 301.14 428.422 306.78 432.716C313.013 436.89 352.85 390.359 358.812 384.939C360.519 384.37 362.037 383.99 361.847 379.763C366.996 378.814 370.98 375.644 368.243 371.091C366.4 368.327 363.202 368.76 360.275 370.197ZM361.224 362.825C362.335 363.232 362.904 363.665 362.552 364.777C361.822 366.475 360.752 368.006 359.408 369.275C358.689 367.071 357.848 364.909 356.888 362.798C358.291 362.293 359.827 362.302 361.224 362.825ZM332.389 361.931C333.392 366.674 334.07 369.248 335.343 373.611L316.563 377.161C315.483 373.24 314.226 369.37 312.796 365.562C316.346 364.885 329.49 362.419 332.389 361.931ZM304.612 398.11C305.606 401.514 307.075 404.762 308.975 407.757C303.772 410.277 298.867 412.581 294.693 414.478C293.196 409.933 291.09 405.612 288.433 401.633L304.612 398.11ZM296.943 398.11C296.027 393.401 294.869 388.743 293.474 384.153L315.154 379.465C316.336 384.055 317.766 388.578 319.436 393.015C311.983 394.587 304.205 396.348 296.943 398.001V398.11ZM305.967 398.245C305.669 397.811 303.826 398.462 323.772 393.882C324.124 395.896 324.87 397.82 325.967 399.546L310.086 407.324C309.143 404.086 307.757 400.994 305.967 398.137V398.245ZM324.937 393.584C335.235 391.199 344.693 388.923 351.224 387.188L327.295 398.868C326.852 396.944 326.062 395.117 324.964 393.475L324.937 393.584ZM320.357 392.744C319.488 388.12 318.384 383.543 317.051 379.031L335.56 374.478C335.56 374.614 336.807 378.787 337.376 380.576C337.647 381.389 339.95 387.947 340.086 388.055C334.476 389.302 320.791 392.527 320.33 392.635L320.357 392.744ZM311.983 365.833C312.877 370.766 313.718 373.963 314.693 377.649L293.013 382.419C291.739 378.11 290.872 375.291 289.002 370.413C293.23 369.438 308.731 366.348 312.01 365.725L311.983 365.833ZM288.108 370.576C289.165 375.996 289.951 378.841 291.089 382.852C289.273 383.259 274.45 386.971 274.45 386.971C273.908 386.971 274.124 387.812 274.666 387.703C274.666 387.703 290.737 384.722 291.55 384.532C291.55 384.532 292.715 389.194 296.048 398.326L278.569 402.229C276.069 392.776 272.927 383.504 269.165 374.478L288.108 370.576ZM263.583 404.912C259.463 401.822 250.033 379.058 252.878 377.812C252.878 377.812 259.084 376.457 268.406 374.505C270.73 384.003 273.83 393.293 277.675 402.283C263.42 405.481 264.043 405.156 263.61 404.803L263.583 404.912ZM282.553 419.329C277.973 419.329 275.236 409.437 274.423 404.939C274.423 404.424 272.986 404.939 287.16 401.985C287.864 401.849 286.753 401.66 290.141 408.706C291.112 410.92 292.311 413.027 293.718 414.993C290.153 416.7 286.455 418.114 282.661 419.22L282.553 419.329ZM307.81 430.928C302.3 427.067 297.008 422.905 291.956 418.462C296.617 416.538 301.902 414.071 306.455 411.903C310.019 416.047 314.058 419.758 318.487 422.96C316.644 424.532 310.384 430.331 307.918 430.819L307.81 430.928ZM319.273 422.147C315.694 418.152 311.686 414.562 307.322 411.443L324.341 403.069C326.712 405.503 329.457 407.543 332.471 409.112C328.209 413.522 323.845 417.832 319.381 422.039L319.273 422.147ZM333.392 408.245C331.132 405.937 328.56 403.958 325.75 402.364C337.403 396.484 344.097 392.906 354.964 386.89C350.14 391.145 337.891 403.665 333.501 408.137L333.392 408.245ZM359.246 382.771C358.08 383.611 342.118 387.513 340.736 387.839C339.011 378.973 336.48 370.283 333.175 361.877C338.433 360.983 348.839 359.167 352.714 359.6C353.239 360.217 353.693 360.89 354.069 361.606C352.22 362.862 350.689 364.533 349.598 366.484C349.327 367.161 350.032 367.514 350.384 367.188C351.74 365.754 353.324 364.555 355.072 363.638C356.302 366.179 357.37 368.795 358.27 371.47C355.862 373.117 353.692 375.086 351.82 377.324C351.468 377.757 351.576 378.083 351.82 378.218C352.471 378.598 352.525 377.622 358.92 373.828C359.567 376.022 359.931 378.29 360.004 380.576C359.869 381.064 359.788 382.31 359.354 382.663L359.246 382.771ZM365.993 375.508C364.783 376.895 363.259 377.972 361.549 378.652C361.3 376.72 360.91 374.809 360.384 372.934C362.145 372.039 364.882 370.901 365.804 372.554C366.151 372.935 366.367 373.416 366.42 373.928C366.474 374.44 366.362 374.956 366.102 375.4L365.993 375.508Z" fill="#2C3E50"/>
</svg>
