<svg width="593" height="661" viewBox="0 0 593 661" fill="none" xmlns="http://www.w3.org/2000/svg">
<g filter="url(#filter0_i_182_135)">
<path d="M218.96 257.709C221.282 250.473 226.103 244.3 232.56 240.294L301.73 197.381C307.372 193.88 313.963 192.222 320.59 192.635L464.99 201.63C481.858 202.681 495 216.668 495 233.569V579.951C495 593.958 485.89 606.338 472.517 610.503L319.5 658.167C313.564 660.015 307.219 660.095 301.238 658.396L139.838 612.545C122.43 607.599 112.584 589.216 118.113 571.985L218.96 257.709Z" fill="#F4C542"/>
</g>
<mask id="mask0_182_135" style="mask-type:alpha" maskUnits="userSpaceOnUse" x="8" y="-57" width="585" height="717">
<path d="M171.935 37.6452C174.259 30.4089 179.083 24.236 185.543 20.2318L301.474 -51.6271C307.113 -55.1224 313.7 -56.7786 320.321 -56.3665L562.988 -41.2625C579.856 -40.2125 593 -26.2255 593 -9.32426V549.417C593 563.427 583.886 575.809 570.509 579.972L319.232 658.171C313.301 660.017 306.961 660.097 300.985 658.401L31.8557 582.014C14.4413 577.071 4.59049 558.68 10.126 541.444L171.935 37.6452Z" fill="#F4C542"/>
</mask>
<g mask="url(#mask0_182_135)">
<path d="M362.473 263.592C361.343 260.234 361.318 232.17 361.318 232.17L299.675 230.145C299.675 230.145 304.823 291.451 304.079 294.348" fill="url(#paint0_linear_182_135)"/>
<g style="mix-blend-mode:multiply" opacity="0.6">
<path d="M299.213 241.862C299.213 241.862 306.441 243.888 308.187 247.003C309.934 250.119 321.168 273.554 330.028 273.926C338.887 274.297 344.626 261.836 349.12 258.964C353.614 256.093 361.755 255.888 361.755 255.888L361.318 232.157L299.675 230.132L299.2 241.862H299.213Z" fill="#8D307F"/>
</g>
<path style="mix-blend-mode:multiply" opacity="0.6" d="M341.597 246.274L339.311 269.632C339.311 269.632 344.807 263.478 347.619 258.991C350.43 254.504 355.669 236.928 355.669 236.928L341.584 246.274H341.597Z" fill="url(#paint1_linear_182_135)"/>
<path d="M373.771 183.979C373.771 183.979 379.112 175.864 382.733 175.877C384.942 175.877 390.257 180.505 390.193 184.915C390.116 190.813 384.877 197.517 383.581 200.966C382.271 204.402 378.894 208.889 376.647 209.325C374.4 209.761 371.473 205.517 371.473 205.517C371.473 205.517 372.564 189.338 373.771 183.979Z" fill="url(#paint2_linear_182_135)"/>
<path style="mix-blend-mode:multiply" opacity="0.6" d="M374.169 192.62C374.169 192.62 382.938 181.813 386.123 181.813C389.307 181.813 389.307 187.967 388.023 191.467C387.137 193.89 385.391 197.402 385.391 197.402C385.391 197.402 386.765 193.633 386.932 190.813C387.188 186.467 386.225 183.313 385.121 183.326C383.105 183.339 381.513 186.095 381.269 187.069C381.012 188.044 382.861 192.326 382.373 195.313C381.886 198.3 380.088 199.441 379.497 199.107C378.894 198.787 379.818 195.415 379.279 194.223C378.74 193.031 377.161 191.3 376.236 191.672C375.312 192.056 374.169 192.608 374.169 192.608V192.62Z" fill="url(#paint3_linear_182_135)"/>
<path style="mix-blend-mode:multiply" opacity="0.6" d="M374.169 192.619C374.169 192.619 376.326 191.324 376.981 191.747C377.636 192.158 379.305 193.657 379.382 194.593C379.446 195.529 378.855 198.221 379.382 198.683C379.908 199.145 381.821 196.132 381.898 193.452C381.988 190.786 380.486 187.696 380.486 187.337C380.486 186.978 380.833 185.26 380.833 185.26C380.833 185.26 375.735 190.068 374.169 192.606V192.619Z" fill="url(#paint4_linear_182_135)"/>
<path d="M289.967 183.979C289.967 183.979 284.626 175.864 281.005 175.877C278.796 175.877 273.481 180.505 273.545 184.915C273.622 190.813 278.861 197.517 280.157 200.966C281.467 204.402 284.844 208.889 287.091 209.325C289.338 209.761 292.265 205.517 292.265 205.517C292.265 205.517 291.174 189.338 289.967 183.979Z" fill="url(#paint5_linear_182_135)"/>
<path style="mix-blend-mode:multiply" opacity="0.6" d="M289.569 192.62C289.569 192.62 280.799 181.813 277.615 181.813C274.431 181.813 274.431 187.967 275.715 191.467C276.6 193.89 278.347 197.402 278.347 197.402C278.347 197.402 276.973 193.633 276.806 190.813C276.549 186.467 277.512 183.313 278.616 183.326C280.632 183.339 282.224 186.095 282.468 187.069C282.725 188.044 280.876 192.326 281.364 195.313C281.852 198.3 283.649 199.441 284.24 199.107C284.844 198.787 283.919 195.415 284.458 194.223C284.998 193.031 286.577 191.3 287.501 191.672C288.426 192.056 289.569 192.608 289.569 192.608V192.62Z" fill="url(#paint6_linear_182_135)"/>
<path style="mix-blend-mode:multiply" opacity="0.6" d="M289.569 192.619C289.569 192.619 287.412 191.324 286.757 191.747C286.102 192.158 284.433 193.657 284.356 194.593C284.279 195.529 284.883 198.221 284.356 198.683C283.83 199.145 281.917 196.132 281.84 193.452C281.75 190.786 283.252 187.696 283.252 187.337C283.252 186.978 282.905 185.26 282.905 185.26C282.905 185.26 288.003 190.068 289.569 192.606V192.619Z" fill="url(#paint7_linear_182_135)"/>
<path d="M374.953 184.262C374.286 191.57 372.873 198.39 372.54 206.031C372.206 213.672 371.577 219.89 370.382 222.736C369.843 224.018 368.893 225.338 367.699 226.684C364.296 230.518 358.891 234.53 355.232 238.3C353.845 239.723 352.407 240.928 351.059 241.94C351.059 241.94 351.046 241.94 351.033 241.953C348.311 243.979 345.884 245.184 344.742 245.646C341.249 247.081 332.197 247.081 332.197 247.081C332.197 247.081 323.145 247.081 319.653 245.646C317.932 244.94 313.336 242.581 309.163 238.3C304.836 233.851 298.082 229.056 295.078 224.646C294.628 224.005 294.269 223.364 293.999 222.736C292.805 219.89 292.163 213.672 291.842 206.031C291.508 198.39 290.096 191.57 289.428 184.262C288.761 176.942 287.939 151.609 290.096 145.789C292.266 139.969 317.894 124.354 332.21 124.354C342.251 124.354 357.889 132.046 367.044 138.648C370.935 141.456 373.669 144.058 374.311 145.789C376.481 151.609 375.647 176.955 374.979 184.262H374.953Z" fill="url(#paint8_linear_182_135)"/>
<path d="M324.224 115.685C324.224 115.685 329.912 112.352 338.091 112.686C346.282 113.019 355.566 117.429 355.566 117.429L333.083 129.531L322.94 125.826L324.211 115.685H324.224Z" fill="url(#paint9_linear_182_135)"/>
<path d="M380.834 151.749L378.574 150.133L374.748 180.838C374.748 180.838 375.66 170.453 374.247 164.71C372.835 158.967 373.169 147.48 373.169 147.48C373.169 147.48 364.528 136.993 356.477 134.582C356.477 134.582 345.936 135.826 330.105 136.416C314.273 136.993 305.183 136.749 305.183 136.749C305.183 136.749 294.616 142.569 291.277 148.403C291.277 148.403 291.367 157.223 291.11 161.877C290.854 166.53 288.555 182.479 288.555 182.479C288.555 182.479 288.555 182.415 288.543 182.312C288.414 180.312 287.104 161.441 285.718 153.646C285.666 153.364 285.615 153.095 285.577 152.813C285.422 151.813 285.294 150.813 285.204 149.813C285.204 149.787 285.204 149.762 285.191 149.723C284.858 146.134 284.896 142.582 284.999 139.967C284.999 139.787 285.012 139.608 285.024 139.429C285.037 139.262 285.05 139.095 285.05 138.929C285.05 138.788 285.063 138.634 285.076 138.505C285.076 138.364 285.089 138.223 285.101 138.095C285.127 137.788 285.14 137.493 285.166 137.236C285.179 137.095 285.191 136.954 285.204 136.839C285.204 136.813 285.204 136.788 285.204 136.775C285.204 136.647 285.23 136.544 285.23 136.429C285.256 136.198 285.268 136.018 285.281 135.903C285.281 135.865 285.281 135.839 285.281 135.826C285.281 135.749 285.294 135.723 285.294 135.723L285.577 135.813L287.528 139.582C287.528 139.582 287.528 139.582 287.554 139.544C287.554 139.544 287.58 139.518 287.592 139.505C287.592 139.505 287.605 139.493 287.618 139.48C287.657 139.441 287.695 139.403 287.746 139.339C288.311 138.672 290.122 136.595 292.715 133.89C292.857 133.736 292.998 133.583 293.139 133.441C293.178 133.39 293.216 133.352 293.255 133.313C293.486 133.07 293.768 132.775 294.089 132.467C294.166 132.39 294.256 132.3 294.346 132.211C296.85 129.66 299.906 126.749 303.193 123.993C303.218 123.967 303.231 123.955 303.257 123.942C303.372 123.852 303.475 123.749 303.603 123.66C304.785 122.673 305.992 121.711 307.224 120.801C317.599 113.07 329.475 109.07 329.475 109.07H334.855C334.855 109.07 328.615 119.365 327.241 125.813C327.421 125.403 333.481 112.019 338.437 109.07C338.437 109.07 343.239 108.442 348.606 110.942C348.606 110.942 339.567 118.544 337.333 124.544C337.706 124.237 352.587 111.801 363.449 118.301C363.154 118.237 360.072 117.647 357.132 117.993C357.132 117.993 360.265 119.301 365.182 124.801C365.901 125.608 366.723 126.596 367.583 127.711C372.617 134.172 379.46 145.069 380.834 151.749Z" fill="url(#paint10_linear_182_135)"/>
<path d="M331.595 136.339C331.595 136.339 345.346 108.583 363.463 118.314C363.463 118.314 346.27 116.98 334.124 136.236L331.595 136.352V136.339Z" fill="url(#paint11_linear_182_135)"/>
<path d="M338.425 109.084C338.425 109.084 327.345 120.699 325.714 136.353H331.582C331.582 136.353 332.878 121.084 344.665 109.597C344.665 109.597 342.007 109.084 338.425 109.084Z" fill="url(#paint12_linear_182_135)"/>
<path d="M329.476 109.084C329.476 109.084 320.642 121.148 319.936 136.699C319.936 136.699 321.605 122.43 331.595 109.084H329.476Z" fill="url(#paint13_linear_182_135)"/>
<path d="M286.527 139.211C286.527 139.211 289.378 143.878 292.061 147.186L291.278 148.378V151.75C291.278 151.75 287.477 149.955 285.295 145.737V135.711L286.527 139.224V139.211Z" fill="url(#paint14_linear_182_135)"/>
<path d="M301.743 125.107C301.743 125.107 297.429 130.223 296.337 142.786L298.443 141.12C298.443 141.12 298.083 130.415 304.901 122.556L301.743 125.107Z" fill="url(#paint15_linear_182_135)"/>
<path d="M343.458 135.697C343.458 135.697 351.996 124.915 366.466 124.671L365.722 125.441L370.883 126.671C370.883 126.671 362.846 128.376 356.464 134.569L343.445 135.697H343.458Z" fill="url(#paint16_linear_182_135)"/>
<g style="mix-blend-mode:multiply" opacity="0.6">
<path d="M344.472 134.568H356.478C356.478 134.568 345.936 135.812 330.105 136.402C314.274 136.979 305.183 136.735 305.183 136.735C305.183 136.735 294.616 142.555 291.278 148.389C291.278 148.389 291.368 157.209 291.111 161.863C290.854 166.516 288.556 182.465 288.556 182.465C288.556 182.465 288.556 182.401 288.543 182.298C288.35 180.272 286.527 161.209 285.577 152.799C285.436 151.517 285.307 150.491 285.205 149.799C285.205 149.773 285.205 149.748 285.192 149.709C284.755 146.543 284.858 142.376 285.025 139.414C285.038 139.248 285.051 139.081 285.051 138.915C285.051 138.773 285.063 138.62 285.076 138.491C285.076 138.35 285.089 138.209 285.102 138.081C285.128 137.774 285.14 137.479 285.166 137.222C285.179 137.081 285.192 136.94 285.205 136.825C285.205 136.799 285.205 136.774 285.205 136.761C285.205 136.633 285.23 136.53 285.23 136.415C285.256 136.184 285.269 136.004 285.282 135.889C285.282 135.85 285.282 135.825 285.282 135.812C285.282 135.735 285.294 135.709 285.294 135.709L285.577 135.799L287.529 139.568C287.529 139.568 287.529 139.568 287.554 139.53C287.554 139.53 287.58 139.504 287.593 139.491C287.593 139.491 287.606 139.479 287.618 139.466C288.132 138.902 290.918 135.786 293.139 133.427C293.178 133.376 293.217 133.338 293.255 133.299C293.486 133.056 293.769 132.761 294.09 132.453C296.683 129.876 301.729 125.312 303.18 123.992C303.206 123.966 303.219 123.953 303.244 123.94C303.463 123.748 303.591 123.633 303.591 123.633V123.671C302.988 130.107 304.926 134.158 304.926 134.158C316.315 135.12 344.485 134.581 344.485 134.581L344.472 134.568Z" fill="#8D307F"/>
</g>
<g style="mix-blend-mode:multiply" opacity="0.6">
<path d="M380.834 151.749L378.575 150.133L374.748 180.838C374.748 180.838 375.66 170.454 374.248 164.71C372.835 158.967 373.169 147.48 373.169 147.48C373.169 147.48 364.528 136.993 356.478 134.583L357.184 133.929L367.571 127.711H367.584C372.617 134.185 379.461 145.082 380.834 151.762V151.749Z" fill="#8D307F"/>
</g>
<path d="M365.825 140.145C365.825 140.145 368.663 139.056 372.579 139.222C376.495 139.389 378.331 142.761 378.331 142.761C378.331 142.761 373.683 141.197 367.43 141.543L365.825 140.145Z" fill="url(#paint17_linear_182_135)"/>
<path d="M295.297 143.697C295.297 143.697 288.042 136.697 292.061 128.415C292.061 128.415 293.255 133.312 296.414 141.992L295.297 143.684V143.697Z" fill="url(#paint18_linear_182_135)"/>
<path d="M210.338 1103.06C212.071 1038.96 208.296 888.257 207.577 878.155C206.845 867.848 213.766 759.26 218.709 684.429C221.38 644.071 223.46 613.546 223.46 613.546H409.66L409.083 675.442L413.795 864.373C413.795 864.373 437.471 1023.07 445.65 1091.01C416.222 1103.18 381.388 1105.07 349.609 1101.34L326.588 873.553L304.722 693.3L302.912 682.044L302.359 693.365L304.542 871.86L311.976 1113.14C277.553 1120.2 243.592 1113.25 210.338 1103.05V1103.06Z" fill="#2A2A2C"/>
<path d="M218.709 684.429C236.363 689.172 264.816 694.403 302.346 693.377L302.898 682.057L304.709 693.313C334.266 692.313 369.331 687.416 409.07 675.455L409.134 667.75L409.172 662.839L409.236 655.455L409.301 650.365L409.635 613.559H223.472C223.472 613.559 222.715 624.661 221.521 642.327C221.405 644.045 221.302 645.84 221.174 647.686C220.956 650.814 220.737 654.122 220.506 657.57C220.404 659.173 220.288 660.827 220.185 662.493C219.723 669.352 219.235 676.724 218.722 684.442L218.709 684.429Z" fill="#2A2A2C"/>
<path d="M380.027 613.559C382.89 631.443 393.008 648.045 409.263 655.456L409.327 650.366C395.743 643.276 387.179 629.084 384.572 613.559H380.04H380.027Z" fill="#2A2A2C"/>
<path d="M361.524 613.559C367.816 638.353 385.688 658.43 409.134 667.737L409.172 662.827C388.166 653.891 372.335 635.905 366.211 613.559H361.511H361.524Z" fill="#2A2A2C"/>
<path d="M221.162 647.686C233.976 641.353 243.4 627.79 246.109 613.559H241.448C238.97 625.225 231.613 636.353 221.508 642.328C221.393 644.046 221.29 645.84 221.162 647.686Z" fill="#2A2A2C"/>
<path d="M220.173 662.494C241.333 655.007 256.316 635.918 258.615 613.559H254.146C251.989 633.302 238.867 650.315 220.481 657.571C220.378 659.173 220.263 660.827 220.16 662.494H220.173Z" fill="#2A2A2C"/>
<path d="M221.61 627.586V627.624L275.87 631.008L288.145 613.547L311.975 633.265L408.517 639.303H408.761C408.761 639.303 462.918 318.747 395.998 271.35C390.657 267.581 384.648 265.53 377.869 265.53L363.077 249.928L329.874 275.235L309.562 291.863L302.513 265.517C302.513 265.517 296.696 274.004 294.706 280.812C294.706 280.812 294.565 280.837 294.295 280.876C291.355 281.363 273.084 284.824 257.201 298.632C256.649 299.119 256.084 299.606 255.545 300.119C250.769 304.529 246.275 309.926 242.539 316.503C223.844 349.502 221.713 614.214 221.623 627.124C221.61 627.342 221.61 627.483 221.61 627.573V627.586Z" fill="#3C3148"/>
<path d="M309.549 291.89C309.549 291.89 284.191 569.614 288.133 613.549C288.133 613.549 278.58 429.579 309.549 291.89Z" fill="#261D30"/>
<path d="M302.499 265.542L309.548 291.888L293.126 316.515C293.255 298.105 293.923 283.452 294.693 280.824C296.683 274.029 302.487 265.529 302.487 265.529L302.499 265.542Z" fill="#261D30"/>
<path d="M309.548 291.887L332.929 321.169L377.855 265.542L363.064 249.939L309.548 291.887Z" fill="#261D30"/>
<path d="M383.944 604.995C383.944 604.995 357.751 596.2 354.284 603.572C350.805 610.944 371.348 619.841 371.348 619.841L383.944 604.995Z" fill="#F69787"/>
<path d="M326.832 646.442C330.813 651.288 360.986 620.276 360.986 620.276L372.015 625.071L360.613 639.212L355.863 665.237C355.863 665.237 360.087 668.185 365.454 671.493C366.122 671.916 366.815 672.326 367.508 672.737C370.744 674.672 374.249 676.621 377.421 678.07C377.716 678.224 378.037 678.352 378.332 678.493C379.937 679.172 381.427 679.724 382.723 680.07C384.174 680.442 385.381 680.544 386.267 680.301L394.292 661.301C394.292 661.301 421.628 653.365 424.658 650.288C425.852 649.058 427.495 641.737 429.036 633.353C429.768 629.327 430.487 625.058 431.116 621.097L419.946 614.982L394.639 601.136C391.84 601.354 388.142 601.725 384.033 602.264C382.017 602.52 379.899 602.828 377.742 603.187C369.935 604.495 361.628 606.456 355.58 609.366C353.012 610.597 350.868 611.994 349.353 613.597C338.825 624.635 322.852 641.609 326.819 646.442H326.832Z" fill="url(#paint19_linear_182_135)"/>
<path d="M377.434 678.059C377.729 678.212 378.05 678.341 378.345 678.482C378.576 677.648 378.859 676.559 379.218 675.251C380.027 672.289 381.196 668.302 382.544 664.02C383.931 659.751 385.433 655.969 386.871 653.264C387.243 652.585 387.59 651.969 387.885 651.431C388.232 650.918 388.527 650.457 388.784 650.098C389.259 649.341 389.541 648.893 389.541 648.893C389.541 648.893 389.092 649.149 388.296 649.675C387.898 649.931 387.41 650.252 386.858 650.649C386.344 651.085 385.779 651.585 385.15 652.162C382.698 654.482 379.925 658.392 378.41 663.085C376.933 667.777 376.817 672.123 377.061 675.187C377.164 676.315 377.305 677.277 377.434 678.033V678.059Z" fill="#F47D6F"/>
<path d="M365.467 671.481C366.134 671.904 366.828 672.314 367.521 672.725C367.585 672.558 367.624 672.378 367.675 672.212C368.497 669.25 369.652 665.263 371.013 660.981C372.387 656.699 373.889 652.93 375.34 650.225C375.713 649.546 376.034 648.93 376.342 648.405C376.688 647.879 376.997 647.43 377.228 647.058C377.716 646.289 377.998 645.866 377.998 645.866C377.998 645.866 377.562 646.123 376.766 646.635C376.38 646.892 375.88 647.212 375.327 647.623C374.814 648.046 374.236 648.558 373.62 649.135C371.155 651.469 368.394 655.392 366.879 660.071C365.505 664.417 365.3 668.481 365.479 671.481H365.467Z" fill="#F47D6F"/>
<path d="M382.735 680.058C384.186 680.43 385.393 680.532 386.279 680.289L394.304 661.289C394.304 661.289 421.639 653.353 424.67 650.277C425.864 649.046 427.507 641.725 429.048 633.341C429.78 629.316 430.499 625.046 431.128 621.085L419.957 614.97C419.534 618.662 419.046 622.431 418.442 626.021C416.812 636.008 414.501 644.623 411.329 646.482C402.945 651.392 388.821 658.302 388.821 658.302L382.722 680.058H382.735Z" fill="#F69787"/>
<path d="M385.406 596.969L392.789 602.892L420.086 624.007L431.809 633.071C431.809 633.071 560.539 496.831 549.189 455.255C538.018 414.32 407.875 282.746 403.818 278.669C403.78 278.631 403.754 278.605 403.741 278.592C403.741 278.567 403.715 278.554 403.715 278.554C403.715 278.554 403.626 279.105 403.459 280.143C401.648 291.759 390.336 363.513 385.393 371.436C382.556 376 408.992 402.307 434.569 426.114C457.398 447.357 479.534 466.613 479.534 466.613C462.881 480.959 385.38 596.969 385.38 596.969H385.406Z" fill="#3C3148"/>
<path d="M511.144 452.986C510.477 452.101 509.09 452.396 508.063 452.806C502.182 455.127 496.558 458.114 491.345 461.678C490.318 462.383 488.726 463.357 487.173 464.511L429.445 409L429.394 421.243C452.223 442.473 479.559 466.601 479.559 466.601C462.906 480.959 385.393 596.957 385.393 596.957L392.788 602.88C412.433 575.367 464.844 502.19 485.555 475.459C491.91 479.331 499.319 481.459 506.753 481.536C504.557 476.306 498.985 473.46 493.836 471.049C499.203 466.114 504.583 461.178 509.95 456.229C510.887 455.37 511.889 453.986 511.131 452.96L511.144 452.986Z" fill="#3C3148"/>
<path d="M177.891 526.537C177.891 526.537 210.247 369.746 221.597 340.208C226.155 328.336 232.806 319.311 239.124 312.747C243.784 307.901 248.265 304.388 251.604 302.093C255.006 299.76 257.202 298.67 257.202 298.67C257.202 298.67 257.163 300.85 257.073 304.734C256.406 337.323 253.144 490.397 251.193 494.448C250.23 496.448 236.556 526.55 221.61 559.51V559.549C221.199 560.433 220.788 561.331 220.39 562.228L175.041 535.46L177.891 526.55V526.537Z" fill="#3C3148"/>
<path d="M211.377 548.343C210.799 540.792 235.978 365.835 245.633 332.399C238.559 387.411 221.61 559.497 221.61 559.497V559.535C221.2 560.42 220.789 561.317 220.391 562.214L209.438 555.753C210.761 552.202 211.493 549.612 211.39 548.356L211.377 548.343Z" fill="#261D30"/>
<path d="M134.89 426.231L238.661 421.911L257.047 572.24L160.287 571.407L134.89 426.231Z" fill="#EAE2CC"/>
<path d="M128.933 486.883C130.127 489.268 132.156 491.114 134.364 492.165C136.906 493.396 139.487 494.729 142.094 495.678C142.35 495.767 142.607 495.857 142.877 495.947C144.097 496.37 145.316 496.69 146.536 496.883C146.985 496.947 147.422 496.998 147.859 497.037C149.348 497.139 150.824 496.998 152.16 496.537C154.368 495.793 154.818 492.601 152.956 490.319C150.619 487.46 147.563 485.255 144.469 483.768C142.556 482.857 136.085 480.678 131.86 480.883C128.702 481.024 126.776 482.499 128.959 486.857L128.933 486.883Z" fill="url(#paint20_linear_182_135)"/>
<path d="M135.827 501.435C137.021 503.82 139.037 505.653 141.246 506.73C142.889 507.512 144.558 508.345 146.24 509.102C146.895 509.409 147.563 509.691 148.23 509.935C149.951 510.627 151.684 511.179 153.43 511.448C153.777 511.499 154.111 511.537 154.458 511.563C156.05 511.704 157.629 511.563 159.054 511.089C161.263 510.345 161.699 507.153 159.825 504.884C157.501 502.012 154.445 499.794 151.338 498.333C150.657 498.012 149.399 497.525 147.858 497.025C146.407 496.576 144.712 496.115 143.043 495.833C142.722 495.769 142.414 495.717 142.106 495.679C137.24 494.961 132.951 495.705 135.853 501.435H135.827Z" fill="url(#paint21_linear_182_135)"/>
<path d="M139.051 514.702C140.245 517.086 142.26 518.92 144.469 519.996C146.523 520.996 148.642 522.048 150.747 522.932C151.402 523.202 152.07 523.471 152.725 523.676C154.022 524.15 155.331 524.522 156.654 524.727C157.437 524.843 158.22 524.907 158.991 524.894C160.133 524.894 161.25 524.714 162.265 524.368C164.473 523.625 164.91 520.445 163.035 518.163C160.711 515.304 157.655 513.074 154.548 511.612C154.509 511.612 154.497 511.586 154.458 511.574C153.213 510.984 150.337 509.984 147.319 509.317C146.973 509.24 146.6 509.163 146.241 509.112C141.015 508.151 135.969 508.599 139.038 514.702H139.051Z" fill="url(#paint22_linear_182_135)"/>
<path d="M145.638 528.831C146.832 531.216 148.86 533.075 151.056 534.126C151.39 534.293 151.724 534.447 152.058 534.613C155.717 536.395 159.466 538.267 163.241 538.844C165.18 539.152 167.144 539.088 168.852 538.498C171.06 537.754 171.497 534.562 169.622 532.293C167.298 529.434 164.242 527.216 161.135 525.742C160.673 525.498 159.915 525.203 158.978 524.883C157.014 524.19 154.279 523.408 151.737 523.049C151.39 522.998 151.069 522.96 150.735 522.921C146.395 522.498 142.967 523.537 145.625 528.819L145.638 528.831Z" fill="url(#paint23_linear_182_135)"/>
<path d="M128.933 486.881C130.127 489.266 132.156 491.112 134.364 492.163C136.906 493.394 139.487 494.727 142.094 495.676C137.227 494.958 132.939 495.702 135.841 501.432C137.035 503.817 139.051 505.65 141.259 506.727C142.902 507.509 144.572 508.342 146.254 509.099C141.028 508.137 135.982 508.586 139.051 514.688C140.245 517.073 142.26 518.906 144.469 519.983C146.523 520.983 148.642 522.034 150.747 522.919C146.408 522.496 142.979 523.534 145.637 528.816C146.831 531.201 148.86 533.06 151.056 534.111C151.389 534.278 151.723 534.431 152.057 534.598C151.929 534.355 151.813 534.137 151.71 533.893C150.863 532.073 150.144 530.073 150.195 528.06C150.221 526.098 151.158 524.15 152.712 523.662L152.815 523.637C152.442 523.432 152.096 523.252 151.736 523.047C149.476 521.752 147.217 520.137 146.022 517.522C144.661 514.47 146.022 509.971 148.796 510.329C148.603 510.201 148.411 510.073 148.231 509.945C147.923 509.753 147.627 509.535 147.319 509.317C145.303 507.906 143.352 506.265 142.158 503.907C140.822 501.266 141.002 497.484 142.864 495.971C142.915 495.945 142.967 495.881 143.018 495.855C143.198 495.727 143.39 495.625 143.596 495.548C139.603 492.971 135.776 490.291 133.478 485.369C132.849 484.022 132.361 482.458 131.835 480.92C128.676 481.061 126.75 482.535 128.933 486.894V486.881Z" fill="url(#paint24_linear_182_135)"/>
<path d="M373.168 173.184C373.168 173.184 369.958 167.659 366.736 167.492C366.042 167.454 365.182 167.53 364.206 167.684C357.26 168.825 344.549 174.223 344.549 174.223C344.549 174.223 342.443 168.761 342.674 166.53L343.406 166.21C343.406 166.21 344.163 169.659 344.651 170.159L344.561 165.697C344.561 165.697 354.679 164.172 361.227 163.223L362.319 163.056C363.089 162.941 363.795 162.838 364.412 162.761C365.76 162.569 366.62 162.466 366.671 162.466C366.941 162.543 367.532 162.749 367.596 162.761L367.236 161.8C367.236 161.8 370.639 165.351 373.142 173.184H373.168Z" fill="url(#paint25_linear_182_135)"/>
<g style="mix-blend-mode:multiply" opacity="0.6">
<path d="M373.169 173.184C373.169 173.184 369.959 167.659 366.736 167.492C366.043 167.454 365.182 167.531 364.207 167.684L361.241 163.21L362.332 163.043C364.117 163.351 369.073 166.915 369.073 166.915C367.712 164.274 364.605 162.826 364.425 162.749C365.773 162.556 366.633 162.454 366.685 162.454C366.954 162.531 367.545 162.736 367.609 162.749L367.25 161.787C367.25 161.787 370.652 165.338 373.156 173.171L373.169 173.184Z" fill="#B23594"/>
</g>
<path d="M295.336 173.184C295.336 173.184 298.546 167.659 301.768 167.492C302.462 167.454 303.322 167.53 304.298 167.684C311.244 168.825 323.955 174.223 323.955 174.223C323.955 174.223 326.061 168.761 325.83 166.53L325.098 166.21C325.098 166.21 324.34 169.659 323.853 170.159L323.942 165.697C323.942 165.697 313.825 164.172 307.277 163.223L306.185 163.056C305.415 162.941 304.709 162.838 304.092 162.761C302.744 162.569 301.884 162.466 301.833 162.466C301.563 162.543 300.972 162.749 300.908 162.761L301.268 161.8C301.268 161.8 297.865 165.351 295.361 173.184H295.336Z" fill="url(#paint26_linear_182_135)"/>
<g style="mix-blend-mode:multiply" opacity="0.6">
<path d="M295.336 173.184C295.336 173.184 298.546 167.659 301.768 167.492C302.462 167.454 303.322 167.531 304.298 167.684L307.264 163.21L306.172 163.043C304.388 163.351 299.432 166.915 299.432 166.915C300.793 164.274 303.9 162.826 304.08 162.749C302.731 162.556 301.871 162.454 301.82 162.454C301.55 162.531 300.959 162.736 300.895 162.749L301.255 161.787C301.255 161.787 297.852 165.338 295.349 173.171L295.336 173.184Z" fill="#B23594"/>
</g>
<path d="M346.386 185.786C346.334 186.696 354.167 186.76 358.969 186.157C363.771 185.555 365.992 182.029 366.12 181.081C366.236 180.132 364.939 177.453 358.301 178.055C351.663 178.658 346.527 183.696 346.399 185.773L346.386 185.786Z" fill="url(#paint27_linear_182_135)"/>
<path d="M360.792 182.07C360.586 184.788 358.211 186.813 355.489 186.608C352.767 186.403 350.738 184.031 350.944 181.313C351.149 178.596 353.524 176.57 356.246 176.775C358.968 176.98 360.997 179.352 360.792 182.07Z" fill="url(#paint28_linear_182_135)"/>
<path d="M360.497 182.044C360.304 184.595 358.07 186.518 355.502 186.313C352.934 186.108 351.021 183.89 351.226 181.326C351.419 178.774 353.653 176.851 356.221 177.057C358.776 177.249 360.702 179.48 360.497 182.044Z" fill="url(#paint29_linear_182_135)"/>
<path style="mix-blend-mode:multiply" d="M358.865 181.93C358.737 183.584 357.286 184.827 355.629 184.699C353.973 184.571 352.728 183.122 352.856 181.468C352.984 179.814 354.435 178.571 356.092 178.699C357.748 178.827 358.993 180.276 358.865 181.93Z" fill="url(#paint30_linear_182_135)"/>
<path d="M346.064 186.196C346.064 186.196 350.173 177.145 356.875 176.004C362.396 175.055 366.466 180.004 366.466 180.004C366.466 180.004 362.114 177.773 356.592 178.889C351.071 180.004 346.077 186.209 346.077 186.209L346.064 186.196Z" fill="#E56D5C"/>
<path d="M346.873 184.621L348.273 186.403C348.273 186.403 346.257 186.224 346.077 186.16C345.897 186.095 346.873 184.621 346.873 184.621Z" fill="#DE4E6B"/>
<path d="M350.918 186.543C350.918 186.543 357.569 187.133 361.369 185.825C365.478 184.402 366.12 181.082 366.12 181.082C366.12 181.082 365.093 184.428 360.766 185.62C356.978 186.671 350.918 186.53 350.918 186.53V186.543Z" fill="#DE4E6B"/>
<path d="M360.329 183.106C359.893 183.362 361.613 183.785 363 183.529C364.245 183.298 364.952 182.67 364.875 182.516C364.785 182.362 362.063 182.08 360.329 183.093V183.106Z" fill="white"/>
<path d="M359.276 183.248C358.813 182.979 358.197 183.12 358.12 183.376C358.043 183.633 358.595 184.081 358.89 184.03C359.199 183.979 359.532 183.389 359.276 183.248Z" fill="white"/>
<g style="mix-blend-mode:multiply" opacity="0.6">
<path d="M346.36 185.709C346.36 185.709 355.129 177.35 366.107 181.093C366.107 181.093 363.064 177.876 356.413 178.376C349.75 178.876 346.36 185.709 346.36 185.709Z" fill="#B23594"/>
</g>
<path d="M346.064 186.198C346.064 186.198 350.288 180.198 356.528 179.621C362.768 179.031 366.12 181.095 366.12 181.095L366.684 180.147C366.684 180.147 361.202 177.467 355.745 178.813C349.197 180.441 346.064 186.198 346.064 186.198Z" fill="#290B39"/>
<path d="M346.064 186.197C346.064 186.197 348.979 176.454 353.344 173.454C353.344 173.454 348.337 180.697 346.064 186.197Z" fill="#DE4E6B"/>
<path d="M322.632 185.786C322.683 186.696 314.851 186.76 310.049 186.157C305.247 185.555 303.025 182.029 302.897 181.081C302.781 180.132 304.078 177.453 310.716 178.055C317.354 178.658 322.49 183.696 322.619 185.773L322.632 185.786Z" fill="url(#paint31_linear_182_135)"/>
<path d="M308.238 182.07C308.444 184.788 310.819 186.814 313.541 186.609C316.263 186.404 318.292 184.032 318.086 181.314C317.881 178.596 315.505 176.57 312.783 176.776C310.061 176.981 308.033 179.352 308.238 182.07Z" fill="url(#paint32_linear_182_135)"/>
<path d="M308.534 182.044C308.726 184.595 310.96 186.518 313.528 186.313C316.083 186.121 318.009 183.89 317.804 181.326C317.598 178.762 315.377 176.852 312.809 177.057C310.254 177.249 308.328 179.48 308.534 182.044Z" fill="url(#paint33_linear_182_135)"/>
<path style="mix-blend-mode:multiply" d="M310.151 181.93C310.279 183.584 311.73 184.828 313.386 184.699C315.043 184.571 316.288 183.122 316.16 181.469C316.031 179.815 314.58 178.571 312.924 178.7C311.268 178.828 310.022 180.276 310.151 181.93Z" fill="url(#paint34_linear_182_135)"/>
<path d="M322.966 186.196C322.966 186.196 318.857 177.145 312.155 176.004C306.634 175.055 302.563 180.004 302.563 180.004C302.563 180.004 306.916 177.773 312.437 178.889C317.958 180.004 322.953 186.209 322.953 186.209L322.966 186.196Z" fill="#E56D5C"/>
<path d="M322.157 184.621L320.758 186.403C320.758 186.403 322.773 186.224 322.953 186.16C323.133 186.095 322.157 184.621 322.157 184.621Z" fill="#DE4E6B"/>
<path d="M318.1 186.543C318.1 186.543 311.449 187.133 307.648 185.825C303.54 184.402 302.898 181.082 302.898 181.082C302.898 181.082 303.925 184.428 308.252 185.62C312.04 186.671 318.1 186.53 318.1 186.53V186.543Z" fill="#DE4E6B"/>
<path d="M308.7 183.106C309.137 183.362 307.416 183.785 306.03 183.529C304.784 183.298 304.078 182.67 304.155 182.516C304.245 182.362 306.967 182.08 308.7 183.093V183.106Z" fill="white"/>
<path d="M309.753 183.248C310.215 182.979 310.832 183.12 310.909 183.376C310.986 183.633 310.434 184.081 310.138 184.03C309.83 183.979 309.496 183.389 309.753 183.248Z" fill="white"/>
<g style="mix-blend-mode:multiply" opacity="0.6">
<path d="M322.658 185.709C322.658 185.709 313.888 177.35 302.91 181.093C302.91 181.093 305.953 177.876 312.604 178.376C319.268 178.876 322.658 185.709 322.658 185.709Z" fill="#B23594"/>
</g>
<path d="M322.966 186.198C322.966 186.198 318.741 180.198 312.501 179.621C306.261 179.031 302.91 181.095 302.91 181.095L302.345 180.147C302.345 180.147 307.828 177.467 313.285 178.813C319.833 180.441 322.966 186.198 322.966 186.198Z" fill="#290B39"/>
<path d="M322.966 186.197C322.966 186.197 320.051 176.454 315.686 173.454C315.686 173.454 320.693 180.697 322.966 186.197Z" fill="#DE4E6B"/>
<path d="M323.274 204.376C323.274 204.376 320.423 194.005 333.879 194.005C347.335 194.005 345.075 204.171 345.075 204.171L344.472 204.376C344.472 204.376 340.8 206.671 333.866 206.671C326.933 206.671 323.261 204.376 323.261 204.376H323.274Z" fill="url(#paint35_linear_182_135)"/>
<g style="mix-blend-mode:multiply" opacity="0.6">
<path d="M333.738 205.12C326.702 205.12 323.274 204.377 323.274 204.377C326.869 204.274 329.771 206.646 333.88 206.672C337.988 206.646 340.877 204.274 344.485 204.377C344.485 204.377 340.351 205.12 333.751 205.12H333.738Z" fill="#B23594"/>
</g>
<path style="mix-blend-mode:multiply" opacity="0.5" d="M339.35 205.478C339.35 205.478 341.16 203.555 344.473 204.376L339.35 205.478Z" fill="url(#paint36_linear_182_135)"/>
<path style="mix-blend-mode:multiply" opacity="0.5" d="M323.274 204.376C323.274 204.376 325.392 203.338 328.217 205.427L323.274 204.376Z" fill="url(#paint37_linear_182_135)"/>
<g style="mix-blend-mode:multiply" opacity="0.6">
<path d="M324.622 197.07C324.622 197.07 321.541 199.736 323.017 204.172C323.017 204.172 323.146 200.583 324.622 197.07Z" fill="#B23594"/>
</g>
<g style="mix-blend-mode:multiply" opacity="0.6">
<path d="M343.355 197.249C343.355 197.249 346.552 199.736 345.063 204.171C345.063 204.171 344.819 200.761 343.355 197.249Z" fill="#B23594"/>
</g>
<g style="mix-blend-mode:multiply" opacity="0.6">
<path d="M323.274 204.377C323.274 204.377 329.052 209.364 333.879 209.364C338.707 209.364 345.076 204.172 345.076 204.172C343.984 197.621 340.043 205.12 333.751 205.12C329.475 205.12 324.314 199.364 323.287 204.377H323.274Z" fill="#B23594"/>
</g>
<path d="M338.438 201.812C338.399 201.222 339.131 200.556 339.709 200.607C340.287 200.658 339.991 201.953 339.709 202.197C339.426 202.44 338.438 201.799 338.438 201.799V201.812Z" fill="#FCCBB9"/>
<path style="mix-blend-mode:multiply" opacity="0.6" d="M324.623 197.07C324.623 197.07 325.611 198.609 326.651 203.557C326.651 203.557 327.897 200.25 325.342 196.506L324.623 197.07Z" fill="url(#paint38_linear_182_135)"/>
<path style="mix-blend-mode:multiply" opacity="0.6" d="M343.176 197.209C343.176 197.209 342.47 198.607 341.443 203.555C341.443 203.555 339.915 200.119 342.47 196.376L343.176 197.209Z" fill="url(#paint39_linear_182_135)"/>
<path style="mix-blend-mode:multiply" d="M315.57 218.133C315.57 218.133 323.235 231.658 333.661 231.658C343.085 231.658 351.084 218.402 351.084 218.402C351.084 218.402 343.714 225.851 336.768 226.569C329.822 227.286 315.57 218.133 315.57 218.133Z" fill="url(#paint40_linear_182_135)"/>
<path d="M312.052 212.787C312.052 212.787 319.486 225.35 324.66 227.081C329.835 228.799 339.323 227.799 342.366 227.081C345.422 226.363 354.564 213.889 354.564 213.889C354.564 213.889 344.613 223.017 333.314 223.017C322.015 223.017 312.065 212.799 312.065 212.799L312.052 212.787Z" fill="#EF7172"/>
<path d="M312.052 212.787C312.052 212.787 318.446 216.504 332.621 216.504C346.796 216.504 355.899 212.787 355.899 212.787C355.899 212.787 343.753 223.466 332.621 223.466C323.248 223.466 312.052 212.787 312.052 212.787Z" fill="#D35057"/>
<path d="M354.076 211.658C354.076 211.658 356.297 213.492 357.26 214.927C357.26 214.927 357.581 212.376 356.605 211.081C355.63 209.787 354.063 211.658 354.063 211.658H354.076Z" fill="#DE6B7D"/>
<path d="M313.67 211.658C313.67 211.658 311.449 213.492 310.486 214.927C310.486 214.927 310.165 212.376 311.14 211.081C312.116 209.787 313.683 211.658 313.683 211.658H313.67Z" fill="#DE6B7D"/>
<path d="M316.071 215.3C316.071 215.3 324.083 222.71 332.609 223.004C343.176 223.363 351.534 214.928 351.534 214.928C351.534 214.928 340.479 217.607 332.339 217.607C324.199 217.607 316.071 215.312 316.071 215.312V215.3Z" fill="white"/>
<path d="M347.798 215.735L347.58 218.222L352.613 214.479L347.798 215.735Z" fill="#4F1C3E"/>
<path d="M319.525 216.119L319.962 218.401L314.595 214.619L319.525 216.119Z" fill="#4F1C3E"/>
<g style="mix-blend-mode:soft-light">
<path d="M337.398 224.465L338.682 227.619C338.682 227.619 341.429 227.452 343.073 226.76C344.755 226.068 348.645 221.683 349.968 219.76L348.568 219.35C348.568 219.35 343.984 222.888 337.398 224.465Z" fill="#FCCBB9"/>
</g>
<g style="mix-blend-mode:multiply" opacity="0.6">
<path d="M319.589 216.516C319.589 216.516 325.444 218.221 332.609 218.221C339.773 218.221 347.76 216.054 347.76 216.054L347.785 215.734C347.785 215.734 339.131 217.606 332.339 217.606C325.547 217.606 319.512 216.131 319.512 216.131L319.589 216.516Z" fill="#8D307F"/>
</g>
</g>
<defs>
<filter id="filter0_i_182_135" x="116.573" y="188.573" width="378.427" height="471.042" filterUnits="userSpaceOnUse" color-interpolation-filters="sRGB">
<feFlood flood-opacity="0" result="BackgroundImageFix"/>
<feBlend mode="normal" in="SourceGraphic" in2="BackgroundImageFix" result="shape"/>
<feColorMatrix in="SourceAlpha" type="matrix" values="0 0 0 0 0 0 0 0 0 0 0 0 0 0 0 0 0 0 127 0" result="hardAlpha"/>
<feOffset dy="-4"/>
<feGaussianBlur stdDeviation="2"/>
<feComposite in2="hardAlpha" operator="arithmetic" k2="-1" k3="1"/>
<feColorMatrix type="matrix" values="0 0 0 0 0 0 0 0 0 0 0 0 0 0 0 0 0 0 0.25 0"/>
<feBlend mode="normal" in2="shape" result="effect1_innerShadow_182_135"/>
</filter>
<linearGradient id="paint0_linear_182_135" x1="331.08" y1="294.348" x2="331.08" y2="230.132" gradientUnits="userSpaceOnUse">
<stop stop-color="#F9B19E"/>
<stop offset="0.21" stop-color="#F69B8F"/>
<stop offset="0.47" stop-color="#F48781"/>
<stop offset="0.74" stop-color="#F37B79"/>
<stop offset="1" stop-color="#F37777"/>
</linearGradient>
<linearGradient id="paint1_linear_182_135" x1="347.49" y1="269.619" x2="347.49" y2="236.915" gradientUnits="userSpaceOnUse">
<stop stop-color="#FEEADB"/>
<stop offset="0.99" stop-color="#B17EB7"/>
</linearGradient>
<linearGradient id="paint2_linear_182_135" x1="380.833" y1="209.363" x2="380.833" y2="175.89" gradientUnits="userSpaceOnUse">
<stop stop-color="#F4837E"/>
<stop offset="0.01" stop-color="#F3827D"/>
<stop offset="0.34" stop-color="#F27369"/>
<stop offset="0.67" stop-color="#F26A5D"/>
<stop offset="1" stop-color="#F26859"/>
</linearGradient>
<linearGradient id="paint3_linear_182_135" x1="381.488" y1="199.172" x2="381.488" y2="181.813" gradientUnits="userSpaceOnUse">
<stop stop-color="#FEEADB"/>
<stop offset="0.99" stop-color="#B17EB7"/>
</linearGradient>
<linearGradient id="paint4_linear_182_135" x1="378.034" y1="198.734" x2="378.034" y2="185.273" gradientUnits="userSpaceOnUse">
<stop stop-color="#FEEADB"/>
<stop offset="0.99" stop-color="#B17EB7"/>
</linearGradient>
<linearGradient id="paint5_linear_182_135" x1="282.918" y1="209.363" x2="282.918" y2="175.89" gradientUnits="userSpaceOnUse">
<stop stop-color="#F4837E"/>
<stop offset="0.01" stop-color="#F3827D"/>
<stop offset="0.34" stop-color="#F27369"/>
<stop offset="0.67" stop-color="#F26A5D"/>
<stop offset="1" stop-color="#F26859"/>
</linearGradient>
<linearGradient id="paint6_linear_182_135" x1="282.25" y1="199.172" x2="282.25" y2="181.813" gradientUnits="userSpaceOnUse">
<stop stop-color="#FEEADB"/>
<stop offset="0.99" stop-color="#B17EB7"/>
</linearGradient>
<linearGradient id="paint7_linear_182_135" x1="285.717" y1="198.734" x2="285.717" y2="185.273" gradientUnits="userSpaceOnUse">
<stop stop-color="#FEEADB"/>
<stop offset="0.99" stop-color="#B17EB7"/>
</linearGradient>
<linearGradient id="paint8_linear_182_135" x1="332.172" y1="247.069" x2="332.172" y2="124.354" gradientUnits="userSpaceOnUse">
<stop stop-color="#F3797E"/>
<stop offset="0.11" stop-color="#F37C7A"/>
<stop offset="0.55" stop-color="#F5886E"/>
<stop offset="1" stop-color="#F68D6A"/>
</linearGradient>
<linearGradient id="paint9_linear_182_135" x1="322.953" y1="121.108" x2="355.578" y2="121.108" gradientUnits="userSpaceOnUse">
<stop stop-color="#33122B"/>
<stop offset="1" stop-color="#441B3E"/>
</linearGradient>
<linearGradient id="paint10_linear_182_135" x1="332.878" y1="182.453" x2="332.878" y2="109.006" gradientUnits="userSpaceOnUse">
<stop stop-color="#360F3A"/>
<stop offset="1" stop-color="#4C132E"/>
</linearGradient>
<linearGradient id="paint11_linear_182_135" x1="331.595" y1="126.288" x2="363.463" y2="126.288" gradientUnits="userSpaceOnUse">
<stop stop-color="#33122B"/>
<stop offset="1" stop-color="#441B3E"/>
</linearGradient>
<linearGradient id="paint12_linear_182_135" x1="325.727" y1="122.712" x2="344.678" y2="122.712" gradientUnits="userSpaceOnUse">
<stop stop-color="#33122B"/>
<stop offset="1" stop-color="#441B3E"/>
</linearGradient>
<linearGradient id="paint13_linear_182_135" x1="319.936" y1="122.891" x2="331.595" y2="122.891" gradientUnits="userSpaceOnUse">
<stop stop-color="#33122B"/>
<stop offset="1" stop-color="#441B3E"/>
</linearGradient>
<linearGradient id="paint14_linear_182_135" x1="285.295" y1="143.724" x2="292.061" y2="143.724" gradientUnits="userSpaceOnUse">
<stop stop-color="#33122B"/>
<stop offset="1" stop-color="#441B3E"/>
</linearGradient>
<linearGradient id="paint15_linear_182_135" x1="296.337" y1="132.671" x2="304.901" y2="132.671" gradientUnits="userSpaceOnUse">
<stop stop-color="#33122B"/>
<stop offset="1" stop-color="#441B3E"/>
</linearGradient>
<linearGradient id="paint16_linear_182_135" x1="343.458" y1="130.184" x2="370.896" y2="130.184" gradientUnits="userSpaceOnUse">
<stop stop-color="#33122B"/>
<stop offset="1" stop-color="#441B3E"/>
</linearGradient>
<linearGradient id="paint17_linear_182_135" x1="365.825" y1="140.992" x2="378.331" y2="140.992" gradientUnits="userSpaceOnUse">
<stop stop-color="#33122B"/>
<stop offset="1" stop-color="#441B3E"/>
</linearGradient>
<linearGradient id="paint18_linear_182_135" x1="290.841" y1="136.056" x2="296.414" y2="136.056" gradientUnits="userSpaceOnUse">
<stop stop-color="#33122B"/>
<stop offset="1" stop-color="#441B3E"/>
</linearGradient>
<linearGradient id="paint19_linear_182_135" x1="326.203" y1="640.776" x2="431.142" y2="640.776" gradientUnits="userSpaceOnUse">
<stop stop-color="#E9A792"/>
<stop offset="0.08" stop-color="#ECA78E"/>
<stop offset="0.51" stop-color="#F9AC81"/>
<stop offset="0.59" stop-color="#F8A57D"/>
<stop offset="0.79" stop-color="#F69977"/>
<stop offset="1" stop-color="#F69575"/>
</linearGradient>
<linearGradient id="paint20_linear_182_135" x1="127.996" y1="488.986" x2="154.099" y2="488.986" gradientUnits="userSpaceOnUse">
<stop stop-color="#E9A792"/>
<stop offset="0.08" stop-color="#ECA78E"/>
<stop offset="0.51" stop-color="#F9AC81"/>
<stop offset="0.59" stop-color="#F8A57D"/>
<stop offset="0.79" stop-color="#F69977"/>
<stop offset="1" stop-color="#F69575"/>
</linearGradient>
<linearGradient id="paint21_linear_182_135" x1="134.89" y1="503.538" x2="160.993" y2="503.538" gradientUnits="userSpaceOnUse">
<stop stop-color="#E9A792"/>
<stop offset="0.08" stop-color="#ECA78E"/>
<stop offset="0.51" stop-color="#F9AC81"/>
<stop offset="0.59" stop-color="#F8A57D"/>
<stop offset="0.79" stop-color="#F69977"/>
<stop offset="1" stop-color="#F69575"/>
</linearGradient>
<linearGradient id="paint22_linear_182_135" x1="138.1" y1="516.804" x2="164.216" y2="516.804" gradientUnits="userSpaceOnUse">
<stop stop-color="#E9A792"/>
<stop offset="0.08" stop-color="#ECA78E"/>
<stop offset="0.51" stop-color="#F9AC81"/>
<stop offset="0.59" stop-color="#F8A57D"/>
<stop offset="0.79" stop-color="#F69977"/>
<stop offset="1" stop-color="#F69575"/>
</linearGradient>
<linearGradient id="paint23_linear_182_135" x1="144.7" y1="530.934" x2="170.803" y2="530.934" gradientUnits="userSpaceOnUse">
<stop stop-color="#E9A792"/>
<stop offset="0.08" stop-color="#ECA78E"/>
<stop offset="0.51" stop-color="#F9AC81"/>
<stop offset="0.59" stop-color="#F8A57D"/>
<stop offset="0.79" stop-color="#F69977"/>
<stop offset="1" stop-color="#F69575"/>
</linearGradient>
<linearGradient id="paint24_linear_182_135" x1="127.996" y1="507.765" x2="152.828" y2="507.765" gradientUnits="userSpaceOnUse">
<stop stop-color="#E9A792"/>
<stop offset="0.08" stop-color="#ECA78E"/>
<stop offset="0.51" stop-color="#F9AC81"/>
<stop offset="0.59" stop-color="#F8A57D"/>
<stop offset="0.79" stop-color="#F69977"/>
<stop offset="1" stop-color="#F69575"/>
</linearGradient>
<linearGradient id="paint25_linear_182_135" x1="342.661" y1="168.018" x2="373.168" y2="168.018" gradientUnits="userSpaceOnUse">
<stop stop-color="#360F3A"/>
<stop offset="1" stop-color="#4C132E"/>
</linearGradient>
<linearGradient id="paint26_linear_182_135" x1="325.843" y1="168.018" x2="295.336" y2="168.018" gradientUnits="userSpaceOnUse">
<stop stop-color="#360F3A"/>
<stop offset="1" stop-color="#4C132E"/>
</linearGradient>
<linearGradient id="paint27_linear_182_135" x1="356.438" y1="186.427" x2="355.936" y2="178.224" gradientUnits="userSpaceOnUse">
<stop stop-color="#EDE1EF"/>
<stop offset="1" stop-color="#C0C7E6"/>
</linearGradient>
<linearGradient id="paint28_linear_182_135" x1="355.477" y1="186.623" x2="356.232" y2="176.78" gradientUnits="userSpaceOnUse">
<stop stop-color="#4C132E"/>
<stop offset="1" stop-color="#360F3A"/>
</linearGradient>
<linearGradient id="paint29_linear_182_135" x1="355.5" y1="186.328" x2="356.21" y2="177.073" gradientUnits="userSpaceOnUse">
<stop stop-color="#4C132E"/>
<stop offset="1" stop-color="#360F3A"/>
</linearGradient>
<linearGradient id="paint30_linear_182_135" x1="355.624" y1="184.706" x2="356.085" y2="178.698" gradientUnits="userSpaceOnUse">
<stop stop-color="#C9A8CF"/>
<stop offset="0.99" stop-color="#8361AA"/>
</linearGradient>
<linearGradient id="paint31_linear_182_135" x1="312.597" y1="186.408" x2="313.1" y2="178.206" gradientUnits="userSpaceOnUse">
<stop stop-color="#EDE1EF"/>
<stop offset="1" stop-color="#C0C7E6"/>
</linearGradient>
<linearGradient id="paint32_linear_182_135" x1="313.547" y1="186.607" x2="312.793" y2="176.777" gradientUnits="userSpaceOnUse">
<stop stop-color="#4C132E"/>
<stop offset="1" stop-color="#360F3A"/>
</linearGradient>
<linearGradient id="paint33_linear_182_135" x1="313.524" y1="186.312" x2="312.815" y2="177.058" gradientUnits="userSpaceOnUse">
<stop stop-color="#4C132E"/>
<stop offset="1" stop-color="#360F3A"/>
</linearGradient>
<linearGradient id="paint34_linear_182_135" x1="313.399" y1="184.691" x2="312.938" y2="178.683" gradientUnits="userSpaceOnUse">
<stop stop-color="#C9A8CF"/>
<stop offset="0.99" stop-color="#8361AA"/>
</linearGradient>
<linearGradient id="paint35_linear_182_135" x1="334.11" y1="206.671" x2="334.11" y2="193.992" gradientUnits="userSpaceOnUse">
<stop stop-color="#F3797E"/>
<stop offset="0.11" stop-color="#F37C7A"/>
<stop offset="0.55" stop-color="#F5886E"/>
<stop offset="1" stop-color="#F68D6A"/>
</linearGradient>
<linearGradient id="paint36_linear_182_135" x1="339.35" y1="204.824" x2="344.473" y2="204.824" gradientUnits="userSpaceOnUse">
<stop offset="0.02" stop-color="#7A55A3"/>
<stop offset="0.99" stop-color="#BD89BD"/>
</linearGradient>
<linearGradient id="paint37_linear_182_135" x1="323.274" y1="204.761" x2="328.217" y2="204.761" gradientUnits="userSpaceOnUse">
<stop offset="0.02" stop-color="#7A55A3"/>
<stop offset="0.99" stop-color="#BD89BD"/>
</linearGradient>
<linearGradient id="paint38_linear_182_135" x1="325.791" y1="203.557" x2="325.791" y2="196.506" gradientUnits="userSpaceOnUse">
<stop stop-color="#FEEADB"/>
<stop offset="0.99" stop-color="#B17EB7"/>
</linearGradient>
<linearGradient id="paint39_linear_182_135" x1="342.085" y1="203.555" x2="342.085" y2="196.376" gradientUnits="userSpaceOnUse">
<stop stop-color="#FEEADB"/>
<stop offset="0.99" stop-color="#B17EB7"/>
</linearGradient>
<linearGradient id="paint40_linear_182_135" x1="333.327" y1="231.658" x2="333.327" y2="218.133" gradientUnits="userSpaceOnUse">
<stop stop-color="#F8C0D8"/>
<stop offset="0.99" stop-color="#B17EB7"/>
</linearGradient>
</defs>
</svg>
