<svg width="590" height="591" viewBox="0 0 590 591" fill="none" xmlns="http://www.w3.org/2000/svg">
<path d="M401.347 90.4462C401.332 90.4079 401.305 90.375 401.271 90.3519C401.237 90.3288 401.197 90.3164 401.155 90.3164C401.114 90.3164 401.074 90.3288 401.04 90.3519C401.005 90.375 400.979 90.4079 400.964 90.4462C400.964 92.2752 398.309 93.3962 399.046 95.4612C399.371 96.3462 400.58 96.9657 401.259 96.0807C401.283 96.0371 401.296 95.9886 401.299 95.9388C401.301 95.889 401.292 95.8394 401.272 95.7938C401.252 95.7481 401.222 95.7077 401.184 95.6756C401.146 95.6435 401.1 95.6206 401.052 95.6087H400.728C399.312 95.6087 399.312 94.6057 400.905 92.6587C401.146 92.3502 401.312 91.9893 401.389 91.6051C401.466 91.2208 401.451 90.824 401.347 90.4462ZM407.601 87.4667C407.778 87.9387 408.545 87.7912 408.634 87.3192C408.633 86.3235 408.504 85.3321 408.25 84.3692C408.25 84.2597 408.207 84.1547 408.129 84.0772C408.052 83.9997 407.947 83.9562 407.837 83.9562C407.728 83.9562 407.623 83.9997 407.545 84.0772C407.468 84.1547 407.424 84.2597 407.424 84.3692C407.231 85.4008 407.291 86.4639 407.601 87.4667ZM394.149 85.1952C394.149 86.1097 394.149 87.9092 395.064 88.4697C395.107 88.4938 395.156 88.5076 395.206 88.5098C395.255 88.5121 395.305 88.503 395.351 88.483C395.396 88.463 395.437 88.4328 395.469 88.3947C395.501 88.3566 395.524 88.3116 395.536 88.2632C395.39 87.2657 395.173 86.2799 394.887 85.3132C394.828 84.7527 394.149 84.7232 394.149 85.1952ZM391.317 81.6257C391.262 81.7157 391.246 81.8238 391.27 81.9261C391.295 82.0285 391.36 82.1167 391.45 82.1715C391.54 82.2263 391.648 82.243 391.75 82.2181C391.853 82.1932 391.941 82.1287 391.996 82.0387C392.438 81.4487 394.946 79.7082 395.241 79.0887C395.279 79.0422 395.304 78.9859 395.312 78.926C395.32 78.8662 395.312 78.8053 395.287 78.7501C395.263 78.695 395.223 78.6477 395.173 78.6137C395.123 78.5797 395.065 78.5603 395.005 78.5577C393.382 78.5282 391.966 80.3572 391.317 81.6257ZM407.896 77.7612C409.371 77.9382 410.138 79.1182 410.846 80.2392C410.895 80.325 410.972 80.3918 411.063 80.429C411.155 80.4661 411.256 80.4716 411.351 80.4444C411.447 80.4173 411.53 80.3591 411.588 80.2791C411.646 80.1991 411.676 80.102 411.672 80.0032C411.672 78.0857 409.578 76.9057 407.837 76.8762C407.306 76.8467 407.336 77.7022 407.896 77.7612ZM437.396 177.501C443.739 177.117 449.963 175.318 456.306 174.757C456.807 174.757 456.807 173.902 456.306 173.961C449.904 174.526 443.566 175.661 437.367 177.353L437.396 177.501ZM406.864 178.769C407.336 178.769 407.129 177.973 406.657 178.032C400.079 179.064 393.471 180.244 386.922 181.483C386.745 181.483 386.922 181.808 386.922 181.808C393.618 180.893 400.285 179.92 406.864 178.769ZM309.573 346.919L262.55 314.174L253.641 329.013L316.269 370.431L368.72 273.346L353.616 266.266L309.573 346.919Z" fill="#16A085"/>
<path d="M389.193 230.836C388.397 228.83 388.013 229.096 385.889 228.653C382.379 227.886 378.839 227.208 375.299 226.5C364.325 224.287 353.557 220.6 342.849 217.65C332.021 214.746 321.438 210.998 311.195 206.44C308.245 205.142 305.531 203.873 302.817 202.339C301.195 201.395 297.832 198.445 296.032 198.563C295 198.563 295.501 198.563 294.321 199.566C292.109 201.631 289.955 203.667 287.625 205.466C278.509 212.568 268.809 218.884 258.626 224.346C242.97 233.838 226.665 242.217 209.833 249.421C209.716 249.453 209.613 249.522 209.538 249.618C209.464 249.714 209.422 249.831 209.42 249.952C207.91 267.468 209.548 285.112 214.258 302.049C218.655 319.129 223.943 335.967 230.1 352.494C241.074 382.496 257.446 410.373 281.666 431.348C306.947 453.266 328.866 457.101 329.072 456.895C337.942 450.143 346.07 442.469 353.321 434.003C370.125 415.259 383.219 393.496 391.907 369.87C397.205 355.151 400.528 339.796 401.79 324.204C403.442 303.554 400.492 283.169 396.922 262.726C395.495 251.85 392.904 241.159 389.193 230.836ZM396.981 348.836C392.987 368.265 385.414 386.781 374.65 403.441C347.539 443.384 328.984 455.744 328.689 455.951C301.295 446.667 277.38 429.256 260.131 406.037C251.984 395.324 244.983 383.785 239.245 371.61C232.921 357.411 227.492 342.829 222.99 327.95C218.092 313.75 214.295 299.192 211.633 284.408C210.34 276.55 209.738 268.594 209.833 260.631C209.833 258.743 210.187 250.542 210.158 250.572C210.453 250.07 232.135 240.807 241.28 235.615C253.7 228.417 266.562 221.75 278.48 213.608C283.7 210.157 288.632 206.29 293.23 202.044C294.882 200.51 295.531 199.714 297.773 200.628C299.336 201.248 308.599 206.528 311.844 207.856C324.877 213.351 338.309 217.848 352.023 221.308C359.192 223.343 366.36 225.674 373.647 227.208C378.262 227.929 382.832 228.913 387.335 230.158C389.016 231.22 392.379 244.642 393.235 248.182C394.828 255.498 396.008 262.932 397.276 270.248C401.731 296.562 402.94 322.611 396.981 348.895V348.836ZM193.667 109.473C193.623 109.523 193.593 109.583 193.582 109.648C193.57 109.713 193.577 109.78 193.602 109.842C193.626 109.903 193.667 109.957 193.721 109.996C193.774 110.035 193.837 110.058 193.903 110.063C194.443 109.996 194.945 109.75 195.329 109.365C195.714 108.981 195.959 108.479 196.027 107.939C196.027 107.438 194.228 105.225 193.933 104.222C193.915 104.17 193.881 104.125 193.836 104.093C193.791 104.061 193.737 104.044 193.682 104.044C193.627 104.044 193.573 104.061 193.528 104.093C193.483 104.125 193.449 104.17 193.431 104.222C193.166 105.078 195.172 107.497 195.054 108.146C194.936 108.795 194.11 109.031 193.667 109.473ZM199.095 99.9154C198.815 100.872 198.695 101.869 198.741 102.865C198.741 103.721 200.069 103.721 200.098 102.865C200.232 101.87 200.121 100.858 199.774 99.9154C199.741 99.8537 199.692 99.8019 199.633 99.7659C199.573 99.7298 199.504 99.7108 199.435 99.7108C199.365 99.7108 199.296 99.7298 199.236 99.7659C199.177 99.8019 199.128 99.8537 199.095 99.9154ZM187.089 99.8269C186.815 100.791 186.815 101.813 187.089 102.777C187.089 103.396 188.269 103.308 188.21 102.777C188.151 102.246 188.003 100.948 187.885 100.033C187.913 99.9278 187.897 99.8156 187.842 99.7216C187.786 99.6275 187.696 99.5593 187.59 99.5319C187.485 99.5045 187.373 99.5202 187.278 99.5756C187.184 99.6309 187.116 99.7213 187.089 99.8269ZM184.581 99.0009C185.053 98.3814 187.531 96.4344 187.885 95.8739C187.946 95.8156 187.985 95.7391 187.998 95.6561C188.01 95.5732 187.995 95.4884 187.955 95.4147C187.915 95.341 187.852 95.2826 187.775 95.2483C187.699 95.214 187.613 95.2058 187.531 95.2249C185.958 95.8037 184.64 96.9223 183.814 98.3814C183.49 98.8534 184.227 99.4139 184.581 99.0009ZM198.505 95.5789C199.578 96.1184 200.57 96.8034 201.455 97.6144C201.513 97.6734 201.587 97.7137 201.668 97.7301C201.749 97.7466 201.833 97.7384 201.909 97.7067C201.985 97.6749 202.05 97.621 202.096 97.552C202.141 97.483 202.165 97.402 202.163 97.3194C202.163 96.5524 199.213 94.8414 198.417 94.9004C198.345 94.93 198.284 94.9827 198.245 95.0502C198.206 95.1177 198.19 95.1963 198.2 95.2737C198.21 95.3511 198.246 95.423 198.301 95.4782C198.356 95.5334 198.428 95.5688 198.505 95.5789ZM184.758 114.164H184.493C184.493 116.052 188.682 119.887 194.257 117.497C194.523 117.497 194.257 116.937 194.051 117.025C192.411 117.707 190.585 117.795 188.888 117.272C187.191 116.749 185.73 115.65 184.758 114.164ZM71.7438 363.35C61.9793 364.324 51.9788 362.79 42.2438 363.999C42.2438 363.999 42.0373 364.176 42.0373 364.265C41.2653 372.31 41.4237 380.417 42.5093 388.425C42.5154 388.498 42.5395 388.569 42.5795 388.63C42.6195 388.692 42.6741 388.742 42.7384 388.777C42.8028 388.812 42.8748 388.831 42.9481 388.831C43.0214 388.832 43.0936 388.814 43.1583 388.779C52.6573 389.281 62.5988 388.956 72.1273 388.514C72.3928 388.514 72.5108 387.924 72.5108 387.865C72.7965 379.809 72.639 371.743 72.0388 363.704C72.0429 363.662 72.0385 363.619 72.0258 363.578C72.0131 363.537 71.9925 363.499 71.9651 363.466C71.9377 363.433 71.904 363.406 71.866 363.386C71.828 363.366 71.7865 363.354 71.7438 363.35ZM43.1288 371.876C43.1288 369.398 43.1288 366.92 42.9518 364.412C52.2895 364.892 61.6472 364.823 70.9768 364.206C70.7455 367.081 70.6766 369.967 70.7703 372.849C61.5793 372.055 52.3519 371.759 43.1288 371.964V371.876ZM43.7483 387.776C43.3058 382.85 43.2468 377.953 43.1878 373.026C47.5538 373.026 52.0378 373.203 56.2858 373.321C55.931 377.958 56.1989 382.621 57.0823 387.186C52.6262 386.997 48.1622 387.224 43.7483 387.865V387.776ZM58.4983 387.275C58.4983 384.649 57.8198 375.268 57.4363 373.233C61.8318 373.233 70.7408 373.97 70.7703 373.97C70.7703 378.454 71.2128 382.968 71.3013 387.393C67.2008 387.688 62.8643 387.481 58.5868 387.363L58.4983 387.275Z" fill="#2C3E50"/>
<path d="M573.244 383.115C572.635 379.054 570.632 375.331 567.58 372.584C563.892 369.781 558.995 370.253 554.659 370.401C548.169 370.607 534.805 371.876 534.805 371.846C532.563 365.563 530.587 359.132 527.991 353.025C526.207 347.827 522.488 343.516 517.607 340.989C512.828 338.924 490.408 340.517 480.024 341.461C487.841 315.619 488.254 279.895 488.254 272.992C489.337 272.263 490.269 271.331 490.998 270.248C493.328 266.384 491.706 260.425 491.352 256.265C490.349 244.967 489.729 233.491 488.136 222.252C491.15 219.186 493.785 215.769 495.983 212.074C503.122 200.068 503.152 186.704 499.848 173.4C496.544 160.095 487.222 149.8 476.749 140.773C466.347 131.325 453.423 125.104 439.55 122.866C438.123 120.373 436.474 118.013 434.623 115.816L432.027 117.32C432.027 113.338 430.375 96.2866 430.375 96.2866C432.794 95.6376 437.573 88.6461 438.311 83.5131C438.664 78.512 437.79 73.5003 435.764 68.9141C433.738 64.328 430.623 60.3063 426.688 57.1991C415.773 48.3491 394.238 52.5086 389.488 56.1076C388.184 57.1374 386.676 57.88 385.065 58.2867C383.453 58.6934 381.774 58.755 380.137 58.4676C380.137 58.4676 384.09 62.4206 381.671 63.1581C379.252 63.8956 377.6 59.8836 377.6 59.8836C377.039 67.9076 380.255 69.9136 380.255 69.9136C390.845 81.3006 398.84 72.1851 398.84 72.1851C398.84 72.1851 399.931 68.6451 411.318 71.2116C412.785 71.4208 414.19 71.9379 415.443 72.7289C416.695 73.5199 417.766 74.5669 418.585 75.8011C419.404 77.0353 419.953 78.4288 420.195 79.8902C420.438 81.3515 420.368 82.8476 419.991 84.2801L421.437 84.8701C421.98 84.0802 422.592 83.3398 423.266 82.6576C429.697 78.2031 431.349 84.9586 431.349 84.9586C432.647 90.4456 425.891 92.0386 425.891 92.0386C426.068 99.6496 424.682 100.889 424.682 100.889C419.195 107.467 413.619 100.328 413.619 100.328C412.388 98.9091 410.835 97.8048 409.09 97.1069C407.346 96.4091 405.46 96.138 403.589 96.3161C396.627 96.6111 397.689 98.8236 394.739 100.977C392.881 102.334 390.993 100.8 389.842 99.5316C389.842 97.0241 388.839 87.2006 388.279 84.7816V76.1971C386.213 75.5935 384.328 74.4889 382.792 72.9816C379.842 81.8316 386.125 84.5456 387.866 85.1651C388.072 87.8496 387.099 108.293 390.816 115.963C391.81 118.096 393.316 119.95 395.2 121.36C397.084 122.77 399.287 123.693 401.613 124.046C401.288 125.787 400.964 128.678 400.905 129.474C393.648 130.536 387.777 135.197 382.143 139.593C375.382 144.758 369.112 150.535 363.41 156.85C353.139 167.997 346.458 181.976 344.235 196.97L334.117 194.02C334.263 193.372 334.332 192.708 334.323 192.044C334.314 190.857 333.948 189.7 333.271 188.725C332.594 187.749 331.639 187.001 330.53 186.577C329.421 186.153 328.21 186.074 327.055 186.349C325.901 186.624 324.856 187.242 324.057 188.12C323.475 188.927 323.055 189.838 322.818 190.805C322.818 190.805 305.885 183.312 297.419 179.683C295.622 178.519 293.436 178.116 291.342 178.562C288.101 180.296 285.227 182.64 282.875 185.465V185.288C279.925 181.66 273.435 181.955 272.491 187.235C272.308 188.776 272.553 190.338 273.199 191.749C271.724 192.84 270.249 193.991 268.538 195.112C264.408 184.905 260.485 174.255 253.788 165.612C248.223 158.211 241.511 151.748 233.905 146.466C223.472 139.033 210.897 135.211 198.092 135.581L197.325 133.722C197.325 132.513 197.089 131.303 196.942 130.123C206.529 130.92 211.515 116.494 211.515 116.494C211.853 118.986 211.6 121.522 210.777 123.899C210.777 123.899 220.512 109.916 214.76 86.6991C209.007 63.4826 188.21 68.3501 188.21 68.3501C163.518 54.0426 150.686 79.6781 150.686 79.6781C135.641 116.081 162.486 131.303 162.486 131.303C159.89 129.356 160.716 124.99 160.716 124.99C162.063 126.893 163.825 128.463 165.87 129.583C167.915 130.702 170.187 131.341 172.516 131.451C172.516 132.365 172.191 133.368 172.103 134.401L171.483 136.584C145.789 145.64 123.162 162.308 114.342 189.035C110.153 201.69 109.887 214.847 116.259 226.854C121.613 236.598 130.438 243.97 140.98 247.504C140.853 249.232 141.124 250.966 141.774 252.572C142.424 254.178 143.434 255.613 144.727 256.767C142.721 257.681 137.558 261.398 134.608 276.148C133.399 282.225 131.157 292.845 128.708 304.38C115.817 294.291 96.8779 278.892 96.5829 279.128C68.9119 301.4 14.8974 348.364 14.8974 348.423C14.8386 348.471 14.7954 348.536 14.7734 348.609C14.7513 348.681 14.7513 348.759 14.7735 348.832C14.7956 348.904 14.8388 348.969 14.8976 349.017C14.9565 349.065 15.0283 349.094 15.1039 349.102C19.5584 349.485 23.9539 349.751 28.5264 349.898C28.5264 377.304 30.8274 432.498 30.9454 432.498H20.6499C20.4436 437.127 20.6212 441.764 21.1809 446.363C41.5359 446.363 118.206 445.832 145.494 445.301C146.379 458.311 147.47 473.946 147.47 473.946C145.671 474.654 137.942 479.256 135.523 480.318C132.278 481.734 129.623 483.474 130.036 487.398C130.174 487.552 130.345 487.673 130.537 487.752C141.17 488.549 151.859 488.134 162.397 486.513C162.631 486.437 162.83 486.28 162.958 486.07C163.799 483.09 163.799 479.935 162.958 476.955L176.144 422.085C178.091 414.326 185.26 383.381 187.03 375.74C194.463 375.695 201.889 375.242 209.273 374.383C212.223 383.41 220.483 417.925 223.787 425.3C227.091 432.675 227.445 435.714 227.504 435.743C235.911 438.103 242.873 441.083 252.962 432.793C253.052 432.703 253.174 432.653 253.302 432.653C253.429 432.653 253.551 432.703 253.641 432.793C253.731 432.883 253.781 433.005 253.781 433.132C253.781 433.26 253.731 433.382 253.641 433.472C247.564 439.991 234.731 440.847 227.415 435.95L240.248 473.68C239.442 477.453 239.442 481.353 240.248 485.126C240.248 485.362 259.541 485.126 269.01 484.861C269.305 484.861 269.541 484.271 269.541 484.212C269.627 482.745 269.271 481.286 268.519 480.024C267.767 478.762 266.653 477.755 265.323 477.132C263.612 476.158 255.912 472.471 253.847 471.438V427.66C257.53 432.51 261.584 437.066 265.972 441.289C276.06 450.453 286.917 458.734 298.422 466.04C308.747 472.972 319.632 479.846 331.639 483.415C331.875 483.415 363.381 463.178 380.107 438.251V449.608C381.437 450.979 383.091 451.994 384.916 452.558C385.153 455.006 385.527 457.439 386.037 459.845C381.73 462.795 375.092 467.279 373.971 472.648C373.831 473.141 373.796 473.658 373.867 474.166C373.938 474.674 374.114 475.162 374.384 475.598C372.85 482.943 389.4 481.498 392.94 481.026C397.542 480.406 413.59 479.492 410.876 471.261C410.876 471.261 411.731 460.936 408.84 459.137C409.105 456.754 409.105 454.35 408.84 451.968C412.97 451.083 415.861 450.198 415.861 450.198L419.519 358.748C426.334 393.853 454.064 452.912 454.064 452.912C456.194 453.222 458.343 453.38 460.495 453.384C461.329 455.422 462.315 457.394 463.445 459.284C461.173 461.438 449.55 472.53 455.804 476.335C457.161 483.592 468.578 479.551 472.796 477.751C475.451 476.63 491.558 468.901 486.455 464.683C486.455 464.683 482.649 455.508 481.351 455.007C481.098 452.593 480.563 450.217 479.758 447.927C481.281 446.971 482.695 445.854 483.977 444.593C483.977 444.593 481.027 427.572 478.077 410.462C493.536 410.907 509.005 409.989 524.303 407.718C524.51 407.718 524.657 407.423 524.687 407.217C524.687 403.264 524.952 399.075 528.02 396.184C530.766 393.946 534.052 392.471 537.549 391.906C546.871 389.9 550.883 396.154 553.243 404.031C553.243 404.237 567.845 403.352 574.925 403.618C575.309 403.618 575.456 402.792 575.456 402.703C575.415 396.114 574.673 389.548 573.244 383.115ZM401.2 70.3856C397.247 72.6571 392.202 69.2646 390.993 65.4001C390.993 65.1936 391.229 65.0461 391.347 65.2526C392.291 66.9636 396.067 71.3296 400.964 69.5301C401.2 69.3826 401.524 70.1791 401.2 70.3856ZM471.616 137.941C481.941 145.788 492.797 155.818 497.281 168.267C501.765 180.716 503.004 196.203 496.839 208.505C490.874 219.624 481.451 228.498 469.994 233.786C456.878 239.819 442.599 242.9 428.163 242.813C428.087 242.784 428.003 242.784 427.927 242.813C425.169 237.214 421.931 231.865 418.251 226.824C434.805 216.256 451.91 206.576 469.492 197.826C469.562 197.784 469.616 197.722 469.648 197.648C469.68 197.574 469.687 197.491 469.669 197.413C467.869 191.341 466.673 185.105 466.1 178.798C466.1 178.533 465.657 178.503 465.657 178.798C465.795 183.841 466.467 188.854 467.663 193.755C468.253 196.292 469.669 196.705 467.486 197.973C463.238 200.186 435.538 214.906 426.186 220.629C425.773 215.614 424.387 192.309 424.446 192.25C428.487 185.495 443.798 157.647 448.046 150.95C448.079 150.917 448.105 150.878 448.123 150.835C448.141 150.792 448.15 150.746 448.15 150.699C448.15 150.653 448.141 150.607 448.123 150.564C448.105 150.521 448.079 150.482 448.046 150.449C446.257 147.534 444.106 144.858 441.644 142.484C444.931 139.922 448.493 137.736 452.264 135.964C452.589 135.964 452.972 135.699 452.736 135.345C450.322 131.46 447.493 127.85 444.299 124.577C454.206 127.09 463.479 131.642 471.528 137.941H471.616ZM411.436 240.424C405.861 245.409 405.536 242.548 405.389 241.633C407.458 240.533 409.373 239.164 411.082 237.562C411.082 237.562 410.905 237.09 410.758 237.208C409.548 238.034 402.793 243.728 402.793 240.335C404.989 237.611 407.527 235.182 410.345 233.108C409.932 232.311 408.457 233.108 408.073 228.181C409.932 229.589 412.202 230.345 414.534 230.335C415.932 230.407 417.319 230.057 418.516 229.332C419.592 231.573 420.814 233.741 422.174 235.822C420.316 237.608 418.346 239.273 416.274 240.807C414.416 242.105 410.374 245.321 408.014 243.757C409.375 242.859 410.676 241.874 411.908 240.807C411.967 240.63 411.525 240.276 411.348 240.424H411.436ZM443.532 124.4C444.624 126.2 450.553 133.516 452.058 135.581C447.979 136.906 444.317 139.275 441.438 142.454L447.633 150.567C439.786 164.048 430.552 177.117 424.416 191.601C426.563 168.862 431.233 146.431 438.34 124.725L439.402 123.604L443.532 124.4ZM434.476 116.494C435.685 118.795 437.426 120.742 438.694 123.102C434.741 127.232 430.375 130.831 426.216 134.902C424.656 131.317 422.675 127.931 420.316 124.813C425.346 122.629 430.099 119.857 434.476 116.553V116.494ZM418.015 123.073C427.307 121.037 429.638 109.178 430.228 101.921C430.228 103.396 430.818 113.721 431.26 117.438C431.244 117.506 431.244 117.577 431.26 117.645L419.785 124.4C418.514 126.73 417.429 129.157 416.54 131.657C415.545 129.028 414.362 126.475 413 124.017C414.681 123.81 416.304 123.515 418.015 123.132V123.073ZM416.156 132.985C416.145 133.047 416.145 133.11 416.158 133.172C416.171 133.234 416.196 133.292 416.232 133.344C416.268 133.396 416.313 133.441 416.366 133.475C416.419 133.51 416.478 133.533 416.54 133.545C416.602 133.557 416.666 133.556 416.727 133.543C416.789 133.53 416.848 133.505 416.9 133.469C416.952 133.434 416.996 133.388 417.031 133.336C417.065 133.283 417.089 133.224 417.1 133.162C417.985 130.477 419.283 127.881 420.05 125.197C421.69 128.797 423.665 132.234 425.95 135.463C430.024 132.534 433.862 129.289 437.426 125.757C427.72 147.204 424.062 177.884 423.502 187.973C421.142 179.123 410.61 143.074 406.716 134.312C407.708 134.931 408.828 135.315 409.991 135.433C410.728 134.165 412.115 126.377 412.941 124.223C413 124.666 415.478 131.303 416.156 133.044V132.985ZM402.498 107.438C403.138 107.627 403.81 107.679 404.472 107.593C405.133 107.506 405.769 107.282 406.339 106.935C406.909 106.587 407.399 106.124 407.779 105.576C408.159 105.027 408.42 104.406 408.545 103.75C408.545 103.367 409.342 103.573 409.283 103.957C408.427 109.355 403.383 108.942 402.409 107.644C402.35 107.615 402.409 107.497 402.498 107.497V107.438ZM402.321 124.135C405.676 124.619 409.084 124.619 412.439 124.135C411.09 127.511 410.024 130.994 409.253 134.548C408.368 133.958 403.176 130.949 401.583 129.887C401.613 129.828 402.203 126.259 402.321 124.194V124.135ZM401.2 130.3C402.584 131.596 404.107 132.734 405.743 133.693C408.309 143.516 420.493 180.716 422.882 189.743C419.195 184.492 399.518 163.193 394.592 156.88C396.017 153.706 397.239 150.444 398.25 147.115C395.668 146.114 392.988 145.382 390.255 144.932C393.215 140.719 395.568 136.111 397.247 131.244C398.456 130.831 401.2 130.3 401.2 130.3ZM344.884 197.029C347.49 182.292 354.115 168.562 364.03 157.352C368.785 152.004 373.986 147.069 379.576 142.602C384.582 137.966 390.324 134.198 396.568 131.451C394.002 135.846 391.553 141.097 388.751 145.404C388.515 145.788 394.857 146.997 397.394 147.882C396.834 148.826 394.297 155.375 393.559 157.145C393.559 157.352 418.929 185.76 423.561 192.28C423.177 196.823 425.803 220.954 425.832 220.983C423.089 222.665 420.168 224.582 417.543 226.411C417.307 226.411 418.192 227.975 418.457 228.535C417.365 229.08 416.167 229.382 414.947 229.42C415.271 223.137 414.711 215.85 409.342 211.72C406.985 210.025 404.211 209.005 401.318 208.77C396.627 208.18 391.937 207.915 387.246 207.236C385.24 206.941 383.205 206.587 381.199 206.204V206.027C379.569 197.008 378.936 187.837 379.311 178.68C379.311 178.444 378.927 178.356 378.868 178.68C377.78 187.824 378.219 197.085 380.166 206.086C368.16 203.814 356.566 200.392 344.766 197L344.884 197.029ZM323.497 191.129C323.776 189.734 324.565 188.493 325.709 187.648C326.604 187.075 327.657 186.8 328.717 186.864C329.777 186.927 330.79 187.326 331.609 188.002C332.508 188.772 333.154 189.794 333.465 190.935C333.775 192.077 333.735 193.285 333.35 194.404C332.937 195.79 330.724 199.891 328.954 196.616C329.061 196.377 329.149 196.131 329.22 195.879C329.508 194.604 329.724 193.313 329.869 192.014C329.515 193.194 329.308 194.463 328.895 195.613C328.803 195.978 328.635 196.32 328.401 196.615C328.167 196.91 327.873 197.151 327.538 197.324C326.594 197.649 325.886 196.911 325.532 196.115C326.102 194.345 326.449 192.512 326.565 190.657C326.396 192.603 325.876 194.502 325.031 196.262C324.441 197.324 323.32 197.442 322.936 196.262C322.863 195.862 322.863 195.452 322.936 195.053C322.977 193.718 323.165 192.393 323.497 191.1V191.129ZM281.666 185.229C281.931 185.495 282.167 185.79 282.433 186.114C282.435 186.159 282.45 186.202 282.477 186.239C282.503 186.275 282.539 186.304 282.58 186.321C283.198 187.109 283.676 187.997 283.996 188.946C284.38 190.126 285.176 193.047 282.728 191.896C281.989 190.851 281.17 189.865 280.279 188.946C280.102 188.946 280.279 188.946 280.279 188.946C280.81 189.89 285.029 195.702 280.279 194.404C279.827 193.035 279.104 191.771 278.155 190.687C278.103 190.65 278.04 190.631 277.977 190.633C277.913 190.635 277.851 190.657 277.801 190.697C277.751 190.737 277.716 190.792 277.7 190.854C277.684 190.916 277.688 190.982 277.713 191.041C278.303 192.398 281.607 197.472 277.713 196.115C275.496 194.806 273.868 192.693 273.17 190.215C272.717 189.106 272.678 187.872 273.061 186.738C273.443 185.604 274.22 184.645 275.251 184.036C276.282 183.428 277.497 183.21 278.675 183.424C279.853 183.638 280.914 184.268 281.666 185.2V185.229ZM167.117 119.975C168.54 119.971 169.948 120.256 171.257 120.814C172.565 121.372 173.747 122.191 174.728 123.22C174.197 118.972 167.766 112.925 167.766 112.925C160.244 113.102 161.866 105.668 161.866 105.668C162.206 104.884 162.73 104.194 163.393 103.656C164.056 103.118 164.839 102.748 165.676 102.577C166.513 102.407 167.378 102.44 168.199 102.675C169.02 102.91 169.772 103.34 170.392 103.927C170.392 104.842 171.985 109.031 174.286 109.208C176.587 109.385 175.761 111.804 175.761 111.804C175.761 111.804 177.472 109.591 175.761 108.352C174.05 107.113 173.902 103.898 173.902 103.898C183.578 103.013 190.393 79.7371 190.393 79.7371C192.871 92.6286 206.854 92.8646 206.854 92.8646C206.877 100.516 206.424 108.161 205.497 115.757C205.095 118.057 203.937 120.156 202.205 121.723C200.473 123.289 198.268 124.231 195.939 124.4C195.939 124.4 195.939 132.129 196.352 134.283C193.138 137.056 189.033 138.582 184.788 138.582C180.542 138.582 176.438 137.056 173.224 134.283V131.333C174.593 131.428 175.969 131.369 177.324 131.156C169.064 129.533 167.117 119.975 167.117 119.975ZM171.66 137.233C174.61 142.72 191.337 146.083 198.21 136.112C201.462 136.133 204.707 136.409 207.916 136.938C205.644 160.331 171.041 161.157 162.81 141.127C165.672 139.77 168.651 138.501 171.66 137.233ZM119.858 230.6C104.076 207.708 115.758 176.881 134.195 159.24C142.327 151.799 151.677 145.812 161.837 141.54C165.2 152.248 178.563 157.617 189.095 156.29C194.098 155.819 198.792 153.657 202.401 150.161C206.01 146.664 208.32 142.041 208.948 137.056C217.39 138.53 225.429 141.755 232.548 146.525C240.041 151.582 246.674 157.806 252.195 164.963C259.334 174.019 263.376 184.993 267.624 195.643C260.514 200.569 252.166 205.732 243.611 210.57C242.136 209.449 238.773 206.469 238.094 205.85C238.319 197.111 236.459 188.444 232.666 180.568H232.371C238.448 195.584 236.767 208.151 237.032 214.051C221.456 222.429 206.411 229.125 198.682 230.777C198.682 230.777 198.682 230.335 198.446 230.276C186.086 226.175 149.24 213.048 149.181 213.048C149.944 208.112 150.446 203.139 150.686 198.15C150.686 198.15 150.45 198.15 150.45 198.327C149.181 203.195 149.004 208.475 148.208 213.461C148.193 213.551 148.204 213.644 148.241 213.727C148.278 213.811 148.338 213.882 148.414 213.933C164.462 220.865 181.395 225.733 198.033 231.013C198.424 236.639 198.167 242.291 197.266 247.858C171.1 250.247 137.263 255.823 119.858 230.6ZM242.696 211.101C241.044 212.045 239.363 212.959 237.711 213.844C237.888 211.632 238.006 209.301 238.035 206.912C239.438 208.467 241 209.871 242.696 211.101ZM199.007 235.202C199.987 235.618 201.04 235.832 202.104 235.832C203.169 235.832 204.222 235.618 205.202 235.202C207.385 234.052 208.476 231.662 210.453 230.217C210.583 231.829 210.144 233.436 209.214 234.76C209.007 235.025 209.214 235.35 209.627 235.32C211.633 235.615 215.792 234.819 217.238 235.999C219.273 237.621 212.016 238.329 210.158 238.565C209.863 238.565 209.951 239.037 210.158 239.067C212.453 239.053 214.731 238.685 216.913 237.975C218.654 242.4 211.308 241.397 209.922 241.899C209.863 241.918 209.811 241.956 209.775 242.006C209.739 242.056 209.719 242.117 209.719 242.179C209.719 242.241 209.739 242.302 209.775 242.352C209.811 242.402 209.863 242.44 209.922 242.459C211.641 242.577 213.368 242.458 215.055 242.105C216.618 245.793 202.193 248.684 198.564 243.787C198.966 240.944 199.114 238.071 199.007 235.202ZM153.96 289.6C153.96 289.423 154.344 289.6 154.314 289.6C153.577 300.81 146.497 346.417 144.343 357.952C144.343 358.276 143.812 358.129 143.871 357.952C145.405 346.565 151.718 300.928 153.96 289.6ZM130.508 364.324C133.59 365.869 136.762 367.228 140.007 368.395C140.007 369.25 140.184 370.43 140.272 371.758C132.956 371.05 125.994 372.495 118.708 371.994C118.708 369.368 118.501 364.53 118.501 364.53C120.478 364.471 126.053 364.353 130.508 364.412V364.324ZM132.661 372.82H140.125C140.39 376.389 140.685 381.286 140.98 386.537C138.362 386.169 135.712 386.08 133.074 386.272C133.216 381.815 133.108 377.353 132.75 372.908L132.661 372.82ZM131.924 386.242C131.599 386.242 123.074 386.242 119.209 386.419C119.209 382.879 118.708 373.911 118.708 372.967C123.069 373.26 127.445 373.26 131.806 372.967C131.282 377.409 131.322 381.899 131.924 386.331V386.242ZM17.2279 348.364C43.7779 325.177 69.5019 303.17 96.6419 280.514C106.701 289.364 117.793 297.27 128.59 305.324C125.257 320.811 121.599 337.774 119.475 347.538C92.3054 348.01 33.8364 348.6 17.2279 348.364ZM22.2429 445.508C22.4306 441.382 22.1735 437.248 21.4759 433.177C31.3584 434.357 120.183 433.354 144.55 432.97C144.727 435.92 145.022 439.903 145.317 444.269C118 444.269 42.3619 444.977 22.2429 445.508ZM89.7389 405.801C95.1369 405.378 100.557 405.309 105.964 405.594C105.964 405.594 105.964 427.66 106.436 432.439L90.2994 432.705C90.0634 423.471 90.2994 414.975 89.7389 405.801ZM162.132 485.451C145.73 488.253 136.024 486.631 130.862 486.955C130.655 485.628 132.838 482.589 133.812 481.852C134.785 481.114 147.5 475.037 147.5 475.037C151.482 482.265 159.713 478.784 162.25 477.515C162.915 480.158 162.915 482.925 162.25 485.569L162.132 485.451ZM172.486 433.619C162.338 438.074 152.279 435.271 144.225 428.044L144.461 431.702L107.527 432.292C107.964 423.081 107.697 413.85 106.731 404.68C106.731 404.68 94.2229 402.998 88.6474 404.473C88.4704 404.473 88.7949 423.353 89.0309 432.587L32.9809 432.38C32.9809 432.38 31.9779 377.186 30.4144 349.78C42.9814 350.164 93.6919 349.19 119.327 348.659L117.764 355.828C120.955 358.795 124.526 361.325 128.384 363.35C124.898 362.983 121.375 363.223 117.97 364.058C117.952 364.126 117.952 364.197 117.97 364.265C117.351 371.928 117.47 379.634 118.324 387.275C118.324 387.275 118.531 387.629 118.678 387.629C122.336 387.865 137.057 387.186 141.364 387.806C142.042 399.989 142.839 413.766 143.606 418.486C143.606 418.486 144.461 427.719 144.609 427.808C148.768 430.758 159.034 438.988 172.339 433.118C172.604 432.911 172.87 433.59 172.486 433.737V433.619ZM174.994 422.173C162.25 425.3 148.09 419.872 144.55 418.279C143.37 409.665 142.662 376.419 140.862 368.749C155.355 373.605 170.567 375.969 185.85 375.74C183.549 383.115 176.616 414.297 174.994 422.35V422.173ZM170.628 321.873C170.649 321.807 170.69 321.749 170.745 321.708C170.801 321.667 170.868 321.645 170.938 321.645C171.007 321.645 171.074 321.667 171.13 321.708C171.186 321.749 171.227 321.807 171.247 321.873C171.247 332.021 171.572 342.199 171.247 352.347C171.247 352.642 170.775 352.642 170.746 352.347C170.303 342.346 170.598 332.169 170.628 322.05V321.873ZM193.136 258.979C186.528 259.333 154.786 260.808 145.671 256.324H145.523C143.201 253.934 141.801 250.799 141.57 247.474C142.809 247.917 144.107 248.3 145.376 248.654C161.276 252.814 177.826 250.365 193.844 248.92C193.392 252.303 193.155 255.713 193.136 259.127V258.979ZM224.908 425.625C221.958 417.158 213.344 382.319 209.774 374.147C212.724 373.793 219.008 372.702 221.22 372.318C224.17 378.484 227.71 384.443 230.955 390.431C234.2 396.42 237.652 402.851 241.221 408.898C244.171 413.766 247.121 418.545 250.396 423.147C240.513 430.079 228.802 427.07 224.908 425.772V425.625ZM267.712 483.533C258.361 483.74 250.927 484.477 241.162 483.946C240.469 480.717 240.359 477.39 240.838 474.123C249.983 481.704 253.641 471.851 253.641 471.851C255.676 473.739 267.624 479.256 267.712 483.681V483.533ZM385.358 452.558C391.996 454.505 401.347 453.237 407.896 451.88C407.601 454.328 409.519 463.149 398.692 464.388C385.181 466.128 385.948 455.007 385.358 452.706V452.558ZM394.444 479.433C390.698 480.052 375.83 482.383 374.797 476.099C375.917 476.849 377.226 477.269 378.573 477.309C383.706 477.722 408.398 473.238 409.784 471.586C411.348 478.105 398.486 478.931 394.444 479.58V479.433ZM409.784 470.937C408.221 472.382 387.925 475.981 383.736 476.306C379.547 476.63 372.172 477.279 375.269 470.878C375.921 469.592 376.744 468.401 377.718 467.338C378.937 468.545 380.228 469.677 381.582 470.73C381.936 470.966 382.29 470.553 382.113 470.199C381.188 468.709 379.858 467.512 378.278 466.748C379.134 465.863 380.107 464.978 381.081 464.152C381.671 464.624 383.765 466.925 384.414 467.308C384.481 467.347 384.558 467.365 384.635 467.36C384.712 467.354 384.785 467.326 384.846 467.278C384.906 467.23 384.951 467.165 384.974 467.092C384.997 467.018 384.997 466.939 384.975 466.866C384.321 465.433 383.197 464.267 381.789 463.562L383.942 461.821C385.506 462.824 386.892 464.063 388.426 465.125C388.633 465.125 388.898 465.125 388.751 464.83C387.588 463.375 386.117 462.197 384.444 461.379C385.028 460.902 385.639 460.459 386.273 460.051C387.578 461.755 389.261 463.132 391.19 464.074C393.119 465.015 395.241 465.495 397.387 465.475C399.533 465.455 401.645 464.935 403.556 463.958C405.468 462.981 407.125 461.573 408.398 459.845C410.522 462.087 409.784 469.167 409.784 471.084V470.937ZM414.947 352.317C412.705 380.549 379.842 435.33 379.842 435.33V436.038C362.85 460.7 340.282 475.45 331.521 482.501C319.19 478.813 308.098 471.645 297.507 464.506C286.111 457.208 275.399 448.894 265.5 439.667C256.081 430.037 248.004 419.182 241.487 407.394C234.643 395.594 228.861 383.263 221.722 371.728C218.772 365.415 195.555 312.256 194.346 259.068C194.615 255.731 194.665 252.381 194.493 249.038L197.266 248.802C197.45 248.685 197.586 248.508 197.65 248.3C197.982 247.098 198.238 245.876 198.417 244.642C199.991 245.741 201.79 246.475 203.683 246.791C205.576 247.108 207.516 246.998 209.361 246.471C211.515 245.999 216.825 244.996 215.733 241.722C216.068 241.596 216.386 241.427 216.677 241.22C216.985 241.063 217.25 240.833 217.449 240.55C217.648 240.267 217.775 239.94 217.818 239.597C217.862 239.253 217.821 238.905 217.699 238.581C217.578 238.258 217.379 237.968 217.12 237.739C218.182 237.208 218.654 236.471 217.828 235.438C217.385 235.07 216.871 234.798 216.317 234.641C215.763 234.484 215.183 234.444 214.612 234.524C213.034 234.503 211.456 234.602 209.892 234.819C210.954 233.344 211.515 228.27 210.069 229.155C208.746 230.178 207.592 231.402 206.647 232.783C204.435 235.32 201.868 235.055 198.859 234.583C198.859 233.55 198.859 232.518 198.594 231.633C204.533 230.88 210.294 229.093 215.615 226.352C222.518 223.402 256.001 207.974 273.465 192.752C273.922 193.783 274.588 194.709 275.421 195.471C276.253 196.232 277.235 196.813 278.303 197.177C280.25 197.619 280.604 196.498 280.309 195.082C280.519 195.234 280.763 195.334 281.02 195.372C281.276 195.411 281.538 195.387 281.784 195.303C282.03 195.22 282.252 195.078 282.431 194.891C282.611 194.703 282.743 194.476 282.816 194.227C283.037 193.617 283.037 192.949 282.816 192.339C283.878 192.899 284.645 192.988 284.97 191.719C285.078 190.69 284.977 189.651 284.673 188.662C284.369 187.673 283.868 186.757 283.2 185.967C285.294 184.315 287.241 182.515 289.306 180.834C293.525 177.471 298.687 181.394 302.906 183.194C309.337 185.967 322.494 191.601 322.582 191.483C322.395 192.27 322.257 193.068 322.169 193.873C322.169 194.964 321.55 197.059 322.966 197.619C323.88 197.973 324.559 197.442 325.031 196.557C325.116 196.851 325.269 197.121 325.476 197.346C325.684 197.57 325.941 197.744 326.227 197.853C326.513 197.961 326.82 198.002 327.124 197.972C327.429 197.941 327.722 197.841 327.981 197.678C328.204 197.533 328.403 197.354 328.571 197.147C329.367 198.445 330.842 199.153 332.052 197.973C333.01 197.052 333.703 195.891 334.058 194.61C349.057 199.852 364.418 203.993 380.019 207C387.423 208.387 394.975 208.652 402.38 209.95C412.351 211.632 414.504 220.629 414.18 229.42C413.461 229.382 412.749 229.263 412.056 229.066C410.53 228.593 409.033 228.032 407.572 227.385C407.572 227.385 407.395 227.385 407.395 227.562C407.098 228.729 407.191 229.962 407.66 231.072C407.927 231.938 408.505 232.673 409.283 233.137C407.536 234.048 405.982 235.29 404.71 236.795C403.855 237.68 401.465 239.745 401.76 241.22C402.055 242.695 403.589 242.282 404.71 241.958C404.591 242.221 404.54 242.51 404.562 242.799C404.585 243.087 404.68 243.365 404.839 243.607C404.998 243.849 405.216 244.046 405.472 244.181C405.728 244.315 406.014 244.383 406.303 244.377H407.218C409.047 246.442 411.702 244.731 413.56 243.521L416.009 241.958C416.009 249.008 417.1 256.088 417.749 263.109C418.221 268.508 418.457 273.995 419.165 279.393C420.581 319.926 417.159 324.292 414.947 352.465V352.317ZM420.168 279.187C419.785 273.287 418.959 267.387 418.457 261.487C417.867 254.79 417.631 247.946 416.569 241.309C418.849 239.85 420.939 238.116 422.794 236.146C424.298 238.536 425.891 240.866 427.307 243.138C427.706 243.383 428.146 243.553 428.605 243.639C428.074 249.539 430.936 272.225 431.998 280.308C426.275 280.131 422.027 279.6 420.168 279.334V279.187ZM432.558 280.367C431.939 272.166 430.346 249.539 429.608 243.639C450.435 243.315 472.56 237.562 487.576 222.665C487.9 231.869 490.762 259.422 490.909 263.965C491.122 265.371 490.976 266.808 490.486 268.144C489.997 269.479 489.178 270.67 488.107 271.605C469.522 280.75 446.748 281.311 432.558 280.514V280.367ZM473.858 475.834C469.109 477.987 459.551 482.176 456.365 476.188C458.032 476.333 459.711 476.173 461.321 475.716C470.145 474.014 478.485 470.388 485.747 465.096C488.962 468.606 475.717 475.067 473.711 475.981L473.858 475.834ZM485.452 464.358C478.622 469.455 470.724 472.935 462.353 474.536C459.728 475.067 455.509 476.099 454.978 472.589C455.064 471.29 455.537 470.047 456.335 469.019C456.66 468.429 457.043 467.869 457.427 467.308C458.492 467.876 459.419 468.672 460.141 469.639C460.465 469.875 460.76 469.432 460.642 469.137C459.987 468.062 459.005 467.225 457.84 466.748C458.4 465.981 458.99 465.243 459.58 464.506C461.675 465.361 462.235 467.013 462.855 467.456C463.474 467.898 463.386 467.456 463.297 467.131C462.554 465.772 461.425 464.664 460.052 463.945L461.557 462.116C463.799 463.503 464.507 465.302 465.156 465.922C465.421 466.128 465.952 465.922 465.805 465.538C465.019 463.841 463.759 462.406 462.176 461.408L463.74 459.461C467.221 465.361 480.614 462.411 481.115 455.626C482.797 458.443 484.2 461.417 485.304 464.506L485.452 464.358ZM478.962 447.956C479.552 450.139 483.829 459.432 472.413 461.497C464.477 462.942 461.439 453.473 461.262 453.089C467.444 452.964 473.49 451.247 478.814 448.104L478.962 447.956ZM554.6 402.821C553.213 402.202 553.213 401.022 552.712 399.871C552.048 397.958 551.167 396.127 550.086 394.414C545.219 387.924 535.336 389.694 529.053 393.234C527.489 394.171 526.164 395.458 525.182 396.993C524.199 398.529 523.585 400.271 523.389 402.084C523.354 402.874 523.275 403.662 523.153 404.444C522.592 406.42 522.15 406.361 520.026 406.627C517.282 406.981 492.443 408.692 478.401 409.105C476.189 396.184 474.006 383.381 473.062 378.159C471.66 372.283 471.429 366.188 472.383 360.223C475.962 354.868 478.68 348.985 480.437 342.789C489.611 342.169 509.937 340.399 515.129 341.756C521.589 343.526 525.041 349.013 527.43 354.854C529.82 360.695 531.649 367.185 533.714 372.997C533.714 373.233 534.333 373.351 534.422 373.351C539.555 373.351 544.806 372.613 549.939 372.377C555.072 372.141 561.975 370.194 566.341 373.439C569.537 376.423 571.531 380.473 571.946 384.826C572.967 390.521 573.461 396.298 573.421 402.084C568.229 401.907 555.426 403.205 554.6 402.821Z" fill="#2C3E50"/>
<path d="M546.251 417.926C547.25 417.13 548.076 416.139 548.68 415.014C549.283 413.888 549.651 412.652 549.762 411.379C549.872 410.107 549.722 408.826 549.322 407.613C548.921 406.4 548.278 405.282 547.431 404.326C545.612 402.051 543.08 400.456 540.243 399.798C537.406 399.139 534.43 399.456 531.796 400.698C525.719 404.297 527.548 411.878 530.321 415.713C533.507 420.079 541.885 420.876 546.251 417.926ZM532.268 401.701C534.043 400.837 536.022 400.476 537.988 400.658C539.954 400.84 541.832 401.558 543.419 402.733C547.549 405.418 550.145 411.79 546.369 415.861C543.419 419.017 536.28 418.811 533.005 416.303C526.692 411.554 528.993 403.294 532.268 401.701Z" fill="#2C3E50"/>
<path d="M539.849 410.55C540.39 409.999 540.693 409.257 540.693 408.485C540.693 407.713 540.39 406.972 539.849 406.42C539.302 405.906 538.58 405.619 537.829 405.619C537.078 405.619 536.355 405.906 535.808 406.42C535.532 406.651 535.306 406.937 535.145 407.259C534.983 407.581 534.89 407.933 534.871 408.293C534.851 408.653 534.906 409.013 535.032 409.35C535.158 409.688 535.351 409.996 535.601 410.255C535.856 410.561 536.17 410.812 536.524 410.993C536.878 411.174 537.266 411.281 537.662 411.309C538.059 411.336 538.458 411.283 538.833 411.153C539.209 411.023 539.555 410.818 539.849 410.55ZM538.64 407.04C538.862 407.126 539.061 407.263 539.22 407.441C539.378 407.618 539.493 407.831 539.553 408.061C539.614 408.292 539.619 408.533 539.568 408.766C539.516 408.999 539.411 409.216 539.259 409.4C536.28 412.556 534.539 405.683 538.581 406.981L538.64 407.04ZM512.68 351.904C506.78 347.361 495.629 350.488 489.345 352.376C489.28 352.384 489.22 352.415 489.176 352.464C489.133 352.513 489.109 352.576 489.109 352.642C489.64 359.574 491.263 366.949 492.354 373.823C492.354 373.823 510.851 371.492 520.025 371.522C520.261 371.522 520.704 371.522 520.674 371.197C519.819 364.589 518.314 356.27 512.68 351.904ZM493.18 372.554C492.207 366.182 491.794 359.604 490.525 353.261C496.75 352.081 507.075 348.748 512.414 353.556C517.075 357.716 518.137 364.442 519.022 370.312C514.715 370.312 497.487 371.905 493.18 372.613V372.554ZM542.622 429.607C534.067 424.445 522.208 426.185 513.122 429.607C508.345 431.351 503.86 433.808 499.818 436.894C496.661 439.342 493.711 442.204 494.36 446.481C494.36 447.13 499.228 462.618 499.316 462.647C507.193 467.692 518.875 467.367 527.607 465.273C532.461 464.126 537.108 462.235 541.383 459.668C545.205 457.291 548.337 453.955 550.469 449.992C550.469 449.992 549.702 440.168 549.673 439.932C549.421 437.769 548.648 435.699 547.42 433.901C546.192 432.102 544.546 430.629 542.622 429.607ZM497.635 440.493C501.317 436.626 505.797 433.606 510.762 431.643C520.261 427.424 533.831 426.008 541.708 430.64C546.811 433.59 550.233 439.814 546.487 445.39C543.343 449.134 539.275 451.992 534.687 453.679C525.394 457.839 512.503 461.172 503.092 455.656C498.048 452.706 493.18 445.95 497.635 440.493ZM539.436 459.225C535.635 461.315 531.566 462.873 527.341 463.857C518.516 466.181 509.167 465.474 500.791 461.851C500.791 461.851 498.579 455.243 497.487 451.998C499.522 454.431 502.081 456.372 504.973 457.675C507.865 458.977 511.014 459.608 514.184 459.52C524.544 459.256 534.593 455.93 543.065 449.962C545.358 448.499 547.173 446.396 548.286 443.915C548.552 445.803 548.788 449.667 548.788 449.815C546.583 453.742 543.35 456.996 539.436 459.225Z" fill="#2C3E50"/>
</svg>
