<svg width="143" height="49" viewBox="0 0 143 49" fill="none" xmlns="http://www.w3.org/2000/svg">
<g filter="url(#filter0_d_769_5227)">
<path d="M22.5891 7.9641C12.3642 12.3288 4.00001 15.9806 4.00001 16.0849C3.98262 16.2414 40.9695 32.1352 41.4217 32.1526C41.8216 32.17 46.4645 30.1702 46.4124 29.9963C46.395 29.9268 41.9259 27.9618 36.5179 25.649C31.0924 23.3362 26.6234 21.406 26.5539 21.3538C26.5017 21.3017 29.8926 19.7888 34.066 17.9977L41.6825 14.7633H53.7158H65.7492L69.6618 16.4327L73.5918 18.102V26.8315V35.5609L71.4181 36.7434C70.2182 37.3868 69.2444 37.978 69.2444 38.0302C69.2444 38.1867 73.8004 40.6733 74.096 40.6733C74.3569 40.6733 78.9824 38.2041 78.9824 38.0476C78.9824 37.9954 77.9912 37.4042 76.774 36.726L74.5482 35.5087L74.5134 26.8315L74.4612 18.1542L76.7218 17.1978C77.9738 16.6761 78.9998 16.1718 78.9998 16.0849C78.9998 15.9979 76.0958 14.6937 72.531 13.1809L66.0796 10.416L59.037 10.3812L51.9943 10.329L55.3678 8.90312C57.2111 8.1206 58.7066 7.42503 58.6892 7.35547C58.6544 7.18158 41.7347 -0.0175858 41.4217 -0.000198364C41.2825 -0.000198364 32.7966 3.582 22.5891 7.9641ZM48.3252 7.39025C48.2904 7.42503 42.1694 10.0682 34.692 13.2504L21.111 19.0585L17.5984 17.563C15.6682 16.7457 14.1553 16.0501 14.2249 16.0327C14.3118 15.9979 20.485 13.3722 27.9276 10.1899L41.4912 4.3819L44.9343 5.85999C46.8297 6.67729 48.36 7.37286 48.3252 7.39025Z" fill="#2C3E50"/>
<path d="M22.6595 30.3965C21.3727 30.9356 20.2946 31.4747 20.2598 31.5616C20.225 31.7181 40.6052 40.4997 41.3356 40.6214C41.7355 40.7084 62.6722 31.8051 62.6722 31.5616C62.6722 31.4747 61.5592 30.9356 60.2203 30.3618L57.7684 29.3184L49.7346 32.7615C45.3003 34.6569 41.5964 36.2046 41.4921 36.2046C41.4051 36.2046 37.7012 34.6743 33.3017 32.7963C28.8849 30.9008 25.2157 29.3706 25.1288 29.3706C25.0592 29.388 23.9463 29.8401 22.6595 30.3965Z" fill="#2C3E50"/>
<path d="M92.784 21.8689V19.5369H96.37C97.1033 19.5369 97.668 19.3536 98.064 18.9869C98.4747 18.6056 98.68 18.0849 98.68 17.4249C98.68 16.8236 98.4747 16.3249 98.064 15.9289C97.668 15.5182 97.1033 15.3129 96.37 15.3129H92.784V12.8709H96.634C97.6313 12.8709 98.504 13.0689 99.252 13.4649C100.015 13.8462 100.601 14.3742 101.012 15.0489C101.437 15.7236 101.65 16.5009 101.65 17.3809C101.65 18.2902 101.437 19.0822 101.012 19.7569C100.601 20.4169 100.015 20.9376 99.252 21.3189C98.4893 21.6856 97.602 21.8689 96.59 21.8689H92.784ZM90.584 28.3369V12.8709H93.576V28.3369H90.584ZM99.032 28.3369L93.928 21.6489L96.678 20.7909L102.662 28.3369H99.032ZM108.829 28.5569C107.714 28.5569 106.724 28.3222 105.859 27.8529C104.993 27.3689 104.304 26.7089 103.791 25.8729C103.292 25.0369 103.043 24.0836 103.043 23.0129C103.043 21.9569 103.285 21.0182 103.769 20.1969C104.267 19.3609 104.942 18.7009 105.793 18.2169C106.643 17.7182 107.589 17.4689 108.631 17.4689C109.657 17.4689 110.559 17.7036 111.337 18.1729C112.129 18.6276 112.745 19.2582 113.185 20.0649C113.639 20.8569 113.867 21.7589 113.867 22.7709C113.867 22.9616 113.852 23.1596 113.823 23.3649C113.808 23.5556 113.771 23.7756 113.713 24.0249L104.781 24.0469V21.8909L112.371 21.8689L111.205 22.7709C111.175 22.1402 111.058 21.6122 110.853 21.1869C110.662 20.7616 110.376 20.4389 109.995 20.2189C109.628 19.9842 109.173 19.8669 108.631 19.8669C108.059 19.8669 107.56 19.9989 107.135 20.2629C106.709 20.5122 106.379 20.8716 106.145 21.3409C105.925 21.7956 105.815 22.3382 105.815 22.9689C105.815 23.6142 105.932 24.1789 106.167 24.6629C106.416 25.1322 106.768 25.4989 107.223 25.7629C107.677 26.0122 108.205 26.1369 108.807 26.1369C109.349 26.1369 109.841 26.0489 110.281 25.8729C110.721 25.6822 111.102 25.4036 111.425 25.0369L113.119 26.7309C112.605 27.3322 111.975 27.7869 111.227 28.0949C110.493 28.4029 109.694 28.5569 108.829 28.5569ZM120.093 28.5569C119.125 28.5569 118.252 28.3149 117.475 27.8309C116.698 27.3469 116.089 26.6869 115.649 25.8509C115.209 25.0149 114.989 24.0762 114.989 23.0349C114.989 21.9789 115.209 21.0329 115.649 20.1969C116.089 19.3609 116.698 18.7009 117.475 18.2169C118.252 17.7329 119.125 17.4909 120.093 17.4909C120.856 17.4909 121.538 17.6449 122.139 17.9529C122.74 18.2609 123.217 18.6936 123.569 19.2509C123.936 19.7936 124.134 20.4096 124.163 21.0989V24.9269C124.134 25.6309 123.936 26.2542 123.569 26.7969C123.217 27.3396 122.74 27.7722 122.139 28.0949C121.538 28.4029 120.856 28.5569 120.093 28.5569ZM120.621 25.8949C121.428 25.8949 122.08 25.6309 122.579 25.1029C123.078 24.5602 123.327 23.8636 123.327 23.0129C123.327 22.4556 123.21 21.9642 122.975 21.5389C122.755 21.0989 122.44 20.7616 122.029 20.5269C121.633 20.2776 121.164 20.1529 120.621 20.1529C120.093 20.1529 119.624 20.2776 119.213 20.5269C118.817 20.7616 118.502 21.0989 118.267 21.5389C118.047 21.9642 117.937 22.4556 117.937 23.0129C117.937 23.5849 118.047 24.0909 118.267 24.5309C118.502 24.9562 118.817 25.2936 119.213 25.5429C119.624 25.7776 120.093 25.8949 120.621 25.8949ZM123.173 28.3369V25.4769L123.635 22.8809L123.173 20.3289V17.7109H126.033V28.3369H123.173ZM135.733 28.3369V22.2429C135.733 21.6122 135.535 21.0989 135.139 20.7029C134.743 20.3069 134.229 20.1089 133.599 20.1089C133.188 20.1089 132.821 20.1969 132.499 20.3729C132.176 20.5489 131.919 20.7982 131.729 21.1209C131.553 21.4436 131.465 21.8176 131.465 22.2429L130.343 21.6709C130.343 20.8349 130.519 20.1089 130.871 19.4929C131.237 18.8622 131.736 18.3709 132.367 18.0189C133.012 17.6669 133.738 17.4909 134.545 17.4909C135.322 17.4909 136.019 17.6889 136.635 18.0849C137.251 18.4662 137.735 18.9722 138.087 19.6029C138.439 20.2189 138.615 20.8862 138.615 21.6049V28.3369H135.733ZM128.583 28.3369V17.7109H131.465V28.3369H128.583Z" fill="#2C3E50"/>
</g>
<defs>
<filter id="filter0_d_769_5227" x="0" y="0" width="144" height="48.6733" filterUnits="userSpaceOnUse" color-interpolation-filters="sRGB">
<feFlood flood-opacity="0" result="BackgroundImageFix"/>
<feColorMatrix in="SourceAlpha" type="matrix" values="0 0 0 0 0 0 0 0 0 0 0 0 0 0 0 0 0 0 127 0" result="hardAlpha"/>
<feOffset dy="4"/>
<feGaussianBlur stdDeviation="2"/>
<feComposite in2="hardAlpha" operator="out"/>
<feColorMatrix type="matrix" values="0 0 0 0 0 0 0 0 0 0 0 0 0 0 0 0 0 0 0.25 0"/>
<feBlend mode="normal" in2="BackgroundImageFix" result="effect1_dropShadow_769_5227"/>
<feBlend mode="normal" in="SourceGraphic" in2="effect1_dropShadow_769_5227" result="shape"/>
</filter>
</defs>
</svg>
