<svg width="474" height="561" viewBox="0 0 474 561" fill="none" xmlns="http://www.w3.org/2000/svg">
<path d="M385.238 202.68C388.336 187.487 371.403 184.036 368.335 199.228C367.037 205.6 382.141 217.902 385.238 202.68Z" fill="#2C3E50"/>
<path d="M363.054 489.951C499.816 454.285 501.704 452.25 362.789 488.859C317.683 500.6 248.801 519.451 363.054 489.951Z" fill="#2C3E50"/>
<path d="M441.023 480.511C248.27 546.532 267.563 536.384 440.787 479.773L460.817 473.372C460.861 473.343 460.912 473.327 460.965 473.327C461.017 473.327 461.069 473.343 461.112 473.372C461.201 473.696 462.292 473.224 441.023 480.511Z" fill="#2C3E50"/>
<path d="M326.689 540.442C326.664 540.431 326.641 540.416 326.622 540.396C326.209 539.245 414.856 509.214 450.669 497.001C454.829 495.585 462.587 493.314 458.457 494.907C438.84 502.577 385.592 519.362 326.917 540.396C326.898 540.416 326.875 540.431 326.849 540.442C326.824 540.452 326.797 540.458 326.769 540.458C326.742 540.458 326.715 540.452 326.689 540.442Z" fill="#2C3E50"/>
<path d="M181.57 502.252C183.812 497.414 186.467 491.514 188.65 486.647C189.801 492.163 191.01 499.155 192.161 504.671C188.8 503.249 185.215 502.43 181.57 502.252Z" fill="#2C3E50"/>
<path d="M473.206 439.801L461.2 434.491C462.114 432.721 465.33 380.86 466.274 359.797C466.274 359.413 466.539 359.561 459.636 357.643C441.936 352.628 420.106 347.23 404.324 343.66C470.522 325.075 466.539 326.226 466.598 325.665C469.224 301.711 473.324 268.494 472.852 268.317L403.911 246.664C421.935 175.245 426.478 158.784 427.127 154.683C427.363 153.179 427.511 152.825 426.773 152.736C417.274 152.117 388.423 150.229 345.235 147.485C344.881 145.833 343.819 140.936 341.931 134.092C340.84 130.08 339.453 125.419 337.772 120.316C331.907 105.921 321.044 94.1264 307.18 87.0986C300.897 76.2131 311.251 59.1621 304.702 25.9746C298.153 -7.21289 263.402 -3.70239 251.602 11.7851C231.926 37.8041 244.729 54.2061 211.659 77.2751C206.615 78.1601 183.811 88.1311 169.474 98.2791C161.675 104.339 155.208 111.941 150.476 120.611C143.324 133.385 137.709 146.961 133.75 161.055C133.711 161.204 133.729 161.361 133.8 161.498C133.87 161.634 133.989 161.739 134.133 161.793C134.133 161.793 137.88 163.209 143.839 165.185C140.889 179.64 139.237 203.535 148.765 215.335L0.173828 242.564V325.518L33.0368 333.807C33.0368 334.161 37.6093 387.91 38.3173 388.264L67.3748 402.69L8.37483 418.974C130.593 449.152 288.89 490.6 288.625 491.603C288.359 492.606 107.2 446.615 7.37183 419.652V489.125L293.522 560.397C293.286 561.252 292.253 561.4 337.034 546.296C368.511 535.676 473.767 499.833 473.767 498.919C473.442 442.751 473.472 441.128 473.206 439.801ZM79.9123 460.657C80.8268 477.148 84.6028 498.063 68.6433 497.975C57.2268 497.65 56.8433 483.225 58.2298 483.225C59.6163 483.225 58.2298 487.237 61.5928 492.075C62.4139 493.078 63.4375 493.896 64.5967 494.476C65.7559 495.056 67.0245 495.385 68.3195 495.44C69.6145 495.496 70.9067 495.277 72.1114 494.799C73.3161 494.321 74.4062 493.593 75.3103 492.665C76.9032 490.702 77.8327 488.286 77.9653 485.762C77.9653 483.402 77.8178 476.41 78.7028 460.421C66.6668 457.855 65.7228 457.471 58.0528 455.288C57.912 455.257 57.7894 455.171 57.7119 455.049C57.6345 454.927 57.6085 454.78 57.6398 454.639C57.6711 454.498 57.7571 454.376 57.8788 454.298C58.0005 454.221 58.148 454.195 58.2888 454.226C98.6743 459.861 119 468.74 79.9123 460.657ZM123.484 506.205C122.835 506.205 123.012 507.002 119.088 490.423C115.132 490.434 111.216 489.631 107.583 488.063C101.683 501.22 102.008 501.072 101.329 500.807C100.651 500.541 104.781 489.007 114.014 465.672C114.118 465.405 114.305 465.179 114.547 465.027C114.79 464.875 115.075 464.805 115.36 464.829C115.645 464.852 115.915 464.967 116.13 465.156C116.345 465.345 116.492 465.599 116.551 465.879C116.551 465.879 117.436 470.097 118.587 475.761C122.392 494.73 122.569 498.004 123.897 505.586C123.923 505.722 123.894 505.864 123.817 505.98C123.74 506.096 123.62 506.177 123.484 506.205ZM156.288 505.202C150.86 516.648 151.096 516.678 149.857 516.56C149.589 516.537 149.333 516.435 149.123 516.267C148.913 516.099 148.758 515.872 148.677 515.616C146.7 508.801 144.045 500.866 139.62 484.169C137.998 478.269 136.847 473.608 136.847 473.608C136.804 473.471 136.817 473.322 136.884 473.195C136.95 473.068 137.064 472.972 137.201 472.929C137.338 472.886 137.487 472.899 137.614 472.966C137.741 473.032 137.837 473.146 137.88 473.283C142.6 487.266 143.367 488.741 150.27 511.633C170.802 469.301 172.985 469.92 156.288 505.202ZM196.585 522.401C195.818 522.548 196.024 522.666 192.543 506.53C188.468 506.42 184.457 505.497 180.743 503.816C177.528 510.66 173.103 519.569 172.955 519.893C172.873 519.944 172.779 519.973 172.681 519.977C172.584 519.981 172.488 519.96 172.402 519.915C172.316 519.87 172.242 519.804 172.189 519.723C172.137 519.641 172.106 519.548 172.1 519.451C172.1 519.451 173.693 515.38 175.905 509.922C192.602 468.622 189.564 470.422 197.086 521.722C197.103 521.8 197.104 521.881 197.087 521.959C197.07 522.037 197.037 522.111 196.99 522.175C196.942 522.239 196.881 522.293 196.812 522.332C196.742 522.371 196.664 522.394 196.585 522.401ZM464.327 359.797C457.217 361.036 426.626 366.405 389.751 372.954C394.471 361.508 397.598 353.425 400.872 344.693L402.849 344.132C420.313 349.088 443.942 355.195 464.327 359.738V359.797ZM182.602 281.651C175.57 276.697 169.923 270.024 166.2 262.27L168.589 260.942C172.184 266.884 176.638 272.262 181.805 276.902C187.09 281.749 193.388 285.357 200.243 287.463C216.881 292.183 251.632 298.909 268.653 302.006C264.7 327.199 265.497 369.237 276.087 414.106L275.025 413.959C270.522 399.951 267.661 385.468 266.5 370.8C264.561 348.464 264.167 326.02 265.32 303.629C265.615 299.646 207.854 299.794 182.602 281.592V281.651ZM302.047 255.75C318.715 262.004 329.187 277.993 325.293 300.531C320.691 327.435 304.997 386.553 297.858 412.897C290.926 414.687 283.712 415.108 276.618 414.136C260.039 338.852 272.4 301.151 269.45 300.62C269.125 300.62 218.474 291.239 200.302 286.253C193.591 284.274 187.404 280.828 182.189 276.164C177.111 271.642 172.719 266.405 169.15 260.618C172.336 258.877 175.374 257.255 179.681 255.101C196.939 246.517 218.267 238.198 237.442 237.165V242.357C237.265 243.095 233.548 242.151 302.047 255.691V255.75ZM351.106 394.4L350.575 394.046C350.261 381.86 350.655 369.666 351.755 357.525C353.879 332.244 355.796 320.503 358.068 313.6C360.044 307.7 361.578 304.248 360.457 303.953C357.183 303.127 354.852 302.449 327.388 295.752C327.519 293.492 327.519 291.227 327.388 288.967C339.129 293.971 351.291 297.919 363.732 300.767C357.654 322.035 353.701 343.854 351.932 365.903C351.312 374.901 350.988 384.4 351.106 394.341V394.4ZM349.985 380.004L305.735 387.969C308.065 379.68 309.393 374.694 310.691 369.856C323.405 366.316 335.943 362.865 350.752 358.705C350.722 359.266 350.132 367.231 349.985 379.945V380.004ZM324.113 314.573C336.297 313.246 348.746 311.269 358.068 309.47C356.36 315.971 355.002 322.559 353.997 329.205C342.698 330.975 330.397 333.335 319.305 335.961C321.075 328.409 322.727 321.181 324.113 314.514V314.573ZM319.157 336.551C331.577 334.633 343.524 332.214 353.879 329.795C352.964 335.695 352.374 340.681 351.814 346.227C341.548 347.908 327.889 350.563 314.939 353.661C316.443 347.613 317.682 342.628 319.157 336.551ZM314.791 354.251C327.195 352.189 339.523 349.7 351.755 346.787C351.43 350.062 351.135 353.484 350.87 357.142L311.104 368.352C312.343 363.632 313.7 358.912 314.791 354.251ZM353.348 366.051C358.156 316.668 366.387 301.416 365.443 299.853C365.318 299.684 365.142 299.559 364.941 299.499C352.156 296.811 339.616 293.072 327.447 288.318C327.447 287.374 327.447 286.725 327.211 285.958C340.259 291.581 353.759 296.091 367.567 299.44C360.839 321.126 356.361 343.447 354.203 366.051C353.377 375.373 352.935 385.255 353.053 395.551L351.666 394.725C352.05 394.253 351.401 386.111 353.348 366.051ZM327.329 296.49C336.031 298.879 350.575 302.891 359.336 305.34C359.1 306.048 358.717 307.316 358.215 309.086C349.365 310.06 336.828 311.83 324.231 314.219C325.293 308.88 326.916 300.885 327.329 296.372V296.49ZM293.492 432.868C297.475 432.16 281.692 434.668 319.629 428.974L345.029 425.139C344.683 425.928 344.226 426.663 343.672 427.322C340.886 430.136 338.918 433.654 337.978 437.5L344.114 441.364L294.613 449.742C292.537 444.32 292.146 438.398 293.492 432.75V432.868ZM319.452 427.853L293.64 431.806C294.731 425.139 297.504 417.233 305.263 389.68L349.985 381.568V393.928C349.985 394.105 348.775 415.522 345.53 423.9L319.452 427.853ZM353.672 395.816C354.38 337.2 370.251 300.295 369.16 298.466C369.114 298.369 369.044 298.285 368.956 298.223C368.868 298.161 368.766 298.122 368.658 298.112C362.891 296.995 357.196 295.527 351.607 293.717C340.515 290.265 329.689 286.165 327.122 285.162C326.199 278.579 323.521 272.366 319.368 267.175C315.216 261.984 309.742 258.007 303.522 255.662L400.872 249.555C405.48 250.977 409.419 254.015 411.964 258.11C424.826 277.521 412.141 309.529 399.456 343.66C385.444 381.42 375.856 401.864 375.856 402.454C367.97 402.097 360.284 399.862 353.436 395.934C353.436 395.934 353.672 395.757 353.672 395.698V395.816ZM465.33 325.193C443.146 331.3 421.67 337.318 401.58 342.893C403.881 336.698 405.091 333.306 406.448 329.471C459.548 321.063 460.108 316.461 406.654 328.91C408.395 323.984 410.017 319.175 411.492 314.544C478.103 302.331 477.218 298.024 411.669 313.983C414.619 304.602 419.28 289.469 419.015 279.645L472.557 268.701L465.33 325.193ZM425.8 154.211L401.993 247.874L301.221 254.334L238.445 241.915V237.106C239.035 237.106 267.621 243.655 301.133 248.906C301.215 248.924 301.301 248.909 301.372 248.865C301.444 248.821 301.495 248.751 301.516 248.67L326.178 147.515C354.469 149.491 399.043 152.471 425.8 154.211ZM242.575 236.959L303.847 235.72L300.897 248.257C281.869 244.009 261.721 240.115 242.575 236.959ZM277.975 33.9396C277.975 33.9396 292.401 33.9396 300.661 39.2496C300.661 39.2496 304.319 75.3871 279.657 75.3871C262.783 75.3871 253.343 53.5276 278.034 33.9396H277.975ZM134.9 160.79C138.965 146.982 144.628 133.695 151.774 121.201C156.42 112.735 162.756 105.315 170.389 99.4001C183.061 90.8735 196.733 83.938 211.099 78.7501C232.958 92.4381 255.349 141.91 273.963 151.704C292.578 161.498 301.31 122.204 300.72 112.41C300.218 104.268 305.233 91.7596 306.826 88.2196C320.407 95.0524 331.07 106.553 336.857 120.611C338.598 125.685 340.014 130.316 341.164 134.299C343.052 140.877 344.114 145.656 344.557 147.426C323.907 146.128 325.146 145.981 324.969 146.718L303.994 235.218C234.05 236.369 243.136 236.015 237.206 236.133C217.618 236.133 196.113 244.983 178.885 253.833C173.781 256.517 167.94 259.969 163.22 263.096C157.374 250.063 155.338 235.642 157.35 221.501C180.301 229.171 201.128 221.914 219.624 221.943C239.153 221.943 248.416 215.453 253.49 228.433C254.936 234.156 260.039 234.333 259.774 230.056C262.901 234.805 266.736 233.773 263.845 225.985C265.261 228.404 266.028 232.091 268.594 232.327C274.199 232.799 270.836 213.182 250.54 206.515C222.427 197.311 214.432 185.865 194.49 183.446C198.915 163.504 203.34 136.924 199.535 116.805C195.287 93.8836 183.251 95.0931 182.985 94.7981C182.899 94.7981 182.817 94.8323 182.756 94.8932C182.695 94.954 182.661 95.0366 182.661 95.1226C182.661 95.2087 182.695 95.2912 182.756 95.3521C182.817 95.4129 182.899 95.4471 182.985 95.4471C183.516 96.0961 206.585 93.3526 196.732 165.215C196.231 168.902 195.641 172.767 194.962 176.838C186.67 175.875 178.458 174.318 170.389 172.177C158.395 169.002 146.57 165.221 134.959 160.849L134.9 160.79ZM144.311 165.451C159.356 170.436 179.327 176.071 195.051 177.487C194.726 179.404 194.372 181.381 193.989 183.387C179.239 181.735 163.073 187.635 163.368 188.402C163.381 188.442 163.402 188.48 163.431 188.513C163.459 188.545 163.493 188.572 163.531 188.591C163.57 188.61 163.611 188.622 163.654 188.625C163.697 188.628 163.74 188.622 163.781 188.608C202.632 174.094 215.465 196.278 250.186 207.901C269.715 214.391 271.485 232.416 268.417 230.646C266.795 229.672 267.031 227.696 264.405 223.802C263.121 221.899 261.722 220.077 260.216 218.344C260.156 218.263 260.081 218.194 259.994 218.142C259.908 218.09 259.812 218.055 259.712 218.04C259.612 218.025 259.51 218.03 259.411 218.054C259.313 218.078 259.221 218.122 259.14 218.182C259.058 218.242 258.99 218.317 258.937 218.404C258.885 218.491 258.851 218.587 258.835 218.687C258.82 218.787 258.825 218.889 258.85 218.987C258.874 219.085 258.917 219.177 258.977 219.259C265.792 231.059 264.435 237.49 257.768 222.681C256.263 218.728 255.968 217.725 254.995 218.138C253.549 218.757 255.791 220.763 257.65 226.988C258.118 228.312 258.318 229.716 258.24 231.118C258.24 231.383 257.266 231.442 256.558 230.793C253.608 227.843 255.29 217.489 238.534 218.993C233.548 219.406 227.383 220.468 219.713 220.468C200.154 220.468 183.103 227.489 158.5 220.645C139.915 215.394 140.682 184.39 144.311 165.451ZM173.427 286.666L186.85 290.088C176.905 283.516 168.867 274.44 163.545 263.774L165.521 262.594C169.243 270.505 174.918 277.337 182.012 282.448C194.402 291.652 207.588 294.572 235.112 299.676C250.039 302.626 260.954 303.894 263.815 304.248C261.957 335.902 263.343 383.898 274.229 413.723C272.016 413.339 270.453 412.956 269.833 412.808C263.222 389.54 259.769 365.489 259.567 341.3C259.39 313.836 263.638 309.647 261.278 309.647C260.511 309.47 217.707 309.794 189.328 291.74L173.162 287.964C-43.8992 237.283 -46.5837 229.525 173.427 286.607V286.666ZM245.732 310.266C252.871 311.004 258.181 311.181 260.246 311.24C256.057 332.067 258.269 360.652 262.134 382.246L245.732 386.966V310.266ZM39.3498 387.084C38.0518 374.045 36.3998 356.64 33.6268 333.984C130.977 367.673 150.506 375.284 229.566 403.132C228.858 426.939 229.005 456.557 229.566 473.342C114.516 421.186 133.75 433.665 39.3498 387.084ZM45.2498 336.934L245.85 387.792C247.03 387.497 245.85 387.792 262.399 383.161C263.107 387.084 263.933 391.155 264.877 395.344L229.979 401.451C200.007 390.949 97.0223 354.575 45.2498 336.875V336.934ZM230.303 473.46C230.834 455.76 231.011 426.732 230.303 403.191L265.172 396.878C268.506 410.035 272.282 425.818 272.783 435.022C231.483 441.482 228.976 442.279 272.783 435.848C273.432 449.89 270.954 444.963 269.656 454.02C234.669 460.156 228.356 461.572 269.656 454.905C269.531 456.081 269.531 457.268 269.656 458.445L278.211 460.716C278.211 458.445 281.338 458.15 293.168 463.991C304.997 469.832 312.756 467.619 309.393 463.991C306.797 461.041 299.186 457.501 295.351 450.686L348.864 441.659C352.569 443.884 355.962 446.592 358.953 449.713C368.481 458.799 376.653 459.035 374.47 454.58C372.906 451.276 367.272 445.937 365.295 438.886C390.459 434.579 408.159 431.423 418.248 430.036C425.77 429.063 431.11 427.086 415.062 429.535C404.766 431.157 388.187 433.871 364.912 437.736C363.673 432.131 365.413 427.057 367.537 421.599C397.037 417.115 402.17 416.289 429.015 412.1C451.022 408.619 450.049 408.885 450.019 408.531C450.005 408.473 449.97 408.423 449.921 408.39C449.872 408.358 449.812 408.345 449.754 408.354L428.897 411.304C399.663 415.552 393.733 416.466 368.009 420.331C370.619 414.266 373.574 408.357 376.859 402.631C378.836 398.884 389.249 374.488 389.397 374.193L465.566 360.151C462.114 395.374 460.58 434.107 460.58 434.402L371.815 449.447C372.993 450.939 374.058 452.516 375.001 454.167C377.213 458.917 370.251 460.864 359.602 451.512L306.295 460.451C307.554 461.324 308.729 462.311 309.806 463.401C310.223 463.752 310.519 464.227 310.652 464.756C310.784 465.286 310.746 465.844 310.543 466.351C307.977 471.307 294.938 465.554 289.893 463.194L230.303 473.46ZM472.469 498.476C438.691 509.893 351.873 539.776 293.905 560.19L289.864 491.544L472.764 440.273C472.705 449.831 472.498 479.242 472.41 498.417L472.469 498.476Z" fill="#2C3E50"/>
<path d="M114.811 470.805C112.038 477.649 110.12 482.251 108.291 486.44C111.84 486.587 115.339 487.325 118.646 488.623C117.348 482.93 115.607 474.67 114.811 470.805ZM277.061 47.0672C278.182 47.4507 278.329 45.8282 278.772 44.6777C278.846 44.5661 278.896 44.4393 278.916 44.3064C278.937 44.1735 278.927 44.0377 278.889 43.9088C278.851 43.7798 278.785 43.6609 278.696 43.5604C278.606 43.4599 278.496 43.3803 278.373 43.3274C278.249 43.2744 278.115 43.2493 277.981 43.254C277.846 43.2586 277.715 43.2928 277.595 43.3541C277.475 43.4154 277.371 43.5024 277.289 43.6088C277.206 43.7152 277.149 43.8384 277.12 43.9697C276.648 45.1792 275.94 46.6837 277.061 47.0672ZM294.79 51.4037C295.174 50.2237 296.029 48.9257 294.967 48.4537C293.905 47.9817 293.522 49.5452 293.109 50.8137C293.05 51.2857 294.377 52.6132 294.79 51.4037ZM277.916 63.1152C278.3 63.2922 278.506 62.7022 278.123 62.5547C277.237 61.851 276.527 60.9525 276.046 59.9292C275.565 58.9058 275.326 57.7852 275.35 56.6547C275.361 56.5733 275.343 56.4905 275.3 56.4206C275.257 56.3506 275.191 56.2978 275.114 56.2712C274.494 56.2712 274.052 58.3952 274.258 59.6047C274.477 60.474 274.936 61.2642 275.583 61.885C276.23 62.5058 277.038 62.9321 277.916 63.1152ZM289.126 56.0942C289.805 55.6517 290.572 45.8577 289.834 45.7692C289.097 45.6807 288.123 53.6752 288.035 54.6192C278.536 52.1707 288.241 56.6842 289.126 56.0942Z" fill="#2C3E50"/>
<path d="M53 436.5L212.915 475.058L203 532L42 494.786L53 436.5Z" fill="#2C3E50"/>
</svg>
